<?xml version="1.0" encoding="UTF-8"?>
<!-- Created with Inkscape (http://www.inkscape.org/) -->
<svg width="72.25mm" height="72.25mm" version="1.1" viewBox="0 0 72.25 72.25" xmlns="http://www.w3.org/2000/svg" xmlns:xlink="http://www.w3.org/1999/xlink">
 <defs>
  <pattern id="pattern29" patternTransform="matrix(.17747 .17747 -.17747 .17747 1.9289 1.9915)" preserveAspectRatio="xMidYMid" xlink:href="#Strips1_2"/>
  <pattern id="Strips1_2" width="3" height="1" fill="#80d5ff" patternTransform="translate(0) scale(2)" patternUnits="userSpaceOnUse" preserveAspectRatio="xMidYMid">
   <rect y="-.5" width="1" height="2"/>
  </pattern>
  <pattern id="pattern29-1" patternTransform="matrix(.17817 .17817 -.17817 .17817 35.027 18.925)" preserveAspectRatio="xMidYMid" xlink:href="#Strips1_2-1"/>
  <pattern id="Strips1_2-1" width="3" height="1" fill="#80d5ff" patternTransform="translate(0) scale(2)" patternUnits="userSpaceOnUse" preserveAspectRatio="xMidYMid">
   <rect y="-.5" width="1" height="2"/>
  </pattern>
 </defs>
 <g transform="translate(2,2)" fill="#f5f5f5" stroke="#b3b3b3" stroke-width=".25">
  <rect x="2.125" y="2.173" width="16" height="16" style="paint-order:stroke fill markers"/>
  <rect x="2.125" y="18.173" width="16" height="16" style="paint-order:stroke fill markers"/>
  <rect x="2.125" y="34.173" width="16" height="16" style="paint-order:stroke fill markers"/>
  <rect x="2.125" y="50.173" width="16" height="16" style="paint-order:stroke fill markers"/>
  <rect x="18.125" y="2.157" width="16" height="16" style="paint-order:stroke fill markers"/>
  <rect x="18.125" y="18.157" width="16" height="16" style="paint-order:stroke fill markers"/>
  <rect x="18.125" y="34.157" width="16" height="16" style="paint-order:stroke fill markers"/>
  <rect x="18.125" y="50.157" width="16" height="16" style="paint-order:stroke fill markers"/>
  <rect x="34.125" y="2.141" width="16" height="16" style="paint-order:stroke fill markers"/>
  <rect x="34.125" y="18.141" width="16" height="16" style="paint-order:stroke fill markers"/>
  <rect x="34.125" y="34.141" width="16" height="16" style="paint-order:stroke fill markers"/>
  <rect x="34.125" y="50.141" width="16" height="16" style="paint-order:stroke fill markers"/>
  <rect x="50.125" y="2.125" width="16" height="16" style="paint-order:stroke fill markers"/>
  <rect x="50.125" y="18.125" width="16" height="16" style="paint-order:stroke fill markers"/>
  <rect x="50.125" y="34.125" width="16" height="16" style="paint-order:stroke fill markers"/>
  <rect x="50.125" y="50.125" width="16" height="16" style="paint-order:stroke fill markers"/>
 </g>
 <rect x="4.125" y="4.173" width="32" height="32" fill="url(#pattern29)" opacity=".8" style="paint-order:normal"/>
 <rect x="36.125" y="20.016" width="16" height="16" fill="url(#pattern29-1)" opacity=".8" style="paint-order:normal"/>
 <g transform="translate(2,2)">
  <path d="m-7.7998 34.048 84.709 0.07671z" fill="none" opacity=".75" stroke="#12b212" stroke-dasharray="0.4, 0.8" stroke-linecap="square" stroke-linejoin="bevel" stroke-width=".4" style="paint-order:normal"/>
  <path d="m-7.7998 2.1186 84.709 0.07671z" fill="none" opacity=".75" stroke="#12b212" stroke-dasharray="0.4, 0.8" stroke-linecap="square" stroke-linejoin="bevel" stroke-width=".4" style="paint-order:normal"/>
  <path d="m55.869 3.4317-0.42416 1.1137q-0.06573 0.16991-0.13642 0.2927-0.06945 0.12278-0.15255 0.20092-0.0831 0.079375-0.18232 0.11658-0.09922 0.037207-0.222 0.037207-0.03225 0-0.05829-0.00124t-0.05705-0.00372v-0.19596q0.02728 0.00372 0.05953 0.0062 0.03225 0.00372 0.06821 0.00372 0.05953 0 0.11038-0.017363 0.05209-0.017363 0.09798-0.057051 0.04589-0.038447 0.08806-0.10046t0.08185-0.15007l-0.49733-1.2452h0.24557l0.31502 0.82352 0.06325 0.19348 0.07193-0.19844 0.29146-0.81855zm1.3779 0.43532q0 0.18604-0.03721 0.33982-0.03721 0.15255-0.11286 0.26293-0.07565 0.10914-0.18852 0.16991-0.11162 0.059531-0.26293 0.059531-0.13022 0-0.23688-0.048369-0.10666-0.049609-0.18232-0.15131-0.07565-0.1017-0.11658-0.25921-0.04093-0.15751-0.04093-0.37331 0-0.18604 0.03721-0.33982 0.03845-0.15379 0.11286-0.26293 0.07565-0.11038 0.18852-0.16991 0.11286-0.060771 0.26293-0.060771 0.13022 0 0.23688 0.049609 0.10666 0.048369 0.18231 0.15131 0.07565 0.1017 0.11658 0.25921 0.04093 0.15751 0.04093 0.37331zm-0.21828 0.00744q0-0.042168-0.0037-0.083096-0.0025-0.042168-0.0062-0.081856l-0.68585 0.50974q0.0186 0.064492 0.04713 0.11906 0.02853 0.05457 0.06821 0.094258 0.04093 0.038447 0.09178 0.060771 0.05209 0.021084 0.11782 0.021084 0.08434 0 0.15255-0.040928 0.06945-0.040928 0.11782-0.12154 0.04837-0.080615 0.07441-0.19968 0.02605-0.1203 0.02605-0.27781zm-0.74166-0.014883q0 0.038447 0 0.076894 0.0012 0.038447 5e-3 0.074414l0.68585-0.50726q-0.0186-0.063252-0.04713-0.11534-0.02853-0.05209-0.06821-0.089297-0.03969-0.038447-0.09054-0.059531t-0.1141-0.021084q-0.08434 0-0.15379 0.040928-0.06821 0.040928-0.11658 0.12278-0.04837 0.080615-0.07442 0.20092-0.02604 0.11906-0.02604 0.27657zm3.7281 0.17239q0 0.16619-0.04713 0.29021-0.04589 0.12402-0.12774 0.20588-0.08185 0.081855-0.19348 0.12278-0.11162 0.040928-0.24185 0.040928-0.05953 0-0.11906-0.0062-0.05829-0.0062-0.11906-0.021084v0.5209h-0.2158v-1.7537h0.19224l0.01364 0.20836q0.09302-0.12774 0.19844-0.17859 0.10542-0.05209 0.2282-0.05209 0.10666 0 0.18728 0.044649 0.08062 0.044648 0.13518 0.1265 0.05457 0.080615 0.08186 0.19596 0.02728 0.1141 0.02728 0.25549zm-0.22076 0.00992q0-0.097978-0.01488-0.17983-0.01364-0.081856-0.04465-0.14015-0.03101-0.058291-0.07937-0.090537-0.04837-0.033486-0.11534-0.033486-0.04093 0-0.0831 0.013643-0.04217 0.012402-0.08806 0.043408-0.04465 0.029766-0.0955 0.080615-0.04961 0.049609-0.10666 0.12402v0.60399q0.05953 0.024805 0.12526 0.039687 0.06573 0.013643 0.12898 0.013643 0.17487 0 0.27409-0.11782 0.09922-0.11906 0.09922-0.35719zm0.9773-0.94009h-0.36835v-0.17735h0.58663v1.5726h0.37083v0.17983h-0.99839v-0.17983h0.40928zm1.7723 1.5751-5e-3 -0.16743q-0.1017 0.10046-0.20712 0.14511-0.10418 0.044649-0.21952 0.044649-0.10666 0-0.18231-0.027285-0.07565-0.027285-0.12526-0.074414-0.04837-0.048369-0.07193-0.11286-0.02232-0.064492-0.02232-0.14015 0-0.18728 0.13891-0.2927 0.14015-0.10666 0.413-0.10666h0.25797v-0.10914q0-0.11038-0.07069-0.17611-0.07069-0.066973-0.2158-0.066973-0.10542 0-0.20836 0.023564-0.1017 0.023564-0.21084 0.066973v-0.19472q0.04093-0.014883 0.09054-0.028525 0.05085-0.014883 0.10666-0.026045 0.05581-0.011162 0.11658-0.017363 0.06077-0.00744 0.12278-0.00744 0.11286 0 0.2034 0.024805 0.09054 0.024805 0.15255 0.075654 0.06325 0.05085 0.09674 0.12774 0.03349 0.076895 0.03349 0.18107v0.85824zm-0.02356-0.56679h-0.27409q-0.08062 0-0.13891 0.016123-0.05829 0.016123-0.0955 0.045889t-0.05581 0.071934q-0.01736 0.040928-0.01736 0.093018 0 0.035967 0.01116 0.069453 0.01116 0.032246 0.03597 0.058291 0.0248 0.024805 0.06449 0.039687 0.03969 0.014883 0.09674 0.014883 0.07441 0 0.16991-0.044649 0.09674-0.045889 0.2034-0.14387zm0.62012-0.67841h0.19224l0.0087 0.20092q0.05457-0.064492 0.10542-0.10666 0.05085-0.043408 0.09922-0.069453 0.04961-0.026045 0.10046-0.035967 0.05085-0.011162 0.10542-0.011162 0.19224 0 0.29022 0.1141 0.09922 0.11286 0.09922 0.34106v0.81235h-0.21583v-0.79499q0-0.14635-0.05457-0.2158-0.05457-0.070693-0.16247-0.070693-0.03969 0-0.07813 0.012402-0.03721 0.011162-0.07813 0.040928-0.04093 0.028525-0.0893 0.078135-0.04713 0.049609-0.10666 0.12402v0.826h-0.2158zm2.4482 0.55687q0 0.045889-0.0012 0.076894-0.0012 0.031006-0.0037 0.058291h-0.87436q0 0.191 0.10666 0.29394 0.10666 0.1017 0.30758 0.1017 0.05457 0 0.10914-0.00372 0.05457-0.00496 0.10542-0.012402 0.05085-0.00744 0.09674-0.016123 0.04713-0.00992 0.08682-0.021084v0.17735q-0.08806 0.024805-0.19968 0.039688-0.11038 0.016123-0.22944 0.016123-0.15999 0-0.27533-0.043408t-0.18976-0.12526q-0.07317-0.083096-0.10914-0.20216-0.03473-0.1203-0.03473-0.27161 0-0.13146 0.03721-0.24805 0.03845-0.11782 0.11038-0.20588 0.07317-0.089297 0.17859-0.14139 0.10542-0.05209 0.23936-0.05209 0.13022 0 0.23068 0.040928t0.16867 0.11658q0.06945 0.074414 0.10418 0.18231 0.03597 0.10666 0.03597 0.23937zm-0.22448-0.031006q0.0037-0.083096-0.01612-0.15131-0.01984-0.069453-0.06201-0.11906-0.04093-0.049609-0.10294-0.076894-0.06201-0.028525-0.14387-0.028525-0.07069 0-0.12898 0.027285-0.05829 0.027285-0.10046 0.076895-0.04217 0.049609-0.06821 0.11906-0.02605 0.069453-0.03225 0.15255z" fill="#12b212" opacity=".75" stroke-width="0" aria-label="y0 plane"/>
  <path d="m55.885 35.361-0.42416 1.1137q-0.06573 0.16991-0.13643 0.2927-0.06945 0.12278-0.15255 0.20092-0.0831 0.07937-0.18232 0.11658-0.09922 0.03721-0.222 0.03721-0.03225 0-0.05829-0.0012t-0.05705-0.0037v-0.19596q0.02728 0.0037 0.05953 0.0062 0.03225 0.0037 0.06821 0.0037 0.05953 0 0.11038-0.01736 0.05209-0.01736 0.09798-0.05705 0.04589-0.03845 0.08806-0.10046 0.04217-0.06201 0.08186-0.15007l-0.49733-1.2452h0.24557l0.31502 0.82352 0.06325 0.19348 0.07193-0.19844 0.29146-0.81855zm1.3271 1.2452h-1.0182v-0.20092h0.41672v-1.1832l-0.38819 0.21084-0.07937-0.18355 0.51594-0.27161h0.191v1.4275h0.36215zm2.8191-0.64492q0 0.16619-0.04713 0.29022-0.04589 0.12402-0.12774 0.20588-0.08186 0.08186-0.19348 0.12278-0.11162 0.04093-0.24184 0.04093-0.05953 0-0.11906-0.0062-0.05829-0.0062-0.11906-0.02108v0.5209h-0.2158v-1.7537h0.19224l0.01364 0.20836q0.09302-0.12774 0.19844-0.17859 0.10542-0.05209 0.2282-0.05209 0.10666 0 0.18728 0.04465 0.08062 0.04465 0.13518 0.1265 0.05457 0.08062 0.08186 0.19596 0.02728 0.1141 0.02728 0.25549zm-0.22076 0.0099q0-0.09798-0.01488-0.17983-0.01364-0.08186-0.04465-0.14015-0.03101-0.05829-0.07937-0.09054-0.04837-0.03349-0.11534-0.03349-0.04093 0-0.0831 0.01364-0.04217 0.0124-0.08806 0.04341-0.04465 0.02977-0.0955 0.08062-0.04961 0.04961-0.10666 0.12402v0.60399q0.05953 0.0248 0.12526 0.03969 0.06573 0.01364 0.12898 0.01364 0.17487 0 0.27409-0.11782 0.09922-0.11906 0.09922-0.35719zm0.9773-0.9401h-0.36835v-0.17735h0.58663v1.5726h0.37083v0.17983h-0.99839v-0.17983h0.40928zm1.7723 1.5751-5e-3 -0.16743q-0.1017 0.10046-0.20712 0.14511-0.10418 0.04465-0.21952 0.04465-0.10666 0-0.18231-0.02728-0.07566-0.02728-0.12526-0.07441-0.04837-0.04837-0.07193-0.11286-0.02232-0.06449-0.02232-0.14015 0-0.18728 0.13891-0.2927 0.14015-0.10666 0.413-0.10666h0.25797v-0.10913q0-0.11038-0.07069-0.17611-0.07069-0.06697-0.2158-0.06697-0.10542 0-0.20836 0.02356-0.1017 0.02356-0.21084 0.06697v-0.19472q0.04093-0.01488 0.09054-0.02853 0.05085-0.01488 0.10666-0.02605 0.05581-0.01116 0.11658-0.01736 0.06077-0.0074 0.12278-0.0074 0.11286 0 0.2034 0.0248 0.09054 0.02481 0.15255 0.07565 0.06325 0.05085 0.09674 0.12774 0.03349 0.07689 0.03349 0.18107v0.85824zm-0.02356-0.56679h-0.27409q-0.08062 0-0.13891 0.01612-0.05829 0.01612-0.0955 0.04589t-0.05581 0.07193q-0.01736 0.04093-0.01736 0.09302 0 0.03597 0.01116 0.06945 0.01116 0.03225 0.03597 0.05829 0.02481 0.02481 0.06449 0.03969 0.03969 0.01488 0.09674 0.01488 0.07441 0 0.16991-0.04465 0.09674-0.04589 0.2034-0.14387zm0.62012-0.67841h0.19224l0.0087 0.20092q0.05457-0.06449 0.10542-0.10666 0.05085-0.04341 0.09922-0.06945 0.04961-0.02605 0.10046-0.03597 0.05085-0.01116 0.10542-0.01116 0.19224 0 0.29022 0.1141 0.09922 0.11286 0.09922 0.34106v0.81235h-0.2158v-0.79499q0-0.14635-0.05457-0.2158-0.05457-0.07069-0.16247-0.07069-0.03969 0-0.07813 0.0124-0.03721 0.01116-0.07814 0.04093-0.04093 0.02853-0.0893 0.07814-0.04713 0.04961-0.10666 0.12402v0.826h-0.2158zm2.4482 0.55686q0 0.04589-0.0012 0.07689-0.0012 0.03101-0.0037 0.05829h-0.87443q0 0.191 0.10666 0.29394 0.10666 0.1017 0.30758 0.1017 0.05457 0 0.10914-0.0037 0.05457-5e-3 0.10542-0.0124t0.09674-0.01612q0.04713-0.0099 0.08682-0.02108v0.17735q-0.08806 0.0248-0.19968 0.03969-0.11038 0.01612-0.22944 0.01612-0.15999 0-0.27533-0.04341t-0.18976-0.12526q-0.07317-0.0831-0.10914-0.20216-0.03473-0.1203-0.03473-0.27161 0-0.13146 0.03721-0.24805 0.03845-0.11782 0.11038-0.20588 0.07317-0.0893 0.17859-0.14139 0.10542-0.05209 0.23937-0.05209 0.13022 0 0.23068 0.04093t0.16867 0.11658q0.06945 0.07441 0.10418 0.18232 0.03597 0.10666 0.03597 0.23936zm-0.22448-0.03101q0.0037-0.0831-0.01612-0.15131-0.01984-0.06945-0.06201-0.11906-0.04093-0.04961-0.10294-0.0769-0.06201-0.02852-0.14387-0.02852-0.07069 0-0.12898 0.02728-0.05829 0.02728-0.10046 0.0769-0.04217 0.04961-0.06821 0.11906-0.02605 0.06945-0.03225 0.15255z" fill="#12b212" opacity=".75" stroke-width="0" aria-label="y1 plane"/>
  <path d="m2.0876-7.7995 0.19981 84.708z" fill="none" opacity=".75" stroke="#e51717" stroke-dasharray="0.4, 0.8" stroke-linecap="square" stroke-linejoin="bevel" stroke-width=".4" style="paint-order:normal"/>
  <path d="m33.963-7.7995 0.19981 84.708z" fill="none" opacity=".75" stroke="#e51717" stroke-dasharray="0.4, 0.8" stroke-linecap="square" stroke-linejoin="bevel" stroke-width=".4" style="paint-order:normal"/>
  <path d="m4.2504 0.8808h-0.28649l-0.3361-0.47501-0.33238 0.47501h-0.27905l0.48245-0.62508-0.46013-0.62012h0.27657l0.32742 0.47873 0.32122-0.47873h0.26665l-0.46757 0.62508zm1.363-0.80987q0 0.18604-0.037207 0.33982-0.037207 0.15255-0.11286 0.26293-0.075654 0.10914-0.18852 0.16991-0.11162 0.059531-0.26293 0.059531-0.13022 0-0.23688-0.048369-0.10666-0.049609-0.18231-0.15131-0.075654-0.1017-0.11658-0.25921-0.040928-0.15751-0.040928-0.37331 0-0.18604 0.037207-0.33982 0.038447-0.15379 0.11286-0.26293 0.075654-0.11038 0.18852-0.16991 0.11286-0.060772 0.26293-0.060772 0.13022 0 0.23688 0.049609 0.10666 0.048369 0.18231 0.15131 0.075654 0.1017 0.11658 0.25921 0.040928 0.15751 0.040928 0.37331zm-0.21828 0.0074414q0-0.042168-0.00372-0.083096-0.00248-0.042168-0.0062-0.081855l-0.68585 0.50974q0.018603 0.064492 0.047129 0.11906 0.028525 0.05457 0.068213 0.094258 0.040928 0.038447 0.091777 0.060772 0.05209 0.021084 0.11782 0.021084 0.084336 0 0.15255-0.040928 0.069453-0.040928 0.11782-0.12154 0.048369-0.080615 0.074414-0.19968 0.026045-0.1203 0.026045-0.27781zm-0.74166-0.014883q0 0.038447 0 0.076895 0.00124 0.038447 0.00496 0.074414l0.68585-0.50726q-0.018604-0.063252-0.047129-0.11534-0.028525-0.05209-0.068213-0.089297-0.039687-0.038447-0.090537-0.059531-0.05085-0.021084-0.1141-0.021084-0.084336 0-0.15379 0.040928-0.068213 0.040928-0.11658 0.12278-0.048369 0.080615-0.074414 0.20092-0.026045 0.11906-0.026045 0.27657zm3.7281 0.17239q0 0.16619-0.047129 0.29021-0.045889 0.12402-0.12774 0.20588-0.081855 0.081856-0.19348 0.12278-0.11162 0.040928-0.24185 0.040928-0.059531 0-0.11906-0.006201-0.058291-0.006201-0.11906-0.021084v0.5209h-0.2158v-1.7537h0.19224l0.013643 0.20836q0.093018-0.12774 0.19844-0.17859 0.10542-0.05209 0.2282-0.05209 0.10666 0 0.18728 0.044648 0.080615 0.044648 0.13519 0.1265 0.05457 0.080615 0.081855 0.19596 0.027285 0.1141 0.027285 0.25549zm-0.22076 0.009922q0-0.097978-0.014883-0.17983-0.013642-0.081855-0.044648-0.14015-0.031006-0.058291-0.079375-0.090537-0.048369-0.033486-0.11534-0.033486-0.040928 0-0.083096 0.013643-0.042168 0.012402-0.088057 0.043408-0.044649 0.029766-0.095498 0.080615-0.049609 0.049609-0.10666 0.12402v0.60399q0.059531 0.024805 0.12526 0.039688 0.065733 0.013643 0.12898 0.013643 0.17487 0 0.27409-0.11782 0.099219-0.11906 0.099219-0.35719zm0.9773-0.9401h-0.36835v-0.17735h0.58663v1.5726h0.37083v0.17983h-0.99839v-0.17983h0.40928zm1.7723 1.5751-5e-3 -0.16743q-0.1017 0.10046-0.20712 0.14511-0.10418 0.044648-0.21952 0.044648-0.10666 0-0.18232-0.027285-0.07565-0.027285-0.12526-0.074414-0.04837-0.048369-0.07193-0.11286-0.02232-0.064492-0.02232-0.14015 0-0.18728 0.13891-0.2927 0.14015-0.10666 0.413-0.10666h0.25797v-0.10914q0-0.11038-0.07069-0.17611-0.07069-0.066973-0.2158-0.066973-0.10542 0-0.20836 0.023564-0.1017 0.023564-0.21084 0.066973v-0.19472q0.04093-0.014883 0.09054-0.028525 0.05085-0.014883 0.10666-0.026045 0.05581-0.011162 0.11658-0.017363 0.06077-0.007441 0.12278-0.007441 0.11286 0 0.2034 0.024805 0.09054 0.024805 0.15255 0.075654 0.06325 0.05085 0.09674 0.12774 0.03349 0.076895 0.03349 0.18107v0.85824zm-0.02356-0.56679h-0.27409q-0.08061 0-0.13891 0.016123-0.05829 0.016123-0.0955 0.045889-0.03721 0.029766-0.05581 0.071934-0.01736 0.040928-0.01736 0.093018 0 0.035967 0.01116 0.069453 0.01116 0.032246 0.03597 0.058291 0.0248 0.024805 0.06449 0.039688t0.09674 0.014883q0.07441 0 0.16991-0.044648 0.09674-0.045889 0.2034-0.14387zm0.62012-0.67841h0.19224l0.0087 0.20092q0.05457-0.064492 0.10542-0.10666 0.05085-0.043408 0.09922-0.069453 0.04961-0.026045 0.10046-0.035967 0.05085-0.011162 0.10542-0.011162 0.19224 0 0.29022 0.1141 0.09922 0.11286 0.09922 0.34106v0.81235h-0.21582v-0.79499q0-0.14635-0.05457-0.2158-0.05457-0.070693-0.16247-0.070693-0.03969 0-0.07813 0.012402-0.03721 0.011162-0.07813 0.040928-0.04093 0.028525-0.0893 0.078135-0.04713 0.049609-0.10666 0.12402v0.826h-0.2158zm2.4482 0.55687q0 0.045889-0.0012 0.076894-0.0012 0.031006-0.0037 0.058291h-0.87436q0 0.191 0.10666 0.29394 0.10666 0.1017 0.30758 0.1017 0.05457 0 0.10914-0.003721 0.05457-0.004961 0.10542-0.012402 0.05085-0.007441 0.09674-0.016123 0.04713-0.009922 0.08682-0.021084v0.17735q-0.08806 0.024805-0.19968 0.039688-0.11038 0.016123-0.22944 0.016123-0.15999 0-0.27533-0.043408t-0.18976-0.12526q-0.07317-0.083096-0.10914-0.20216-0.03473-0.1203-0.03473-0.27161 0-0.13146 0.03721-0.24805 0.03845-0.11782 0.11038-0.20588 0.07317-0.089297 0.17859-0.14139 0.10542-0.05209 0.23936-0.05209 0.13022 0 0.23068 0.040928t0.16867 0.11658q0.06945 0.074414 0.10418 0.18231 0.03597 0.10666 0.03597 0.23937zm-0.22448-0.031006q0.0037-0.083096-0.01612-0.15131-0.01984-0.069453-0.06201-0.11906-0.04093-0.049609-0.10294-0.076894-0.06201-0.028525-0.14387-0.028525-0.07069 0-0.12898 0.027285-0.05829 0.027285-0.10046 0.076894-0.04217 0.049609-0.06821 0.11906-0.02604 0.069453-0.03225 0.15255z" fill="#e61616" opacity=".75" stroke-width="0" aria-label="x0 plane"/>
  <path d="m36.125 0.8808h-0.2865l-0.3361-0.47501-0.33238 0.47501h-0.27905l0.48245-0.62508-0.46013-0.62012h0.27657l0.32742 0.47873 0.32122-0.47873h0.26665l-0.46757 0.62508zm1.3122 0h-1.0182v-0.20092h0.41672v-1.1832l-0.38819 0.21084-0.07937-0.18355 0.51594-0.27161h0.191v1.4275h0.36215zm2.8191-0.64492q0 0.16619-0.04713 0.29021-0.04589 0.12402-0.12774 0.20588-0.08186 0.081856-0.19348 0.12278-0.11162 0.040928-0.24185 0.040928-0.05953 0-0.11906-0.006201-0.05829-0.006201-0.11906-0.021084v0.5209h-0.2158v-1.7537h0.19224l0.01364 0.20836q0.09302-0.12774 0.19844-0.17859 0.10542-0.05209 0.2282-0.05209 0.10666 0 0.18728 0.044648 0.08062 0.044648 0.13519 0.1265 0.05457 0.080615 0.08185 0.19596 0.02728 0.1141 0.02728 0.25549zm-0.22076 0.009922q0-0.097978-0.01488-0.17983-0.01364-0.081855-0.04465-0.14015-0.03101-0.058291-0.07937-0.090537-0.04837-0.033486-0.11534-0.033486-0.04093 0-0.0831 0.013643-0.04217 0.012402-0.08806 0.043408-0.04465 0.029766-0.0955 0.080615-0.04961 0.049609-0.10666 0.12402v0.60399q0.05953 0.024805 0.12526 0.039688 0.06573 0.013643 0.12898 0.013643 0.17487 0 0.27409-0.11782 0.09922-0.11906 0.09922-0.35719zm0.9773-0.9401h-0.36835v-0.17735h0.58663v1.5726h0.37083v0.17983h-0.99839v-0.17983h0.40928zm1.7723 1.5751-5e-3 -0.16743q-0.1017 0.10046-0.20712 0.14511-0.10418 0.044648-0.21952 0.044648-0.10666 0-0.18232-0.027285-0.07565-0.027285-0.12526-0.074414-0.04837-0.048369-0.07193-0.11286-0.02232-0.064492-0.02232-0.14015 0-0.18728 0.13891-0.2927 0.14015-0.10666 0.413-0.10666h0.25797v-0.10914q0-0.11038-0.07069-0.17611-0.07069-0.066973-0.2158-0.066973-0.10542 0-0.20836 0.023564-0.1017 0.023564-0.21084 0.066973v-0.19472q0.04093-0.014883 0.09054-0.028525 0.05085-0.014883 0.10666-0.026045t0.11658-0.017363q0.06077-0.007441 0.12278-0.007441 0.11286 0 0.2034 0.024805 0.09054 0.024805 0.15255 0.075654 0.06325 0.05085 0.09674 0.12774 0.03349 0.076895 0.03349 0.18107v0.85824zm-0.02356-0.56679h-0.27409q-0.08061 0-0.13891 0.016123-0.05829 0.016123-0.0955 0.045889-0.03721 0.029766-0.05581 0.071934-0.01736 0.040928-0.01736 0.093018 0 0.035967 0.01116 0.069453 0.01116 0.032246 0.03597 0.058291 0.0248 0.024805 0.06449 0.039688t0.09674 0.014883q0.07441 0 0.16991-0.044648 0.09674-0.045889 0.2034-0.14387zm0.62012-0.67841h0.19224l0.0087 0.20092q0.05457-0.064492 0.10542-0.10666 0.05085-0.043408 0.09922-0.069453 0.04961-0.026045 0.10046-0.035967 0.05085-0.011162 0.10542-0.011162 0.19224 0 0.29021 0.1141 0.09922 0.11286 0.09922 0.34106v0.81235h-0.21582v-0.79499q0-0.14635-0.05457-0.2158-0.05457-0.070693-0.16247-0.070693-0.03969 0-0.07813 0.012402-0.03721 0.011162-0.07814 0.040928-0.04093 0.028525-0.0893 0.078135-0.04713 0.049609-0.10666 0.12402v0.826h-0.2158zm2.4482 0.55687q0 0.045889-0.0012 0.076894-0.0012 0.031006-0.0037 0.058291h-0.87436q0 0.191 0.10666 0.29394 0.10666 0.1017 0.30758 0.1017 0.05457 0 0.10914-0.003721 0.05457-0.004961 0.10542-0.012402 0.05085-0.007441 0.09674-0.016123 0.04713-0.009922 0.08682-0.021084v0.17735q-0.08806 0.024805-0.19968 0.039688-0.11038 0.016123-0.22944 0.016123-0.15999 0-0.27533-0.043408-0.11534-0.043408-0.18976-0.12526-0.07317-0.083096-0.10914-0.20216-0.03473-0.1203-0.03473-0.27161 0-0.13146 0.03721-0.24805 0.03845-0.11782 0.11038-0.20588 0.07317-0.089297 0.17859-0.14139 0.10542-0.05209 0.23936-0.05209 0.13022 0 0.23068 0.040928t0.16867 0.11658q0.06945 0.074414 0.10418 0.18231 0.03597 0.10666 0.03597 0.23937zm-0.22448-0.031006q0.0037-0.083096-0.01612-0.15131-0.01984-0.069453-0.06201-0.11906-0.04093-0.049609-0.10294-0.076894-0.06201-0.028525-0.14387-0.028525-0.07069 0-0.12898 0.027285-0.05829 0.027285-0.10046 0.076894-0.04217 0.049609-0.06821 0.11906-0.02605 0.069453-0.03225 0.15255z" fill="#e61616" opacity=".75" stroke-width="0" aria-label="x1 plane"/>
 </g>
 <rect x="36.126" y="36.126" width="15.873" height="15.873" fill="#26b7ff" stroke="#1864ff" stroke-width=".252" style="paint-order:stroke fill markers"/>
 <path d="m9.6411 15.245 75.63 43.673z" fill="#fff" stroke="#000" stroke-linecap="round" stroke-width=".25" style="paint-order:stroke fill markers"/>
 <g fill="#6f6" stroke="#000" stroke-linecap="round" stroke-width=".2">
  <circle cx="9.675" cy="15.235" r=".4" style="paint-order:stroke fill markers"/>
  <circle cx="36.062" cy="30.486" r=".4" style="paint-order:stroke fill markers"/>
  <circle cx="45.713" cy="36.08" r=".4" style="paint-order:stroke fill markers"/>
 </g>
 <path d="m37.802 29.986q-0.07317 0.0186-0.15131 0.02604-0.07814 0.0087-0.15875 0.0087-0.2344 0-0.34975-0.10542-0.11534-0.10666-0.11534-0.32618v-0.64988h-0.34851v-0.18107h0.34851v-0.34232l0.2158-0.05581v0.39812h0.55935v0.18107h-0.55935v0.63252q0 0.13394 0.07069 0.20092 0.07193 0.06573 0.21084 0.06573 0.05953 0 0.13022-0.0087 0.07069-0.0099 0.14759-0.02977zm1.2812 0.01736v-0.89421q0-0.05829-5e-3 -0.0955-0.0037-0.03721-0.01364-0.05829-0.0087-0.02232-0.02356-0.03101-0.01364-0.0087-0.03473-0.0087-0.02481 0-0.04589 0.01488t-0.04589 0.04837q-0.02356 0.03349-0.05333 0.0893-0.02853 0.05457-0.06821 0.13518v0.79998h-0.1972v-0.87064q0-0.06821-5e-3 -0.11038-0.0037-0.04217-0.01364-0.06573-0.0087-0.02356-0.02356-0.03225-0.01488-0.0087-0.03597-0.0087-0.02232 0-0.04217 0.0124-0.01984 0.0124-0.04465 0.04465-0.02356 0.03225-0.05333 0.08806-0.02976 0.05581-0.07069 0.14263v0.79997h-0.19844v-1.2452h0.16495l0.0099 0.23688q0.03225-0.07069 0.06201-0.1203 0.03101-0.04961 0.06325-0.07937 0.03225-0.03101 0.06821-0.04465 0.03721-0.01488 0.08186-0.01488 0.10046 0 0.15255 0.06573 0.05209 0.06573 0.05209 0.2034 0.02977-0.06449 0.05829-0.1141 0.02853-0.05085 0.06077-0.08434 0.03349-0.03473 0.07317-0.05209 0.03969-0.0186 0.09178-0.0186 0.2344 0 0.2344 0.36091v0.90661zm1.3084 0-5e-3 -0.16743q-0.1017 0.10046-0.20712 0.14511-0.10418 0.04465-0.21952 0.04465-0.10666 0-0.18231-0.02729-0.07565-0.02728-0.12526-0.07441-0.04837-0.04837-0.07193-0.11286-0.02232-0.06449-0.02232-0.14015 0-0.18728 0.13891-0.2927 0.14015-0.10666 0.413-0.10666h0.25797v-0.10914q0-0.11038-0.07069-0.17611-0.07069-0.06697-0.2158-0.06697-0.10542 0-0.20836 0.02356-0.1017 0.02356-0.21084 0.06697v-0.19472q0.04093-0.01488 0.09054-0.02853 0.05085-0.01488 0.10666-0.02604t0.11658-0.01736q0.06077-0.0074 0.12278-0.0074 0.11286 0 0.2034 0.0248 0.09054 0.02481 0.15255 0.07566 0.06325 0.05085 0.09674 0.12774 0.03349 0.07689 0.03349 0.18107v0.8582zm-0.02356-0.56679h-0.27409q-0.08062 0-0.13891 0.01612-0.05829 0.01612-0.0955 0.04589t-0.05581 0.07193q-0.01736 0.04093-0.01736 0.09302 0 0.03597 0.01116 0.06945 0.01116 0.03225 0.03597 0.05829 0.0248 0.02481 0.06449 0.03969t0.09674 0.01488q0.07441 0 0.16991-0.04465 0.09674-0.04589 0.2034-0.14387zm1.7425 0.56679h-0.28649l-0.3361-0.47501-0.33238 0.47501h-0.27905l0.48245-0.62508-0.46013-0.62012h0.27657l0.32742 0.47873 0.32122-0.47873h0.26665l-0.46757 0.62508z" stroke-width="0" style="paint-order:stroke fill markers" aria-label="tmax"/>
 <path d="m6.9038 13.454q0 0.14511-0.040928 0.26665-0.040928 0.1203-0.11782 0.20712-0.076895 0.08558-0.18728 0.13394-0.11038 0.04713-0.25053 0.04713-0.13395 0-0.24061-0.04093-0.10542-0.04217-0.17983-0.12278-0.073174-0.08061-0.11286-0.19968-0.038447-0.11906-0.038447-0.27409 0-0.14511 0.040928-0.26417 0.040928-0.1203 0.11782-0.20588 0.076894-0.08682 0.18728-0.13394 0.11038-0.04837 0.25053-0.04837 0.13395 0 0.23937 0.04217 0.10666 0.04093 0.17983 0.12154 0.074414 0.07937 0.11286 0.19844 0.039688 0.11906 0.039688 0.27285zm-0.22076 0.0099q0-0.11534-0.026045-0.20092-0.024805-0.08682-0.071934-0.14387-0.047129-0.05829-0.11534-0.08682-0.066973-0.02977-0.15007-0.02977-0.096738 0-0.16619 0.03845-0.068213 0.03721-0.11286 0.10046-0.043408 0.06325-0.064492 0.14759-0.019844 0.0831-0.019844 0.17487 0 0.11534 0.024805 0.20216 0.026045 0.08682 0.073174 0.14511 0.047129 0.05705 0.1141 0.08682 0.066973 0.02853 0.15131 0.02853 0.096738 0 0.16495-0.03721 0.069453-0.03845 0.11286-0.1017 0.044648-0.06325 0.064492-0.14635 0.021084-0.08434 0.021084-0.17735zm0.58415-0.6226h0.1972l0.0062 0.22944q0.11038-0.1327 0.21704-0.19224 0.1079-0.05953 0.21704-0.05953 0.19348 0 0.2927 0.12526 0.10046 0.12526 0.093018 0.37207h-0.21828q0.00372-0.16371-0.048369-0.23688-0.05085-0.07441-0.15007-0.07441-0.043408 0-0.088057 0.01612-0.043408 0.01488-0.090537 0.04961-0.045889 0.03349-0.097978 0.08682-0.05209 0.05333-0.11162 0.12898v0.79995h-0.21828zm1.7698 0.17859h-0.36835v-0.17857h0.58663v1.0654h0.37083v0.17983h-0.99839v-0.17983h0.40928zm0.075654-0.70073q0.035967 0 0.066973 0.01364 0.031006 0.0124 0.05333 0.03597 0.023564 0.02356 0.035967 0.05457 0.013643 0.02976 0.013643 0.06573 0 0.03473-0.013643 0.06573-0.012402 0.03101-0.035967 0.05457-0.022324 0.02356-0.05333 0.03721-0.031006 0.0124-0.066973 0.0124t-0.066973-0.0124q-0.031006-0.01364-0.05457-0.03721-0.022324-0.02356-0.035967-0.05457-0.012402-0.031-0.012402-0.06573 0-0.03597 0.012402-0.06573 0.013643-0.03101 0.035967-0.05457 0.023564-0.02356 0.05457-0.03597 0.031006-0.01364 0.066973-0.01364zm1.7934 0.69825q0.03473 0.04341 0.05333 0.1017 0.01984 0.05705 0.01984 0.12402 0 0.09674-0.03597 0.17735-0.03473 0.07938-0.09922 0.13643-0.06449 0.05705-0.15503 0.0893-0.0893 0.03101-0.1972 0.03101-0.07813 0-0.14635-0.01612-0.06821-0.01736-0.1079-0.04217-0.02356 0.03473-0.03969 0.06573-0.01612 0.03101-0.01612 0.06945 0 0.04713 0.04465 0.07813 0.04589 0.03101 0.1203 0.03349l0.32742 0.0124q0.09302 0.0025 0.17115 0.02356 0.07938 0.02108 0.13519 0.06077 0.05705 0.03969 0.08806 0.09798 0.03225 0.05829 0.03225 0.13519 0 0.0831-0.03597 0.15751-0.03597 0.07441-0.11162 0.13022-0.07441 0.05705-0.18976 0.09054-0.11534 0.03349-0.27409 0.03349-0.15131 0-0.25797-0.0248-0.10542-0.02356-0.17363-0.06697-0.068213-0.04217-0.099219-0.1017-0.031006-0.05829-0.031006-0.12898 0-0.09054 0.042168-0.15875t0.13022-0.13146q-0.03225-0.01488-0.05581-0.03721t-0.03845-0.04837q-0.014883-0.02728-0.022324-0.05705-0.00744-0.02977-0.00744-0.05829 0-0.08062 0.037207-0.14759 0.03845-0.06697 0.09054-0.1265-0.02356-0.02853-0.04217-0.05581-0.01736-0.02729-0.03101-0.05829-0.0124-0.03225-0.01984-0.06821-0.0062-0.03721-0.0062-0.08434 0-0.09674 0.03473-0.17611 0.03597-0.08061 0.09922-0.13767 0.06449-0.05705 0.15379-0.08806 0.09054-0.03225 0.19968-0.03225 0.04589 0 0.08806 0.0062t0.07441 0.01612h0.45145v0.17611zm-0.7491 1.2489q0 0.08806 0.09178 0.12774 0.09178 0.04093 0.25549 0.04093 0.10294 0 0.17239-0.0186 0.07069-0.0186 0.11286-0.04961 0.04341-0.02977 0.06201-0.06945 0.0186-0.03845 0.0186-0.07938 0-0.07565-0.06201-0.11162-0.06201-0.03597-0.18976-0.04217l-0.32494-0.01116q-0.04093 0.02728-0.06821 0.05333-0.02604 0.02604-0.04093 0.05209-0.01488 0.02729-0.02108 0.05333-0.0062 0.02728-0.0062 0.05457zm0.06573-1.0182q0 0.05953 0.01984 0.10914 0.01984 0.04961 0.05581 0.08434t0.08434 0.05457q0.04961 0.0186 0.10914 0.0186 0.06449 0 0.1141-0.02108 0.05085-0.02232 0.08434-0.05953 0.03473-0.03721 0.05209-0.08558 0.0186-0.04837 0.0186-0.10046 0-0.05953-0.01984-0.10914t-0.05581-0.08434-0.08558-0.05333q-0.04837-0.01984-0.1079-0.01984-0.06449 0-0.11534 0.02232-0.04961 0.02232-0.08434 0.05953-0.03349 0.03597-0.05209 0.08434-0.01736 0.04837-0.01736 0.10046zm1.6073-0.2282h-0.36835v-0.17859h0.58663v1.0654h0.37083v0.17983h-0.99839v-0.17983h0.40928zm0.07565-0.70073q0.03597 0 0.06697 0.01364 0.031 0.0124 0.05333 0.03597 0.02356 0.02356 0.03597 0.05457 0.01364 0.02976 0.01364 0.06573 0 0.03473-0.01364 0.06573-0.0124 0.03101-0.03597 0.05457-0.02233 0.02356-0.05333 0.03721-0.03101 0.0124-0.06697 0.0124-0.03597 0-0.06697-0.0124-0.03101-0.01364-0.05457-0.03721-0.02232-0.02356-0.03597-0.05457-0.0124-0.031-0.0124-0.06573 0-0.03597 0.0124-0.06573 0.01364-0.03101 0.03597-0.05457 0.02356-0.02356 0.05457-0.03597 0.03101-0.01364 0.06697-0.01364zm0.89669 0.52214h0.19224l0.0087 0.20092q0.05457-0.06449 0.10542-0.10666 0.05085-0.04341 0.09922-0.06945 0.04961-0.02604 0.10046-0.03597 0.05085-0.01116 0.10542-0.01116 0.19224 0 0.29022 0.1141 0.09922 0.11286 0.09922 0.34106v0.81235h-0.2158v-0.79499q0-0.14635-0.05457-0.2158-0.05457-0.07069-0.16247-0.07069-0.03969 0-0.07813 0.0124-0.03721 0.01116-0.07813 0.04093-0.04093 0.02853-0.0893 0.07813-0.04713 0.04961-0.10666 0.12402v0.826h-0.2158z" stroke-width="0" style="paint-order:stroke fill markers" aria-label="origin"/>
</svg>
