<?xml version="1.0" encoding="UTF-8"?>
<!-- Created with Inkscape (http://www.inkscape.org/) -->
<svg width="33mm" height="46mm" version="1.1" viewBox="0 0 33 46" xmlns="http://www.w3.org/2000/svg">
 <defs>
  <marker id="Triangle" overflow="visible" markerHeight="1" markerWidth="1" orient="auto-start-reverse" preserveAspectRatio="xMidYMid" viewBox="0 0 1 1">
   <path transform="scale(.5)" d="m5.77 0-8.65 5v-10z" fill="context-stroke" fill-rule="evenodd" stroke="context-stroke" stroke-width="1pt"/>
  </marker>
 </defs>
 <g transform="translate(-1.4997 -1.42)">
  <g transform="matrix(7.9375 0 0 7.9778 2.1247 2.1253)">
   <g fill="#8ac926" stroke-width=".044604">
    <rect x="2" y="3" width="1" height="1"/>
    <rect x="3" y="2.0314" width="1" height=".96858"/>
    <rect x="1" y="2" width="1" height="1"/>
    <rect x="1" y="1" width="1" height="1"/>
    <rect width="1" height="1"/>
   </g>
   <g fill="none" stroke-width=".043983">
    <rect x="2.0439" y="2.0437" width="1.9132" height="1.9135" stroke="#6a4c93"/>
    <rect x=".042579" y="2.0437" width="1.9574" height="1.9136" stroke="#1982c4"/>
    <rect x=".042827" y=".041683" width="1.9572" height="1.9583" stroke="#ffca3a"/>
    <rect width="4" height="4" stroke="#ff595e"/>
   </g>
   <g stroke-width="0">
    <path transform="matrix(.12598 0 0 .12535 -4.9585 3.1777)" d="m43.798-21.361q0 0.14883-0.02977 0.27186-0.02976 0.12204-0.09029 0.21034-0.06052 0.08731-0.15081 0.13593-0.0893 0.04763-0.21034 0.04763-0.10418 0-0.18951-0.0387-0.08533-0.03969-0.14585-0.12105-0.06052-0.08136-0.09327-0.20737-0.03274-0.12601-0.03274-0.29865 0-0.14883 0.02977-0.27186 0.03076-0.12303 0.09029-0.21034 0.06052-0.08831 0.15081-0.13593 0.09029-0.04862 0.21034-0.04862 0.10418 0 0.18951 0.03969 0.08533 0.0387 0.14585 0.12105 0.06052 0.08136 0.09327 0.20737 0.03274 0.12601 0.03274 0.29865zm-0.17462 6e-3q0-0.03373-3e-3 -0.06648-2e-3 -0.03373-5e-3 -0.06548l-0.54868 0.40779q0.01488 0.05159 0.0377 0.09525t0.05457 0.07541q0.03274 0.03076 0.07342 0.04862 0.04167 0.01687 0.09426 0.01687 0.06747 0 0.12204-0.03274 0.05556-0.03274 0.09426-0.09723 0.03869-0.06449 0.05953-0.15974 0.02084-0.09624 0.02084-0.22225zm-0.59333-0.01191q0 0.03076 0 0.06151 9.92e-4 0.03076 4e-3 0.05953l0.54868-0.4058q-0.01488-0.0506-0.0377-0.09227t-0.05457-0.07144q-0.03175-0.03076-0.07243-0.04763t-0.09128-0.01687q-0.06747 0-0.12303 0.03274-0.05457 0.03274-0.09327 0.09823-0.03869 0.06449-0.05953 0.16073-0.02084 0.09525-0.02084 0.22126z" aria-label="0"/>
    <path transform="matrix(.12598 0 0 .12535 -4.9585 3.1777)" d="m51.692-20.711h-0.81459v-0.16074h0.33338v-0.94655l-0.31056 0.16867-0.0635-0.14684 0.41275-0.21729h0.1528v1.142h0.28972z" aria-label="1"/>
    <path transform="scale(1.0025 .99747)" d="m0.55241 1.5864h-0.10735v-0.019451l0.042143-0.041894q0.010349-0.010224 0.016832-0.017705 0.006484-0.00748 0.010099-0.013591 0.003616-0.00623 0.004863-0.01172t0.001247-0.011845q0-0.00598-0.001621-0.011346-0.001621-0.00549-0.004987-0.0096t-0.008728-0.00648q-0.005361-0.00237-0.012842-0.00237-0.010349 0-0.018827 0.00461-0.008478 0.00461-0.015585 0.01197l-0.01197-0.014339q0.009227-0.00973 0.021196-0.015585 0.012094-0.00586 0.028054-0.00586 0.010848 0 0.0197 0.00324 0.008977 0.00324 0.015461 0.00935 0.006484 0.00611 0.009975 0.014962 0.003616 0.00885 0.003616 0.019949 0 0.00935-0.002494 0.017331-0.002494 0.00798-0.007606 0.015959-0.004987 0.00786-0.012718 0.016334-0.007606 0.00848-0.018079 0.018578l-0.02955 0.028802h0.079174z" aria-label="2"/>
    <path transform="scale(1.0025 .99747)" d="m1.5473 1.5358q0 0.010723-0.00436 0.020199-0.00436 0.00935-0.013092 0.016458-0.00873 0.00698-0.021944 0.011097-0.013216 0.00399-0.030797 0.00399-0.00973 0-0.017456-6.234e-4 -0.00773-6.234e-4 -0.014463-0.00162v-0.019451q0.00773 0.00137 0.016334 0.00212 0.0086 7.481e-4 0.01758 7.481e-4 0.012219 0 0.020822-0.00212 0.00873-0.00224 0.014214-0.00636 0.00549-0.00411 0.00798-0.00997t0.00249-0.013216q0-0.00673-0.00299-0.01172t-0.00848-0.00835q-0.00536-0.00337-0.012967-0.00499-0.00748-0.00175-0.016458-0.00175h-0.018578v-0.01783h0.018827q0.00736 0 0.013341-0.00187 0.00611-0.00199 0.010349-0.00561 0.00436-0.00362 0.00661-0.00885 0.00237-0.00536 0.00237-0.012094 0-0.013092-0.00798-0.019077-0.00798-0.00598-0.02344-0.00598-0.00823 0-0.016957 0.00162-0.00873 0.00162-0.018703 0.00486v-0.018952q0.00424-0.0015 0.00898-0.00262 0.00486-0.00125 0.0096-0.00199 0.00486-8.728e-4 0.0096-0.00125 0.00474-4.987e-4 0.0091-4.987e-4 0.012967 0 0.022817 0.00287 0.00985 0.00274 0.016458 0.00798 0.00661 0.00524 0.00997 0.012718 0.00337 0.00748 0.00337 0.016832 0 0.013965-0.00723 0.02344-0.00711 0.00948-0.019575 0.015087 0.00636 9.974e-4 0.012468 0.00399 0.00623 0.00299 0.011097 0.00773 0.00499 0.00461 0.00798 0.010972 0.00312 0.00636 0.00312 0.014089z" aria-label="3"/>
   </g>
  </g>
  <g transform="translate(-34.512 18.837)">
   <g transform="translate(.80801 7.3268)">
    <rect x="48.86" y="10.626" width="5.687" height="2.5" fill="#ff595e" stroke="#000" stroke-width=".2" style="paint-order:normal"/>
    <g transform="translate(.10754)" stroke-width="0">
     <path transform="matrix(.26458 0 0 .26458 -1.2419 3.7396)" d="m194.98 33.084h-3.0788v-0.6075h1.26v-3.5775l-1.1738 0.6375-0.24-0.555 1.56-0.82125h0.5775v4.3162h1.095z" fill="#6a4c93" style="white-space:pre" aria-label="1"/>
     <path transform="matrix(.26458 0 0 .26458 -1.2419 3.7396)" d="m199.21 33.084h-3.0788v-0.6075h1.26v-3.5775l-1.1738 0.6375-0.24-0.555 1.56-0.82125h0.5775v4.3162h1.095z" fill="#1982c4" style="white-space:pre" aria-label="1"/>
     <path transform="matrix(.26458 0 0 .26458 -1.2419 3.7396)" d="m203.58 30.636q0 0.5625-0.1125 1.0275-0.1125 0.46125-0.34125 0.795-0.22875 0.33-0.57 0.51375-0.3375 0.18-0.795 0.18-0.39375 0-0.71625-0.14625-0.32249-0.15-0.55124-0.4575t-0.3525-0.78375-0.12375-1.1288q0-0.5625 0.1125-1.0275 0.11625-0.465 0.34125-0.795 0.22875-0.33375 0.56999-0.51375 0.34125-0.18375 0.795-0.18375 0.39375 0 0.71625 0.15 0.3225 0.14625 0.55125 0.4575 0.22875 0.3075 0.3525 0.78375t0.12375 1.1288zm-0.66 0.0225q0-0.1275-0.0113-0.25125-7e-3 -0.1275-0.0187-0.2475l-2.0737 1.5412q0.0563 0.195 0.1425 0.36t0.20624 0.285q0.12375 0.11625 0.2775 0.18375 0.1575 0.06375 0.35625 0.06375 0.255 0 0.46125-0.12375 0.21-0.12375 0.35625-0.3675t0.225-0.60375q0.0788-0.36375 0.0788-0.84zm-2.2425-0.045q0 0.11625 0 0.2325 4e-3 0.11625 0.015 0.225l2.0737-1.5338q-0.0563-0.19125-0.1425-0.34875t-0.20625-0.27q-0.12-0.11625-0.27375-0.18t-0.345-0.06375q-0.255 0-0.465 0.12375-0.20625 0.12375-0.35249 0.37125-0.14625 0.24375-0.225 0.6075-0.0787 0.36-0.0787 0.83625z" fill="#ccc" style="white-space:pre" aria-label="0"/>
     <path transform="matrix(.26458 0 0 .26458 -1.2419 3.7396)" d="m207.65 33.084h-3.0788v-0.6075h1.26v-3.5775l-1.1738 0.6375-0.24-0.555 1.56-0.82125h0.5775v4.3162h1.095z" fill="#ffca3a" style="white-space:pre" aria-label="1"/>
    </g>
   </g>
   <g transform="translate(.80801 9.8268)">
    <rect x="48.86" y="10.626" width="5.687" height="2.5" fill="#ffca3a" stroke="#000" stroke-width=".2" style="paint-order:normal"/>
    <g transform="translate(.10754)" stroke-width="0">
     <path transform="matrix(.26458 0 0 .26458 -1.2419 3.7396)" d="m194.98 33.084h-3.0788v-0.6075h1.26v-3.5775l-1.1738 0.6375-0.24-0.555 1.56-0.82125h0.5775v4.3162h1.095z" fill="#8ac926" style="white-space:pre" aria-label="1"/>
     <path transform="matrix(.26458 0 0 .26458 -1.2419 3.7396)" d="m199.36 30.636q0 0.5625-0.1125 1.0275-0.1125 0.46125-0.34125 0.795-0.22875 0.33-0.57 0.51375-0.3375 0.18-0.795 0.18-0.39375 0-0.71625-0.14625-0.3225-0.15-0.55125-0.4575t-0.3525-0.78375-0.12375-1.1288q0-0.5625 0.1125-1.0275 0.11625-0.465 0.34125-0.795 0.22875-0.33375 0.57-0.51375 0.34125-0.18375 0.795-0.18375 0.39375 0 0.71625 0.15 0.3225 0.14625 0.55125 0.4575 0.22875 0.3075 0.3525 0.78375t0.12375 1.1288zm-0.66 0.0225q0-0.1275-0.0113-0.25125-7e-3 -0.1275-0.0187-0.2475l-2.0738 1.5412q0.0563 0.195 0.1425 0.36 0.0863 0.165 0.20625 0.285 0.12375 0.11625 0.2775 0.18375 0.1575 0.06375 0.35625 0.06375 0.255 0 0.46125-0.12375 0.21-0.12375 0.35625-0.3675t0.225-0.60375q0.0788-0.36375 0.0788-0.84zm-2.2425-0.045q0 0.11625 0 0.2325 4e-3 0.11625 0.015 0.225l2.0738-1.5338q-0.0563-0.19125-0.1425-0.34875-0.0863-0.1575-0.20625-0.27-0.12-0.11625-0.27375-0.18t-0.345-0.06375q-0.255 0-0.465 0.12375-0.20625 0.12375-0.3525 0.37125-0.14625 0.24375-0.225 0.6075-0.0787 0.36-0.0787 0.83625z" fill="#ccc" style="white-space:pre" aria-label="0"/>
     <path transform="matrix(.26458 0 0 .26458 -1.2419 3.7396)" d="m203.58 30.636q0 0.5625-0.1125 1.0275-0.1125 0.46125-0.34125 0.795-0.22875 0.33-0.57 0.51375-0.3375 0.18-0.795 0.18-0.39375 0-0.71625-0.14625-0.32249-0.15-0.55124-0.4575t-0.3525-0.78375-0.12375-1.1288q0-0.5625 0.1125-1.0275 0.11625-0.465 0.34125-0.795 0.22875-0.33375 0.56999-0.51375 0.34125-0.18375 0.795-0.18375 0.39375 0 0.71625 0.15 0.3225 0.14625 0.55125 0.4575 0.22875 0.3075 0.3525 0.78375t0.12375 1.1288zm-0.66 0.0225q0-0.1275-0.0113-0.25125-7e-3 -0.1275-0.0187-0.2475l-2.0737 1.5412q0.0563 0.195 0.1425 0.36t0.20624 0.285q0.12375 0.11625 0.2775 0.18375 0.1575 0.06375 0.35625 0.06375 0.255 0 0.46125-0.12375 0.21-0.12375 0.35625-0.3675t0.225-0.60375q0.0788-0.36375 0.0788-0.84zm-2.2425-0.045q0 0.11625 0 0.2325 4e-3 0.11625 0.015 0.225l2.0737-1.5338q-0.0563-0.19125-0.1425-0.34875t-0.20625-0.27q-0.12-0.11625-0.27375-0.18t-0.345-0.06375q-0.255 0-0.465 0.12375-0.20625 0.12375-0.35249 0.37125-0.14625 0.24375-0.225 0.6075-0.0787 0.36-0.0787 0.83625z" fill="#ccc" style="white-space:pre" aria-label="0"/>
     <path transform="matrix(.26458 0 0 .26458 -1.2419 3.7396)" d="m207.65 33.084h-3.0788v-0.6075h1.26v-3.5775l-1.1738 0.6375-0.24-0.555 1.56-0.82125h0.5775v4.3162h1.095z" fill="#8ac926" style="white-space:pre" aria-label="1"/>
    </g>
   </g>
   <g transform="translate(.80801 12.327)">
    <rect x="48.86" y="10.626" width="5.687" height="2.5" fill="#1982c4" stroke="#000" stroke-width=".2" style="paint-order:normal"/>
    <g transform="translate(.11052)" stroke-width="0">
     <path transform="matrix(.26458 0 0 .26458 -1.2419 3.7396)" d="m195.14 30.636q0 0.5625-0.1125 1.0275-0.1125 0.46125-0.34125 0.795-0.22875 0.33-0.57 0.51375-0.3375 0.18-0.795 0.18-0.39375 0-0.71625-0.14625-0.3225-0.15-0.55125-0.4575t-0.3525-0.78375-0.12375-1.1288q0-0.5625 0.1125-1.0275 0.11625-0.465 0.34125-0.795 0.22875-0.33375 0.57-0.51375 0.34125-0.18375 0.795-0.18375 0.39375 0 0.71625 0.15 0.3225 0.14625 0.55125 0.4575 0.22875 0.3075 0.3525 0.78375t0.12375 1.1288zm-0.66 0.0225q0-0.1275-0.0112-0.25125-7e-3 -0.1275-0.0187-0.2475l-2.0738 1.5412q0.0563 0.195 0.1425 0.36t0.20625 0.285q0.12375 0.11625 0.2775 0.18375 0.1575 0.06375 0.35625 0.06375 0.255 0 0.46125-0.12375 0.21-0.12375 0.35625-0.3675t0.225-0.60375q0.0787-0.36375 0.0787-0.84zm-2.2425-0.045q0 0.11625 0 0.2325 4e-3 0.11625 0.015 0.225l2.0738-1.5338q-0.0563-0.19125-0.1425-0.34875-0.0863-0.1575-0.20625-0.27-0.12-0.11625-0.27375-0.18t-0.345-0.06375q-0.255 0-0.465 0.12375-0.20625 0.12375-0.3525 0.37125-0.14625 0.24375-0.225 0.6075-0.0787 0.36-0.0787 0.83625z" fill="#ccc" style="white-space:pre" aria-label="0"/>
     <path transform="matrix(.26458 0 0 .26458 -1.2419 3.7396)" d="m199.36 30.636q0 0.5625-0.1125 1.0275-0.1125 0.46125-0.34125 0.795-0.22875 0.33-0.57 0.51375-0.3375 0.18-0.795 0.18-0.39375 0-0.71625-0.14625-0.3225-0.15-0.55125-0.4575t-0.3525-0.78375-0.12375-1.1288q0-0.5625 0.1125-1.0275 0.11625-0.465 0.34125-0.795 0.22875-0.33375 0.57-0.51375 0.34125-0.18375 0.795-0.18375 0.39375 0 0.71625 0.15 0.3225 0.14625 0.55125 0.4575 0.22875 0.3075 0.3525 0.78375t0.12375 1.1288zm-0.66 0.0225q0-0.1275-0.0113-0.25125-7e-3 -0.1275-0.0187-0.2475l-2.0738 1.5412q0.0563 0.195 0.1425 0.36 0.0863 0.165 0.20625 0.285 0.12375 0.11625 0.2775 0.18375 0.1575 0.06375 0.35625 0.06375 0.255 0 0.46125-0.12375 0.21-0.12375 0.35625-0.3675t0.225-0.60375q0.0788-0.36375 0.0788-0.84zm-2.2425-0.045q0 0.11625 0 0.2325 4e-3 0.11625 0.015 0.225l2.0738-1.5338q-0.0563-0.19125-0.1425-0.34875-0.0863-0.1575-0.20625-0.27-0.12-0.11625-0.27375-0.18t-0.345-0.06375q-0.255 0-0.465 0.12375-0.20625 0.12375-0.3525 0.37125-0.14625 0.24375-0.225 0.6075-0.0787 0.36-0.0787 0.83625z" fill="#ccc" style="white-space:pre" aria-label="0"/>
     <path transform="matrix(.26458 0 0 .26458 -1.2419 3.7396)" d="m203.43 33.084h-3.0787v-0.6075h1.26v-3.5775l-1.1737 0.6375-0.24-0.555 1.56-0.82125h0.5775v4.3162h1.095z" fill="#8ac926" style="white-space:pre" aria-label="1"/>
     <path transform="matrix(.26458 0 0 .26458 -1.2419 3.7396)" d="m207.81 30.636q0 0.5625-0.1125 1.0275-0.1125 0.46125-0.34125 0.795-0.22875 0.33-0.57 0.51375-0.3375 0.18-0.795 0.18-0.39375 0-0.71625-0.14625-0.3225-0.15-0.55125-0.4575t-0.3525-0.78375-0.12375-1.1288q0-0.5625 0.1125-1.0275 0.11625-0.465 0.34125-0.795 0.22875-0.33375 0.57-0.51375 0.34125-0.18375 0.795-0.18375 0.39375 0 0.71625 0.15 0.3225 0.14625 0.55125 0.4575 0.22875 0.3075 0.3525 0.78375t0.12375 1.1288zm-0.66 0.0225q0-0.1275-0.0112-0.25125-8e-3 -0.1275-0.0188-0.2475l-2.0738 1.5412q0.0563 0.195 0.1425 0.36 0.0863 0.165 0.20625 0.285 0.12375 0.11625 0.2775 0.18375 0.1575 0.06375 0.35625 0.06375 0.255 0 0.46125-0.12375 0.21-0.12375 0.35625-0.3675t0.225-0.60375q0.0787-0.36375 0.0787-0.84zm-2.2425-0.045q0 0.11625 0 0.2325 4e-3 0.11625 0.015 0.225l2.0738-1.5338q-0.0563-0.19125-0.1425-0.34875-0.0863-0.1575-0.20625-0.27-0.12-0.11625-0.27375-0.18t-0.345-0.06375q-0.255 0-0.465 0.12375-0.20625 0.12375-0.3525 0.37125-0.14625 0.24375-0.225 0.6075-0.0788 0.36-0.0788 0.83625z" fill="#ccc" style="white-space:pre" aria-label="0"/>
    </g>
   </g>
   <g transform="translate(.80801 14.827)">
    <rect x="48.86" y="10.626" width="5.687" height="2.5" fill="#6a4c93" stroke="#000" stroke-width=".2" style="paint-order:normal"/>
    <g transform="translate(.11052)" stroke-width="0">
     <path transform="matrix(.26458 0 0 .26458 -1.2419 3.7396)" d="m195.14 30.636q0 0.5625-0.1125 1.0275-0.1125 0.46125-0.34125 0.795-0.22875 0.33-0.57 0.51375-0.3375 0.18-0.795 0.18-0.39375 0-0.71625-0.14625-0.3225-0.15-0.55125-0.4575t-0.3525-0.78375-0.12375-1.1288q0-0.5625 0.1125-1.0275 0.11625-0.465 0.34125-0.795 0.22875-0.33375 0.57-0.51375 0.34125-0.18375 0.795-0.18375 0.39375 0 0.71625 0.15 0.3225 0.14625 0.55125 0.4575 0.22875 0.3075 0.3525 0.78375t0.12375 1.1288zm-0.66 0.0225q0-0.1275-0.0112-0.25125-7e-3 -0.1275-0.0187-0.2475l-2.0738 1.5412q0.0563 0.195 0.1425 0.36t0.20625 0.285q0.12375 0.11625 0.2775 0.18375 0.1575 0.06375 0.35625 0.06375 0.255 0 0.46125-0.12375 0.21-0.12375 0.35625-0.3675t0.225-0.60375q0.0787-0.36375 0.0787-0.84zm-2.2425-0.045q0 0.11625 0 0.2325 4e-3 0.11625 0.015 0.225l2.0738-1.5338q-0.0563-0.19125-0.1425-0.34875-0.0863-0.1575-0.20625-0.27-0.12-0.11625-0.27375-0.18t-0.345-0.06375q-0.255 0-0.465 0.12375-0.20625 0.12375-0.3525 0.37125-0.14625 0.24375-0.225 0.6075-0.0787 0.36-0.0787 0.83625z" fill="#ccc" style="white-space:pre" aria-label="0"/>
     <path transform="matrix(.26458 0 0 .26458 -1.2419 3.7396)" d="m199.21 33.084h-3.0788v-0.6075h1.26v-3.5775l-1.1738 0.6375-0.24-0.555 1.56-0.82125h0.5775v4.3162h1.095z" fill="#8ac926" style="white-space:pre" aria-label="1"/>
     <path transform="matrix(.26458 0 0 .26458 -1.2419 3.7396)" d="m203.43 33.084h-3.0787v-0.6075h1.26v-3.5775l-1.1737 0.6375-0.24-0.555 1.56-0.82125h0.5775v4.3162h1.095z" fill="#8ac926" style="white-space:pre" aria-label="1"/>
     <path transform="matrix(.26458 0 0 .26458 -1.2419 3.7396)" d="m207.81 30.636q0 0.5625-0.1125 1.0275-0.1125 0.46125-0.34125 0.795-0.22875 0.33-0.57 0.51375-0.3375 0.18-0.795 0.18-0.39375 0-0.71625-0.14625-0.3225-0.15-0.55125-0.4575t-0.3525-0.78375-0.12375-1.1288q0-0.5625 0.1125-1.0275 0.11625-0.465 0.34125-0.795 0.22875-0.33375 0.57-0.51375 0.34125-0.18375 0.795-0.18375 0.39375 0 0.71625 0.15 0.3225 0.14625 0.55125 0.4575 0.22875 0.3075 0.3525 0.78375t0.12375 1.1288zm-0.66 0.0225q0-0.1275-0.0112-0.25125-8e-3 -0.1275-0.0188-0.2475l-2.0738 1.5412q0.0563 0.195 0.1425 0.36 0.0863 0.165 0.20625 0.285 0.12375 0.11625 0.2775 0.18375 0.1575 0.06375 0.35625 0.06375 0.255 0 0.46125-0.12375 0.21-0.12375 0.35625-0.3675t0.225-0.60375q0.0787-0.36375 0.0787-0.84zm-2.2425-0.045q0 0.11625 0 0.2325 4e-3 0.11625 0.015 0.225l2.0738-1.5338q-0.0563-0.19125-0.1425-0.34875-0.0863-0.1575-0.20625-0.27-0.12-0.11625-0.27375-0.18t-0.345-0.06375q-0.255 0-0.465 0.12375-0.20625 0.12375-0.3525 0.37125-0.14625 0.24375-0.225 0.6075-0.0788 0.36-0.0788 0.83625z" fill="#ccc" style="white-space:pre" aria-label="0"/>
    </g>
   </g>
   <g transform="translate(.063688 -.1998)" stroke-width="0">
    <path d="m50.42 17.053q-0.07789 0.03225-0.16322 0.03225-0.13742 0-0.21134-0.08186-0.07342-0.08235-0.07342-0.24309 0-0.07789 0.02034-0.14089 0.02034-0.063 0.05804-0.10666 0.0377-0.04415 0.09128-0.06796t0.12005-0.02381q0.04515 0 0.08384 0.0079 0.0387 0.0074 0.07441 0.02332v0.08682q-0.03522-0.01935-0.07293-0.02927-0.0377-0.01042-0.08235-0.01042-0.04564 0-0.08285 0.01736-0.03671 0.01687-0.06251 0.04961-0.0258 0.03225-0.03969 0.07937-0.01389 0.04663-0.01389 0.10666 0 0.12601 0.0511 0.19 0.0511 0.064 0.14982 0.064 0.04167 0 0.07987-0.0094 0.0382-0.0099 0.07342-0.02729zm0.54471 0.02431h-0.08632v-0.318q0-0.05755-0.02183-0.08582-0.02133-0.02877-0.06152-0.02877-0.01736 0-0.03274 5e-3 -0.01488 0.0045-0.03125 0.01637-0.01637 0.01141-0.03572 0.03125t-0.04465 0.04961v0.3304h-0.08632v-0.70098h0.08632v0.2029l-3e-3 0.07838q0.02034-0.02431 0.03969-0.04068 0.01984-0.01687 0.03919-0.02729 0.01984-0.01042 0.04018-0.01488 0.02034-0.0045 0.04217-0.0045 0.07441 0 0.11509 0.04564 0.04068 0.04514 0.04068 0.13643zm0.32792-0.42664h-0.14734v-0.07144h0.23465v0.42614h0.14833v0.07193h-0.39936v-0.07193h0.16371zm0.03026-0.28029q0.01439 0 0.02679 0.0055 0.0124 5e-3 0.02133 0.01439 0.0094 0.0094 0.01439 0.02183 0.0055 0.01191 0.0055 0.02629 0 0.01389-0.0055 0.02629-5e-3 0.0124-0.01439 0.02183-0.0089 0.0094-0.02133 0.01488-0.0124 5e-3 -0.02679 5e-3t-0.02679-5e-3q-0.0124-0.0055-0.02183-0.01488-0.0089-0.0094-0.01439-0.02183-5e-3 -0.0124-5e-3 -0.02629 0-0.01439 5e-3 -0.02629 0.0055-0.0124 0.01439-0.02183 0.0094-0.0094 0.02183-0.01439 0.0124-0.0055 0.02679-0.0055zm0.52834 0.07689h-0.14734v-0.07094h0.23465v0.62905h0.14833v0.07193h-0.39936v-0.07193h0.16371zm0.36364 0.39142q0-0.0635 0.01736-0.11261 0.01736-0.04961 0.04911-0.08334 0.03225-0.03423 0.0769-0.05159 0.04514-0.01786 0.10021-0.01786 0.02381 0 0.04663 3e-3 0.02332 3e-3 0.04564 0.0094v-0.20935h0.08682v0.70098h-0.07739l-3e-3 -0.09426q-0.03622 0.05259-0.07838 0.07789-0.04217 0.0253-0.09128 0.0253-0.04266 0-0.07541-0.01786-0.03225-0.01786-0.05407-0.05011-0.02133-0.03274-0.03225-0.07838-0.01091-0.04564-0.01091-0.1012zm0.0883-0.0055q0 0.09029 0.02629 0.13494 0.02679 0.04415 0.07541 0.04415 0.03274 0 0.06896-0.02927 0.03671-0.02927 0.0769-0.08682v-0.23118q-0.02133-0.0099-0.04713-0.01488-0.0258-0.0055-0.0511-0.0055-0.07044 0-0.11013 0.04564-0.03919 0.04564-0.03919 0.14288zm0.95052 0.24408h-0.08632l-0.0129-0.40432-0.0055-0.15528-0.03026 0.09029-0.09575 0.25797h-0.06102l-0.09128-0.24805-0.03026-0.10021-2e-3 0.16222-0.01141 0.39737h-0.08334l0.03175-0.64839h0.10468l0.08731 0.24408 0.02828 0.08235 0.02728-0.08235 0.09178-0.24408h0.10765zm0.42366 0-2e-3 -0.06697q-0.04068 0.04018-0.08285 0.05804-0.04167 0.01786-0.08781 0.01786-0.04266 0-0.07293-0.01091-0.03026-0.01091-0.05011-0.02977-0.01935-0.01935-0.02877-0.04514-0.0089-0.0258-0.0089-0.05606 0-0.07491 0.05556-0.11708 0.05606-0.04266 0.1652-0.04266h0.10319v-0.04366q0-0.04415-0.02828-0.07044-0.02828-0.02679-0.08632-0.02679-0.04217 0-0.08334 0.0094-0.04068 0.0094-0.08433 0.02679v-0.07789q0.01637-6e-3 0.03621-0.01141 0.02034-6e-3 0.04266-0.01042 0.02233-0.0045 0.04663-0.0069 0.02431-3e-3 0.04911-3e-3 0.04514 0 0.08136 0.0099 0.03621 0.0099 0.06102 0.03026 0.0253 0.02034 0.0387 0.0511 0.01339 0.03076 0.01339 0.07243v0.3433zm-0.0094-0.22671h-0.10964q-0.03225 0-0.05556 0.0064-0.02332 0.0064-0.0382 0.01835-0.01488 0.01191-0.02232 0.02877-0.0069 0.01637-0.0069 0.03721 0 0.01439 0.0045 0.02778 0.0045 0.0129 0.01439 0.02332 0.0099 0.0099 0.0258 0.01587 0.01588 6e-3 0.0387 6e-3 0.02976 0 0.06796-0.01786 0.0387-0.01835 0.08136-0.05755zm0.64244 0.09079q0 0.02629-0.0089 0.04713t-0.02431 0.03721q-0.01538 0.01588-0.03572 0.02728-0.02034 0.01141-0.04366 0.01885-0.02282 0.0074-0.04713 0.01092-0.02431 0.0035-0.04762 0.0035-0.0506 0-0.09327-0.0045-0.04217-0.0045-0.08285-0.01439v-0.07938q0.04366 0.0124 0.08682 0.01885 0.04316 0.0064 0.08582 0.0064 0.06201 0 0.09178-0.01687 0.02976-0.01687 0.02976-0.04812 0-0.01339-5e-3 -0.02381-0.0045-0.01091-0.01687-0.02034-0.0124-0.0099-0.03869-0.02034-0.0258-0.01042-0.07094-0.02381-0.03374-0.0099-0.06251-0.02232-0.02828-0.0129-0.04911-0.03026-0.02084-0.01736-0.03274-0.04068-0.01191-0.02332-0.01191-0.05507 0-0.02084 0.0094-0.04564 0.0099-0.02481 0.03324-0.04614 0.02332-0.02133 0.063-0.03522 0.03969-0.01439 0.09922-0.01439 0.02927 0 0.06499 0.0035 0.03572 3e-3 0.07441 0.01091v0.0769q-0.04068-0.0099-0.07739-0.01439-0.03621-5e-3 -0.063-5e-3 -0.03225 0-0.05457 5e-3 -0.02183 5e-3 -0.03572 0.01389-0.0134 0.0084-0.01935 0.02034-6e-3 0.01141-6e-3 0.0248t5e-3 0.02431q0.0055 0.01091 0.01935 0.02133 0.01439 0.0099 0.03969 0.02034 0.0253 0.0099 0.06598 0.02183 0.04415 0.0129 0.07441 0.02728 0.03026 0.01389 0.04911 0.03125t0.02679 0.03919q0.0084 0.02183 0.0084 0.04961zm0.61218 0.13593h-0.11857l-0.23217-0.2669v0.2669h-0.08632v-0.70098h0.08632v0.43061l0.22374-0.22771h0.1141l-0.23366 0.22969z" aria-label="ChildMask"/>
    <g fill="#999">
     <path d="m50.959 17.676q0 0.04266-0.01736 0.08037-0.01736 0.03721-0.05209 0.06548-0.03473 0.02778-0.08731 0.04415-0.05259 0.01588-0.12254 0.01588-0.0387 0-0.06945-0.0025-0.03076-0.0025-0.05755-0.0064v-0.07739q0.03076 0.0055 0.06499 0.0084 0.03423 3e-3 0.06995 3e-3 0.04862 0 0.08285-0.0084 0.03473-0.0089 0.05655-0.0253 0.02183-0.01637 0.03175-0.03969 0.0099-0.02332 0.0099-0.05259 0-0.02679-0.01191-0.04663t-0.03374-0.03324q-0.02133-0.01339-0.05159-0.01984-0.02977-0.0069-0.06549-0.0069h-0.07392v-0.07094h0.07491q0.02927 0 0.05308-0.0074 0.02431-0.0079 0.04117-0.02233 0.01736-0.01439 0.02629-0.03522 0.0094-0.02133 0.0094-0.04812 0-0.05209-0.03175-0.0759t-0.09327-0.02381q-0.03274 0-0.06747 0.0064t-0.07441 0.01935v-0.07541q0.01687-6e-3 0.03572-0.01042 0.01935-5e-3 0.0382-0.0079 0.01935-0.0035 0.0382-5e-3 0.01885-2e-3 0.03621-2e-3 0.05159 0 0.09079 0.01141 0.03919 0.01091 0.06548 0.03175t0.03969 0.0506q0.01339 0.02977 0.01339 0.06697 0 0.05556-0.02877 0.09327-0.02828 0.0377-0.07789 0.06003 0.0253 4e-3 0.04961 0.01588 0.02481 0.01191 0.04415 0.03076 0.01984 0.01835 0.03175 0.04366 0.0124 0.0253 0.0124 0.05606z" aria-label="3"/>
     <path d="m52.086 17.873h-0.42714v-0.07739l0.16768-0.16669q0.04118-0.04068 0.06697-0.07045 0.0258-0.02977 0.04018-0.05407 0.01439-0.0248 0.01935-0.04663 5e-3 -0.02183 5e-3 -0.04713 0-0.02381-0.0064-0.04515-0.0064-0.02183-0.01984-0.0382-0.01339-0.01637-0.03473-0.0258-0.02133-0.0094-0.0511-0.0094-0.04118 0-0.07491 0.01836-0.03373 0.01835-0.06201 0.04763l-0.04762-0.05705q0.03671-0.0387 0.08434-0.06201 0.04812-0.02332 0.11162-0.02332 0.04316 0 0.07838 0.0129 0.03572 0.0129 0.06152 0.03721t0.03969 0.05953q0.01439 0.03522 0.01439 0.07938 0 0.03721-0.0099 0.06896t-0.03026 0.0635q-0.01984 0.03125-0.0506 0.06499-0.03026 0.03373-0.07193 0.07392l-0.11757 0.1146h0.31502z" aria-label="2"/>
     <path d="m53.201 17.873h-0.40729v-0.08037h0.16669v-0.47327l-0.15528 0.08434-0.03175-0.07342 0.20638-0.10864h0.0764v0.571h0.14486z" aria-label="1"/>
     <path d="m54.343 17.549q0 0.07441-0.01488 0.13593-0.01488 0.06102-0.04515 0.10517-0.03026 0.04366-0.07541 0.06796-0.04465 0.02381-0.10517 0.02381-0.05209 0-0.09475-0.01935-0.04266-0.01984-0.07292-0.06052t-0.04663-0.10368q-0.01637-0.063-0.01637-0.14932 0-0.07441 0.01488-0.13593 0.01538-0.06152 0.04514-0.10517 0.03026-0.04415 0.07541-0.06797 0.04514-0.02431 0.10517-0.02431 0.05209 0 0.09475 0.01984 0.04266 0.01935 0.07293 0.06052 0.03026 0.04068 0.04663 0.10368 0.01637 0.063 0.01637 0.14932zm-0.08731 3e-3q0-0.01687-0.0015-0.03324-9.92e-4 -0.01687-0.0025-0.03274l-0.27434 0.20389q0.0074 0.0258 0.01885 0.04763 0.01141 0.02183 0.02728 0.0377 0.01637 0.01538 0.03671 0.02431 0.02084 0.0084 0.04713 0.0084 0.03374 0 0.06102-0.01637 0.02778-0.01637 0.04713-0.04862t0.02976-0.07987q0.01042-0.04812 0.01042-0.11112zm-0.29666-6e-3q0 0.01538 0 0.03076 4.96e-4 0.01538 2e-3 0.02977l0.27434-0.2029q-0.0074-0.0253-0.01885-0.04614-0.01141-0.02084-0.02729-0.03572-0.01587-0.01538-0.03621-0.02381-0.02034-0.0084-0.04564-0.0084-0.03373 0-0.06151 0.01637-0.02729 0.01637-0.04663 0.04911-0.01935 0.03225-0.02977 0.08037-0.01042 0.04763-0.01042 0.11063z" aria-label="0"/>
    </g>
   </g>
   <path d="m55.355 19.203c3.4922 0.0081 3.868-0.18563 3.8716 0.89242l0.0083 0.86816c-0.01749 0.8526-0.18042 0.65709-1.9532 0.65952" fill="none" marker-end="url(#Triangle)" stroke="#000" stroke-width=".39"/>
   <g stroke-width="0">
    <path d="m59.923 18.973q-0.07789 0.03225-0.16322 0.03225-0.13742 0-0.21134-0.08186-0.07342-0.08235-0.07342-0.24309 0-0.07789 0.02034-0.14089t0.05804-0.10666q0.0377-0.04415 0.09128-0.06797 0.05358-0.02381 0.12006-0.02381 0.04514 0 0.08384 0.0079 0.03869 0.0074 0.07441 0.02332v0.08682q-0.03522-0.01935-0.07293-0.02927-0.0377-0.01042-0.08235-0.01042-0.04564 0-0.08285 0.01736-0.03671 0.01687-0.06251 0.04961-0.0258 0.03225-0.03969 0.07937-0.01389 0.04663-0.01389 0.10666 0 0.12601 0.0511 0.19 0.0511 0.064 0.14982 0.064 0.04167 0 0.07987-0.0094 0.0382-0.0099 0.07342-0.02728zm0.54471 0.02431h-0.08632v-0.318q0-0.05755-0.02183-0.08582-0.02133-0.02877-0.06152-0.02877-0.01736 0-0.03274 5e-3 -0.01488 0.0045-0.03125 0.01637-0.01637 0.01141-0.03572 0.03125t-0.04465 0.04961v0.33035h-0.08632v-0.70098h0.08632v0.2029l-3e-3 0.07838q0.02034-0.02431 0.03969-0.04068 0.01984-0.01687 0.03919-0.02728 0.01984-0.01042 0.04018-0.01488 0.02034-0.0045 0.04217-0.0045 0.07441 0 0.11509 0.04564 0.04068 0.04515 0.04068 0.13643zm0.32792-0.42664h-0.14734v-0.07144h0.23465v0.42614h0.14833v0.07193h-0.39936v-0.07193h0.16371zm0.03026-0.28029q0.01439 0 0.02679 0.0055 0.0124 5e-3 0.02133 0.01439 0.0094 0.0094 0.01439 0.02183 0.0055 0.01191 0.0055 0.02629 0 0.01389-0.0055 0.02629-5e-3 0.0124-0.01439 0.02183-0.0089 0.0094-0.02133 0.01488-0.0124 5e-3 -0.02679 5e-3t-0.02679-5e-3q-0.0124-0.0055-0.02183-0.01488-0.0089-0.0094-0.01439-0.02183-5e-3 -0.0124-5e-3 -0.02629 0-0.01439 5e-3 -0.02629 0.0055-0.0124 0.01439-0.02183 0.0094-0.0094 0.02183-0.01439 0.0124-0.0055 0.02679-0.0055zm0.52834 0.07689h-0.14734v-0.07094h0.23465v0.62905h0.14833v0.07193h-0.39936v-0.07193h0.16371zm0.36364 0.39142q0-0.0635 0.01736-0.11261 0.01736-0.04961 0.04911-0.08334 0.03225-0.03423 0.0769-0.05159 0.04514-0.01786 0.10021-0.01786 0.02381 0 0.04663 3e-3 0.02332 3e-3 0.04564 0.0094v-0.20935h0.08682v0.70098h-0.07739l-3e-3 -0.09426q-0.03621 0.05259-0.07838 0.07789t-0.09128 0.0253q-0.04266 0-0.07541-0.01786-0.03225-0.01786-0.05407-0.05011-0.02133-0.03274-0.03225-0.07838-0.01091-0.04564-0.01091-0.1012zm0.0883-0.0055q0 0.09029 0.02629 0.13494 0.02679 0.04415 0.07541 0.04415 0.03274 0 0.06896-0.02927 0.03671-0.02927 0.07689-0.08682v-0.23118q-0.02133-0.0099-0.04713-0.01488-0.0258-0.0055-0.0511-0.0055-0.07045 0-0.11013 0.04564-0.03919 0.04564-0.03919 0.14288zm0.92025-0.20588q0 0.03969-0.01488 0.07888-0.01488 0.0387-0.04614 0.06945-0.03125 0.03076-0.07987 0.05011-0.04862 0.01885-0.11609 0.01885h-0.08037v0.23271h-0.0883v-0.64839h0.18256q0.04812 0 0.09227 0.01091 0.04415 0.01042 0.07739 0.03423 0.03373 0.02381 0.05358 0.06152 0.01984 0.0377 0.01984 0.09178zm-0.09178 4e-3q0-0.06251-0.04118-0.09575-0.04068-0.03324-0.1141-0.03324h-0.09029v0.2669h0.08235q0.07838 0 0.12055-0.03423 0.04266-0.03423 0.04266-0.10368zm0.62706 0.43904q-0.02927 0.0074-0.06052 0.01042-0.03125 0.0035-0.0635 0.0035-0.09376 0-0.1399-0.04217-0.04614-0.04266-0.04614-0.13047v-0.25995h-0.1394v-0.07243h0.1394v-0.13694l0.08632-0.02232v0.15925h0.22374v0.07243h-0.22374v0.25301q0 0.05358 0.02828 0.08037 0.02877 0.02629 0.08434 0.02629 0.02381 0 0.05209-0.0035 0.02828-4e-3 0.05904-0.01191zm0.1776-0.49113h0.07888l0.0025 0.09178q0.04415-0.05308 0.08682-0.07689 0.04316-0.02381 0.08682-0.02381 0.07739 0 0.11708 0.05011 0.04018 0.05011 0.03721 0.14883h-0.08731q0.0015-0.06548-0.01935-0.09475-0.02034-0.02977-0.06003-0.02977-0.01736 0-0.03522 0.0064-0.01736 6e-3 -0.03621 0.01984-0.01835 0.01339-0.03919 0.03473-0.02084 0.02133-0.04465 0.05159v0.31998h-0.08731z" aria-label="ChildPtr"/>
    <path d="m41.158 22.728h-0.28774l-0.47253-1.0108-0.13643-0.32494v1.3357h-0.20588v-1.621h0.28401l0.4502 0.95746 0.16247 0.37083v-1.3283h0.20588zm1.4288-0.63252q0 0.14511-0.04093 0.26665-0.04093 0.1203-0.11782 0.20712-0.0769 0.08558-0.18728 0.13395-0.11038 0.04713-0.25053 0.04713-0.13394 0-0.24061-0.04093-0.10542-0.04217-0.17983-0.12278-0.07317-0.08061-0.11286-0.19968-0.03845-0.11906-0.03845-0.27409 0-0.14511 0.04093-0.26417 0.04093-0.1203 0.11782-0.20588 0.07689-0.08682 0.18728-0.13394 0.11038-0.04837 0.25053-0.04837 0.13394 0 0.23936 0.04217 0.10666 0.04093 0.17983 0.12154 0.07441 0.07938 0.11286 0.19844 0.03969 0.11906 0.03969 0.27285zm-0.22076 0.0099q0-0.11534-0.02605-0.20092-0.02481-0.08682-0.07193-0.14387-0.04713-0.05829-0.11534-0.08682-0.06697-0.02976-0.15007-0.02976-0.09674 0-0.16619 0.03845-0.06821 0.03721-0.11286 0.10046-0.04341 0.06325-0.06449 0.14759-0.01984 0.0831-0.01984 0.17487 0 0.11534 0.0248 0.20216 0.02605 0.08682 0.07317 0.14511 0.04713 0.05705 0.1141 0.08682 0.06697 0.02852 0.15131 0.02852 0.09674 0 0.16495-0.03721 0.06945-0.03845 0.11286-0.1017 0.04465-0.06325 0.06449-0.14635 0.02108-0.08434 0.02108-0.17735zm0.47005 0.02604q0-0.15875 0.04341-0.28153 0.04341-0.12402 0.12278-0.20836 0.08061-0.08558 0.19224-0.12898 0.11286-0.04465 0.25053-0.04465 0.05953 0 0.11658 0.0074 0.05829 0.0074 0.1141 0.02356v-0.5233h0.21704v1.7525h-0.19348l-0.0074-0.23564q-0.09054 0.13146-0.19596 0.19472-0.10542 0.06325-0.2282 0.06325-0.10666 0-0.18852-0.04465-0.08062-0.04465-0.13519-0.12526-0.05333-0.08186-0.08061-0.19596-0.02729-0.1141-0.02729-0.25301zm0.22076-0.01364q0 0.22572 0.06573 0.33734 0.06697 0.11038 0.18852 0.11038 0.08185 0 0.17239-0.07317 0.09178-0.07317 0.19224-0.21704v-0.57795q-0.05333-0.02481-0.11782-0.03721-0.06449-0.01364-0.12774-0.01364-0.17611 0-0.27533 0.1141-0.09798 0.1141-0.09798 0.35719zm2.2907-0.07813q0 0.04589-0.0012 0.0769t-0.0037 0.05829h-0.87436q0 0.191 0.10666 0.29394 0.10666 0.1017 0.30758 0.1017 0.05457 0 0.10914-0.0037 0.05457-5e-3 0.10542-0.0124t0.09674-0.01612q0.04713-0.0099 0.08682-0.02108v0.17735q-0.08806 0.02481-0.19968 0.03969-0.11038 0.01612-0.22944 0.01612-0.15999 0-0.27533-0.04341-0.11534-0.04341-0.18976-0.12526-0.07317-0.0831-0.10914-0.20216-0.03473-0.1203-0.03473-0.27161 0-0.13146 0.03721-0.24805 0.03845-0.11782 0.11038-0.20588 0.07317-0.0893 0.17859-0.14139 0.10542-0.05209 0.23936-0.05209 0.13022 0 0.23068 0.04093t0.16867 0.11658q0.06945 0.07441 0.10418 0.18231 0.03597 0.10666 0.03597 0.23936zm-0.22448-0.03101q0.0037-0.0831-0.01612-0.15131-0.01984-0.06945-0.06201-0.11906-0.04093-0.04961-0.10294-0.07689-0.06201-0.02853-0.14387-0.02853-0.07069 0-0.12898 0.02729-0.05829 0.02728-0.10046 0.07689-0.04217 0.04961-0.06821 0.11906-0.02604 0.06945-0.03225 0.15255z" aria-label="Node "/>
    <path d="m41.168 23.72q0 0.09922-0.03721 0.1972-0.03721 0.09674-0.11534 0.17363-0.07814 0.07689-0.19968 0.12526-0.12154 0.04713-0.29022 0.04713h-0.20092v0.58167h-0.22076v-1.621h0.45641q0.1203 0 0.23068 0.02728 0.11038 0.02604 0.19348 0.08558 0.08434 0.05953 0.13394 0.15379 0.04961 0.09426 0.04961 0.22944zm-0.22944 0.0099q0-0.15627-0.10294-0.23937-0.1017-0.0831-0.28525-0.0831h-0.22572v0.66725h0.20588q0.19596 0 0.30138-0.08558 0.10666-0.08558 0.10666-0.25921zm1.6483 0.48245q0 0.14511-0.04093 0.26665-0.04093 0.1203-0.11782 0.20712-0.0769 0.08558-0.18728 0.13395-0.11038 0.04713-0.25053 0.04713-0.13394 0-0.24061-0.04093-0.10542-0.04217-0.17983-0.12278-0.07317-0.08062-0.11286-0.19968-0.03845-0.11906-0.03845-0.27409 0-0.14511 0.04093-0.26417 0.04093-0.1203 0.11782-0.20588 0.07689-0.08682 0.18728-0.13394 0.11038-0.04837 0.25053-0.04837 0.13394 0 0.23936 0.04217 0.10666 0.04093 0.17983 0.12154 0.07441 0.07938 0.11286 0.19844 0.03969 0.11906 0.03969 0.27285zm-0.22076 0.0099q0-0.11534-0.02605-0.20092-0.02481-0.08682-0.07193-0.14387-0.04713-0.05829-0.11534-0.08682-0.06697-0.02977-0.15007-0.02977-0.09674 0-0.16619 0.03845-0.06821 0.03721-0.11286 0.10046-0.04341 0.06325-0.06449 0.14759-0.01984 0.0831-0.01984 0.17487 0 0.11534 0.0248 0.20216 0.02605 0.08682 0.07317 0.14511 0.04713 0.05705 0.1141 0.08682 0.06697 0.02852 0.15131 0.02852 0.09674 0 0.16495-0.03721 0.06945-0.03845 0.11286-0.1017 0.04465-0.06325 0.06449-0.14635 0.02108-0.08434 0.02108-0.17735zm1.6173-0.0099q0 0.14511-0.04093 0.26665-0.04093 0.1203-0.11782 0.20712-0.0769 0.08558-0.18728 0.13395-0.11038 0.04713-0.25053 0.04713-0.13394 0-0.24061-0.04093-0.10542-0.04217-0.17983-0.12278-0.07317-0.08062-0.11286-0.19968-0.03845-0.11906-0.03845-0.27409 0-0.14511 0.04093-0.26417 0.04093-0.1203 0.11782-0.20588 0.07689-0.08682 0.18728-0.13394 0.11038-0.04837 0.25053-0.04837 0.13394 0 0.23936 0.04217 0.10666 0.04093 0.17983 0.12154 0.07441 0.07938 0.11286 0.19844 0.03969 0.11906 0.03969 0.27285zm-0.22076 0.0099q0-0.11534-0.02605-0.20092-0.02481-0.08682-0.07193-0.14387-0.04713-0.05829-0.11534-0.08682-0.06697-0.02977-0.15007-0.02977-0.09674 0-0.16619 0.03845-0.06821 0.03721-0.11286 0.10046-0.04341 0.06325-0.06449 0.14759-0.01984 0.0831-0.01984 0.17487 0 0.11534 0.0248 0.20216 0.02605 0.08682 0.07317 0.14511 0.04713 0.05705 0.1141 0.08682 0.06697 0.02852 0.15131 0.02852 0.09674 0 0.16495-0.03721 0.06945-0.03845 0.11286-0.1017 0.04465-0.06325 0.06449-0.14635 0.02108-0.08434 0.02108-0.17735zm0.95746-0.9525h-0.36835v-0.17735h0.58663v1.5726h0.37083v0.17983h-0.99839v-0.17983h0.40928z" aria-label="Pool "/>
   </g>
  </g>
 </g>
</svg>
