<?xml version="1.0" encoding="UTF-8"?>
<!-- Created with Inkscape (http://www.inkscape.org/) -->
<svg width="100mm" height="70mm" version="1.1" viewBox="0 0 100 70" xmlns="http://www.w3.org/2000/svg">
 <g transform="translate(.61325 -29.305)">
  <rect transform="matrix(.89443 -.44721 .89443 .44721 0 0)" x="-76.853" y="83.988" width="12.649" height="12.649" fill="#e5e5e5" stroke="#000" stroke-width=".19764"/>
  <rect transform="matrix(.89443 -.44721 .89443 .44721 0 0)" x="-76.853" y="96.637" width="12.649" height="12.649" fill="#66e4ff" stroke="#000" stroke-width=".19764"/>
  <g fill="#e5e5e5" stroke="#000" stroke-width=".19764">
   <rect transform="matrix(.89443 -.44721 .89443 .44721 0 0)" x="-76.853" y="109.29" width="12.649" height="12.649"/>
   <rect transform="matrix(.89443 -.44721 .89443 .44721 0 0)" x="-76.853" y="121.93" width="12.649" height="12.649"/>
   <rect transform="matrix(.89443 -.44721 .89443 .44721 0 0)" x="-64.204" y="83.988" width="12.649" height="12.649"/>
   <rect transform="matrix(.89443 -.44721 .89443 .44721 0 0)" x="-64.204" y="96.637" width="12.649" height="12.649"/>
   <rect transform="matrix(.89443 -.44721 .89443 .44721 0 0)" x="-64.204" y="109.29" width="12.649" height="12.649"/>
   <rect transform="matrix(.89443 -.44721 .89443 .44721 0 0)" x="-64.204" y="121.93" width="12.649" height="12.649"/>
   <rect transform="matrix(.89443 -.44721 .89443 .44721 0 0)" x="-51.555" y="83.988" width="12.649" height="12.649"/>
   <rect transform="matrix(.89443 -.44721 .89443 .44721 0 0)" x="-51.555" y="96.637" width="12.649" height="12.649"/>
   <rect transform="matrix(.89443 -.44721 .89443 .44721 0 0)" x="-51.555" y="109.29" width="12.649" height="12.649"/>
   <rect transform="matrix(.89443 -.44721 .89443 .44721 0 0)" x="-51.555" y="121.93" width="12.649" height="12.649"/>
   <rect transform="matrix(.89443 -.44721 .89443 .44721 0 0)" x="-38.906" y="83.988" width="12.649" height="12.649"/>
   <rect transform="matrix(.89443 -.44721 .89443 .44721 0 0)" x="-38.906" y="96.637" width="12.649" height="12.649"/>
   <rect transform="matrix(.89443 -.44721 .89443 .44721 0 0)" x="-38.906" y="109.29" width="12.649" height="12.649"/>
   <rect transform="matrix(.89443 -.44721 .89443 .44721 0 0)" x="-38.906" y="121.93" width="12.649" height="12.649"/>
  </g>
  <g stroke="#fff" stroke-opacity=".49742" stroke-width=".15">
   <path d="m2.6715 73.315h-0.84853v-0.16743h0.34727v-0.98599l-0.3235 0.1757-0.066146-0.15296 0.42995-0.22634h0.15916v1.1896h0.30179zm0.70693-0.32556q0.03514 0 0.066146 0.01344 0.032039 0.01344 0.054777 0.03721 0.023771 0.02377 0.037207 0.05581 0.013436 0.03101 0.013436 0.06718 0 0.03514-0.013436 0.06615t-0.037207 0.05478q-0.022738 0.02274-0.054777 0.03617-0.031006 0.01344-0.066146 0.01344-0.036173 0-0.067179-0.01344t-0.054777-0.03617q-0.022738-0.02377-0.036174-0.05478t-0.013436-0.06615q0-0.03617 0.013436-0.06718 0.013436-0.03204 0.036174-0.05581 0.023771-0.02377 0.054777-0.03721t0.067179-0.01344zm1.663-0.34933q0 0.15503-0.031006 0.28319-0.031006 0.12712-0.094051 0.21911-0.063045 0.09095-0.1571 0.14159-0.093018 0.04961-0.21911 0.04961-0.10852 0-0.1974-0.04031-0.088884-0.04134-0.15193-0.12609-0.063045-0.08475-0.097152-0.21601t-0.034107-0.31109q0-0.15503 0.031006-0.28319 0.032039-0.12816 0.094051-0.21911 0.063045-0.09198 0.1571-0.14159 0.094051-0.05064 0.21911-0.05064 0.10852 0 0.1974 0.04134 0.088884 0.04031 0.15193 0.12609 0.063045 0.08475 0.097152 0.21601 0.034106 0.13126 0.034106 0.31109zm-0.1819 0.0062q0-0.03514-0.0031-0.06925-0.00207-0.03514-0.00517-0.06821l-0.57154 0.42478q0.015503 0.05374 0.039274 0.09922 0.023771 0.04547 0.056844 0.07855 0.034107 0.03204 0.076481 0.05064 0.043408 0.01757 0.098185 0.01757 0.07028 0 0.12712-0.03411 0.057878-0.03411 0.098185-0.10129 0.040308-0.06718 0.062012-0.1664 0.021704-0.10025 0.021704-0.23151zm-0.61805-0.0124q0 0.03204 0 0.06408 0.00103 0.03204 0.00413 0.06201l0.57154-0.42271q-0.015503-0.05271-0.039274-0.09612t-0.056844-0.07441q-0.033073-0.03204-0.075448-0.04961t-0.095085-0.01757q-0.07028 0-0.12816 0.03411-0.056844 0.03411-0.097152 0.10232-0.040308 0.06718-0.062012 0.16743-0.021704 0.09922-0.021704 0.23048zm1.9637 0.0062q0 0.15503-0.031006 0.28319-0.031006 0.12712-0.094051 0.21911-0.063045 0.09095-0.1571 0.14159-0.093018 0.04961-0.21911 0.04961-0.10852 0-0.1974-0.04031-0.088884-0.04134-0.15193-0.12609-0.063045-0.08475-0.097152-0.21601-0.034106-0.13126-0.034106-0.31109 0-0.15503 0.031006-0.28319 0.032039-0.12816 0.094051-0.21911 0.063045-0.09198 0.1571-0.14159 0.094051-0.05064 0.21911-0.05064 0.10852 0 0.1974 0.04134 0.088884 0.04031 0.15193 0.12609 0.063045 0.08475 0.097152 0.21601t0.034107 0.31109zm-0.1819 0.0062q0-0.03514-0.0031-0.06925-0.00207-0.03514-0.00517-0.06821l-0.57154 0.42478q0.015503 0.05374 0.039274 0.09922 0.023771 0.04547 0.056844 0.07855 0.034107 0.03204 0.076481 0.05064 0.043408 0.01757 0.098185 0.01757 0.07028 0 0.12712-0.03411 0.057878-0.03411 0.098185-0.10129 0.040308-0.06718 0.062012-0.1664 0.021704-0.10025 0.021704-0.23151zm-0.61805-0.0124q0 0.03204 0 0.06408 0.00103 0.03204 0.00413 0.06201l0.57154-0.42271q-0.015503-0.05271-0.039274-0.09612t-0.056844-0.07441q-0.033073-0.03204-0.075448-0.04961t-0.095085-0.01757q-0.07028 0-0.12816 0.03411-0.056844 0.03411-0.097152 0.10232-0.040308 0.06718-0.062012 0.16743-0.021704 0.09922-0.021704 0.23048z" style="paint-order:stroke fill markers" aria-label="1.00"/>
   <path d="m14.05 79.045h-0.84853v-0.16743h0.34727v-0.98599l-0.3235 0.1757-0.06615-0.15296 0.42995-0.22634h0.15916v1.1896h0.30179zm0.70694-0.32556q0.03514 0 0.06615 0.01344 0.03204 0.01344 0.05478 0.03721 0.02377 0.02377 0.03721 0.05581 0.01344 0.03101 0.01344 0.06718 0 0.03514-0.01344 0.06615t-0.03721 0.05478q-0.02274 0.02274-0.05478 0.03617-0.03101 0.01344-0.06615 0.01344-0.03617 0-0.06718-0.01344-0.031-0.01344-0.05478-0.03617-0.02274-0.02377-0.03617-0.05478-0.01344-0.03101-0.01344-0.06615 0-0.03617 0.01344-0.06718 0.01344-0.03204 0.03617-0.05581 0.02377-0.02377 0.05478-0.03721t0.06718-0.01344zm1.6319 0.32556h-0.88987v-0.16123l0.34933-0.34727q0.08578-0.08475 0.13953-0.14676 0.05374-0.06201 0.08372-0.11266 0.02997-0.05168 0.04031-0.09715 0.01033-0.04548 0.01033-0.09819 0-0.04961-0.01344-0.09405-0.01344-0.04548-0.04134-0.07958-0.02791-0.03411-0.07235-0.05374-0.04444-0.01964-0.10645-0.01964-0.08578 0-0.15606 0.03824-0.07028 0.03824-0.12919 0.09922l-0.09922-0.11886q0.07648-0.08062 0.1757-0.12919 0.10025-0.04858 0.23254-0.04858 0.08992 0 0.1633 0.02687 0.07441 0.02687 0.12816 0.07751 0.05374 0.05064 0.08268 0.12402 0.02997 0.07338 0.02997 0.16536 0 0.07751-0.02067 0.14366t-0.06305 0.13229q-0.04134 0.06511-0.10542 0.13539-0.06304 0.07028-0.14986 0.154l-0.24495 0.23874h0.65629zm1.1296-0.43202q0 0.10025-0.04341 0.18294-0.04341 0.08268-0.11989 0.14263-0.07545 0.05891-0.1788 0.09198-0.10335 0.03307-0.22324 0.03307-0.02997 0-0.06511-0.0021-0.03411-1e-3 -0.06821-0.0041-0.03411-0.0021-0.06718-0.0052-0.03204-0.0031-0.05788-0.0072v-0.16329q0.05581 0.01344 0.12712 0.01964 0.07235 0.0062 0.14573 0.0062 0.08268 0 0.14883-0.01964 0.06615-0.01964 0.11265-0.05581 0.04651-0.03721 0.07131-0.08888 0.02481-0.05271 0.02481-0.11782 0-0.12609-0.09095-0.18294-0.08992-0.05788-0.25942-0.05788h-0.25632v-0.6904h0.72761v0.1571h-0.55811v0.3793h0.11782q0.09715 0 0.18914 0.01757 0.09198 0.01757 0.1633 0.06201 0.07235 0.04341 0.11576 0.11782 0.04444 0.07338 0.04444 0.185z" style="paint-order:stroke fill markers" aria-label="1.25"/>
   <path d="m25.299 84.701h-0.84853v-0.16743h0.34727v-0.98599l-0.3235 0.1757-0.06614-0.15296 0.42995-0.22634h0.15916v1.1896h0.30179zm0.70693-0.32556q0.03514 0 0.06615 0.01344 0.03204 0.01344 0.05478 0.03721 0.02377 0.02377 0.03721 0.05581 0.01344 0.031 0.01344 0.06718 0 0.03514-0.01344 0.06615t-0.03721 0.05478q-0.02274 0.02274-0.05478 0.03617-0.03101 0.01344-0.06615 0.01344-0.03617 0-0.06718-0.01344t-0.05478-0.03617q-0.02274-0.02377-0.03617-0.05478-0.01344-0.03101-0.01344-0.06615 0-0.03617 0.01344-0.06718 0.01344-0.03204 0.03617-0.05581 0.02377-0.02377 0.05478-0.03721t0.06718-0.01344zm1.5978-0.10645q0 0.10025-0.04341 0.18294-0.04341 0.08268-0.11989 0.14263-0.07545 0.05891-0.1788 0.09199-0.10335 0.03307-0.22324 0.03307-0.02997 0-0.06511-0.0021-0.03411-1e-3 -0.06821-0.0041-0.03411-0.0021-0.06718-0.0052-0.03204-0.0031-0.05788-0.0072v-0.1633q0.05581 0.01344 0.12712 0.01964 0.07235 0.0062 0.14573 0.0062 0.08268 0 0.14883-0.01964 0.06615-0.01964 0.11266-0.05581 0.04651-0.03721 0.07131-0.08888 0.02481-0.05271 0.02481-0.11782 0-0.12609-0.09095-0.18294-0.08992-0.05788-0.25942-0.05788h-0.25632v-0.6904h0.7276v0.1571h-0.55811v0.3793h0.11782q0.09715 0 0.18914 0.01757 0.09198 0.01757 0.1633 0.06201 0.07235 0.04341 0.11576 0.11782 0.04444 0.07338 0.04444 0.185zm1.2289-0.24288q0 0.15503-0.03101 0.28319-0.03101 0.12712-0.09405 0.21911-0.06304 0.09095-0.1571 0.14159-0.09302 0.04961-0.21911 0.04961-0.10852 0-0.1974-0.04031-0.08888-0.04134-0.15193-0.12609-0.06304-0.08475-0.09715-0.21601t-0.03411-0.31109q0-0.15503 0.03101-0.28319 0.03204-0.12816 0.09405-0.21911 0.06305-0.09198 0.1571-0.14159 0.09405-0.05064 0.21911-0.05064 0.10852 0 0.1974 0.04134 0.08888 0.04031 0.15193 0.12609 0.06305 0.08475 0.09715 0.21601 0.03411 0.13126 0.03411 0.31109zm-0.1819 0.0062q0-0.03514-0.0031-0.06925-0.0021-0.03514-0.0052-0.06821l-0.57154 0.42478q0.0155 0.05374 0.03927 0.09922t0.05684 0.07855q0.03411 0.03204 0.07648 0.05064 0.04341 0.01757 0.09819 0.01757 0.07028 0 0.12712-0.03411 0.05788-0.03411 0.09819-0.10129 0.04031-0.06718 0.06201-0.1664 0.0217-0.10025 0.0217-0.23151zm-0.61805-0.0124q0 0.03204 0 0.06408 1e-3 0.03204 0.0041 0.06201l0.57154-0.42271q-0.0155-0.05271-0.03927-0.09612t-0.05684-0.07441q-0.03307-0.03204-0.07545-0.04961-0.04237-0.01757-0.09509-0.01757-0.07028 0-0.12816 0.03411-0.05684 0.03411-0.09715 0.10232-0.04031 0.06718-0.06201 0.16743-0.0217 0.09922-0.0217 0.23048z" style="paint-order:stroke fill markers" aria-label="1.50
"/>
   <path d="m36.678 90.358h-0.84853v-0.16743h0.34727v-0.98599l-0.3235 0.1757-0.06615-0.15296 0.42995-0.22634h0.15916v1.1896h0.30179zm0.70694-0.32556q0.03514 0 0.06615 0.01344 0.03204 0.01344 0.05478 0.03721 0.02377 0.02377 0.03721 0.05581 0.01344 0.031 0.01344 0.06718 0 0.03514-0.01344 0.06615t-0.03721 0.05478q-0.02274 0.02274-0.05478 0.03617-0.03101 0.01344-0.06615 0.01344-0.03617 0-0.06718-0.01344t-0.05478-0.03617q-0.02274-0.02377-0.03617-0.05478-0.01344-0.03101-0.01344-0.06615 0-0.03617 0.01344-0.06718 0.01344-0.03204 0.03617-0.05581 0.02377-0.02377 0.05478-0.03721t0.06718-0.01344zm1.6247-0.85783-0.56637 1.1834h-0.20567l0.58808-1.1834h-0.72967v-0.16743h0.91364zm1.1369 0.75138q0 0.10025-0.04341 0.18294-0.04341 0.08268-0.11989 0.14263-0.07545 0.05891-0.1788 0.09199-0.10335 0.03307-0.22324 0.03307-0.02997 0-0.06511-0.0021-0.03411-1e-3 -0.06821-0.0041-0.03411-0.0021-0.06718-0.0052-0.03204-0.0031-0.05788-0.0072v-0.1633q0.05581 0.01344 0.12712 0.01964 0.07235 0.0062 0.14573 0.0062 0.08268 0 0.14883-0.01964 0.06615-0.01964 0.11266-0.05581 0.04651-0.03721 0.07131-0.08888 0.0248-0.05271 0.0248-0.11782 0-0.12609-0.09095-0.18294-0.08992-0.05788-0.25942-0.05788h-0.25632v-0.6904h0.7276v0.1571h-0.55811v0.3793h0.11782q0.09715 0 0.18914 0.01757 0.09198 0.01757 0.1633 0.06201 0.07235 0.04341 0.11576 0.11782 0.04444 0.07338 0.04444 0.185z" style="paint-order:stroke fill markers" aria-label="1.75"/>
   <path d="m52.694 96.015h-0.84853v-0.16743h0.34727v-0.98599l-0.3235 0.1757-0.06615-0.15296 0.42995-0.22634h0.15916v1.1896h0.30179zm0.70694-0.32556q0.03514 0 0.06615 0.01344 0.03204 0.01344 0.05478 0.03721 0.02377 0.02377 0.03721 0.05581 0.01344 0.03101 0.01344 0.06718 0 0.03514-0.01344 0.06615t-0.03721 0.05478q-0.02274 0.02274-0.05478 0.03617-0.03101 0.01344-0.06615 0.01344-0.03617 0-0.06718-0.01344t-0.05478-0.03617q-0.02274-0.02377-0.03617-0.05478-0.01344-0.03101-0.01344-0.06615 0-0.03617 0.01344-0.06718 0.01344-0.03204 0.03617-0.05581 0.02377-0.02377 0.05478-0.03721t0.06718-0.01344zm1.663-0.34933q0 0.15503-0.03101 0.28319-0.03101 0.12712-0.09405 0.21911-0.06304 0.09095-0.1571 0.14159-0.09302 0.04961-0.21911 0.04961-0.10852 0-0.1974-0.04031-0.08888-0.04134-0.15193-0.12609-0.06305-0.08475-0.09715-0.21601-0.03411-0.13126-0.03411-0.31109 0-0.15503 0.03101-0.28319 0.03204-0.12816 0.09405-0.21911 0.06305-0.09198 0.1571-0.14159 0.09405-0.05064 0.21911-0.05064 0.10852 0 0.1974 0.04134 0.08888 0.04031 0.15193 0.12609 0.06304 0.08475 0.09715 0.21601t0.03411 0.31109zm-0.1819 0.0062q0-0.03514-0.0031-0.06925-0.0021-0.03514-0.0052-0.06821l-0.57154 0.42478q0.0155 0.05374 0.03927 0.09922 0.02377 0.04547 0.05685 0.07855 0.03411 0.03204 0.07648 0.05064 0.04341 0.01757 0.09819 0.01757 0.07028 0 0.12712-0.03411 0.05788-0.03411 0.09819-0.10129 0.04031-0.06718 0.06201-0.1664 0.0217-0.10025 0.0217-0.23151zm-0.61805-0.0124q0 0.03204 0 0.06408 1e-3 0.03204 0.0041 0.06201l0.57154-0.42271q-0.0155-0.05271-0.03927-0.09612t-0.05684-0.07441q-0.03307-0.03204-0.07545-0.04961-0.04237-0.01757-0.09509-0.01757-0.07028 0-0.12816 0.03411-0.05684 0.03411-0.09715 0.10232-0.04031 0.06718-0.06201 0.16743-0.0217 0.09922-0.0217 0.23048zm1.9637 0.0062q0 0.15503-0.03101 0.28319-0.03101 0.12712-0.09405 0.21911-0.06305 0.09095-0.1571 0.14159-0.09302 0.04961-0.21911 0.04961-0.10852 0-0.1974-0.04031-0.08888-0.04134-0.15193-0.12609-0.06305-0.08475-0.09715-0.21601-0.03411-0.13126-0.03411-0.31109 0-0.15503 0.03101-0.28319 0.03204-0.12816 0.09405-0.21911 0.06304-0.09198 0.1571-0.14159 0.09405-0.05064 0.21911-0.05064 0.10852 0 0.1974 0.04134 0.08888 0.04031 0.15193 0.12609 0.06304 0.08475 0.09715 0.21601t0.03411 0.31109zm-0.1819 0.0062q0-0.03514-0.0031-0.06925-0.0021-0.03514-0.0052-0.06821l-0.57154 0.42478q0.0155 0.05374 0.03927 0.09922 0.02377 0.04547 0.05684 0.07855 0.03411 0.03204 0.07648 0.05064 0.04341 0.01757 0.09819 0.01757 0.07028 0 0.12712-0.03411 0.05788-0.03411 0.09819-0.10129 0.04031-0.06718 0.06201-0.1664 0.0217-0.10025 0.0217-0.23151zm-0.61805-0.0124q0 0.03204 0 0.06408 1e-3 0.03204 0.0041 0.06201l0.57154-0.42271q-0.0155-0.05271-0.03927-0.09612t-0.05684-0.07441q-0.03307-0.03204-0.07545-0.04961-0.04237-0.01757-0.09508-0.01757-0.07028 0-0.12816 0.03411-0.05684 0.03411-0.09715 0.10232-0.04031 0.06718-0.06201 0.16743-0.0217 0.09922-0.0217 0.23048z" style="paint-order:stroke fill markers" aria-label="1.00"/>
   <path d="m64.066 90.358h-0.84853v-0.16743h0.34727v-0.98599l-0.3235 0.1757-0.06615-0.15296 0.42995-0.22634h0.15916v1.1896h0.30179zm0.70694-0.32556q0.03514 0 0.06615 0.01344 0.03204 0.01344 0.05478 0.03721 0.02377 0.02377 0.03721 0.05581 0.01344 0.031 0.01344 0.06718 0 0.03514-0.01344 0.06615t-0.03721 0.05478q-0.02274 0.02274-0.05478 0.03617-0.03101 0.01344-0.06615 0.01344-0.03617 0-0.06718-0.01344t-0.05478-0.03617q-0.02274-0.02377-0.03617-0.05478-0.01344-0.03101-0.01344-0.06615 0-0.03617 0.01344-0.06718 0.01344-0.03204 0.03617-0.05581 0.02377-0.02377 0.05478-0.03721t0.06718-0.01344zm1.6319 0.32556h-0.88987v-0.16123l0.34933-0.34727q0.08578-0.08475 0.13953-0.14676 0.05374-0.06201 0.08372-0.11266 0.02997-0.05168 0.04031-0.09715 0.01034-0.04548 0.01034-0.09819 0-0.04961-0.01344-0.09405-0.01344-0.04548-0.04134-0.07958-0.02791-0.03411-0.07235-0.05374-0.04444-0.01964-0.10645-0.01964-0.08578 0-0.15606 0.03824-0.07028 0.03824-0.12919 0.09922l-0.09922-0.11886q0.07648-0.08062 0.1757-0.12919 0.10025-0.04858 0.23254-0.04858 0.08992 0 0.1633 0.02687 0.07442 0.02687 0.12816 0.07751 0.05374 0.05064 0.08268 0.12402 0.02997 0.07338 0.02997 0.16536 0 0.07752-0.02067 0.14366-0.02067 0.06615-0.06305 0.13229-0.04134 0.06511-0.10542 0.13539-0.06305 0.07028-0.14986 0.154l-0.24495 0.23875h0.65629zm1.1296-0.43202q0 0.10025-0.04341 0.18294-0.04341 0.08268-0.11989 0.14263-0.07545 0.05891-0.1788 0.09199-0.10335 0.03307-0.22324 0.03307-0.02997 0-0.06511-0.0021-0.03411-1e-3 -0.06821-0.0041-0.03411-0.0021-0.06718-0.0052-0.03204-0.0031-0.05788-0.0072v-0.1633q0.05581 0.01344 0.12712 0.01964 0.07235 0.0062 0.14573 0.0062 0.08268 0 0.14883-0.01964 0.06615-0.01964 0.11266-0.05581 0.04651-0.03721 0.07131-0.08888 0.02481-0.05271 0.02481-0.11782 0-0.12609-0.09095-0.18294-0.08992-0.05788-0.25942-0.05788h-0.25632v-0.6904h0.72761v0.1571h-0.55811v0.3793h0.11782q0.09715 0 0.18914 0.01757 0.09198 0.01757 0.1633 0.06201 0.07235 0.04341 0.11576 0.11782 0.04444 0.07338 0.04444 0.185z" style="paint-order:stroke fill markers" aria-label="1.25"/>
   <path d="m75.38 84.701h-0.84853v-0.16743h0.34727v-0.98599l-0.3235 0.1757-0.06615-0.15296 0.42995-0.22634h0.15916v1.1896h0.30179zm0.70693-0.32556q0.03514 0 0.06615 0.01344 0.03204 0.01344 0.05478 0.03721 0.02377 0.02377 0.03721 0.05581 0.01344 0.031 0.01344 0.06718 0 0.03514-0.01344 0.06615t-0.03721 0.05478q-0.02274 0.02274-0.05478 0.03617-0.03101 0.01344-0.06615 0.01344-0.03617 0-0.06718-0.01344t-0.05478-0.03617q-0.02274-0.02377-0.03617-0.05478-0.01344-0.03101-0.01344-0.06615 0-0.03617 0.01344-0.06718 0.01344-0.03204 0.03617-0.05581 0.02377-0.02377 0.05478-0.03721t0.06718-0.01344zm1.5978-0.10645q0 0.10025-0.04341 0.18294-0.04341 0.08268-0.11989 0.14263-0.07545 0.05891-0.1788 0.09199-0.10335 0.03307-0.22324 0.03307-0.02997 0-0.06511-0.0021-0.03411-1e-3 -0.06821-0.0041-0.03411-0.0021-0.06718-0.0052-0.03204-0.0031-0.05788-0.0072v-0.1633q0.05581 0.01344 0.12712 0.01964 0.07235 0.0062 0.14573 0.0062 0.08268 0 0.14883-0.01964 0.06615-0.01964 0.11266-0.05581 0.04651-0.03721 0.07131-0.08888 0.02481-0.05271 0.02481-0.11782 0-0.12609-0.09095-0.18294-0.08992-0.05788-0.25942-0.05788h-0.25632v-0.6904h0.7276v0.1571h-0.55811v0.3793h0.11782q0.09715 0 0.18914 0.01757 0.09198 0.01757 0.1633 0.06201 0.07235 0.04341 0.11576 0.11782 0.04444 0.07338 0.04444 0.185zm1.2289-0.24288q0 0.15503-0.03101 0.28319-0.03101 0.12712-0.09405 0.21911-0.06305 0.09095-0.1571 0.14159-0.09302 0.04961-0.21911 0.04961-0.10852 0-0.1974-0.04031-0.08888-0.04134-0.15193-0.12609-0.06305-0.08475-0.09715-0.21601-0.03411-0.13126-0.03411-0.31109 0-0.15503 0.03101-0.28319 0.03204-0.12816 0.09405-0.21911 0.06305-0.09198 0.1571-0.14159 0.09405-0.05064 0.21911-0.05064 0.10852 0 0.1974 0.04134 0.08888 0.04031 0.15193 0.12609 0.06305 0.08475 0.09715 0.21601 0.03411 0.13126 0.03411 0.31109zm-0.1819 0.0062q0-0.03514-0.0031-0.06925-0.0021-0.03514-0.0052-0.06821l-0.57154 0.42478q0.0155 0.05374 0.03927 0.09922t0.05684 0.07855q0.03411 0.03204 0.07648 0.05064 0.04341 0.01757 0.09819 0.01757 0.07028 0 0.12712-0.03411 0.05788-0.03411 0.09819-0.10129 0.04031-0.06718 0.06201-0.1664 0.0217-0.10025 0.0217-0.23151zm-0.61805-0.0124q0 0.03204 0 0.06408 1e-3 0.03204 0.0041 0.06201l0.57154-0.42271q-0.0155-0.05271-0.03928-0.09612-0.02377-0.04341-0.05684-0.07441-0.03307-0.03204-0.07545-0.04961-0.04237-0.01757-0.09508-0.01757-0.07028 0-0.12816 0.03411-0.05684 0.03411-0.09715 0.10232-0.04031 0.06718-0.06201 0.16743-0.0217 0.09922-0.0217 0.23048z" style="paint-order:stroke fill markers" aria-label="1.50"/>
   <path d="m86.635 79.045h-0.84853v-0.16743h0.34727v-0.98599l-0.3235 0.1757-0.06615-0.15296 0.42995-0.22634h0.15916v1.1896h0.30179zm0.70694-0.32556q0.03514 0 0.06615 0.01344 0.03204 0.01344 0.05478 0.03721 0.02377 0.02377 0.03721 0.05581 0.01344 0.03101 0.01344 0.06718 0 0.03514-0.01344 0.06615t-0.03721 0.05478q-0.02274 0.02274-0.05478 0.03617-0.03101 0.01344-0.06615 0.01344-0.03617 0-0.06718-0.01344-0.031-0.01344-0.05478-0.03617-0.02274-0.02377-0.03617-0.05478-0.01344-0.03101-0.01344-0.06615 0-0.03617 0.01344-0.06718 0.01344-0.03204 0.03617-0.05581 0.02377-0.02377 0.05478-0.03721t0.06718-0.01344zm1.6247-0.85783-0.56637 1.1834h-0.20567l0.58808-1.1834h-0.72967v-0.16743h0.91364zm1.1369 0.75138q0 0.10025-0.04341 0.18294-0.04341 0.08268-0.11989 0.14263-0.07545 0.05891-0.1788 0.09198-0.10335 0.03307-0.22324 0.03307-0.02997 0-0.06511-0.0021-0.03411-1e-3 -0.06821-0.0041-0.03411-0.0021-0.06718-0.0052-0.03204-0.0031-0.05788-0.0072v-0.16329q0.05581 0.01344 0.12712 0.01964 0.07235 0.0062 0.14573 0.0062 0.08268 0 0.14883-0.01964 0.06614-0.01964 0.11265-0.05581 0.04651-0.03721 0.07131-0.08888 0.02481-0.05271 0.02481-0.11782 0-0.12609-0.09095-0.18294-0.08992-0.05788-0.25942-0.05788h-0.25632v-0.6904h0.72761v0.1571h-0.55811v0.3793h0.11782q0.09715 0 0.18914 0.01757 0.09198 0.01757 0.1633 0.06201 0.07235 0.04341 0.11576 0.11782 0.04444 0.07338 0.04444 0.185z" style="paint-order:stroke fill markers" aria-label="1.75"/>
  </g>
  <g fill="#0f0" stroke-width="0">
   <path d="m3.908 74.326q0 0.10335-0.020671 0.18879-0.020671 0.08475-0.062701 0.14607-0.04203 0.06063-0.10473 0.09439-0.062012 0.03307-0.14607 0.03307-0.072347 0-0.1316-0.02687-0.059256-0.02756-0.10129-0.08406-0.04203-0.0565-0.064768-0.144-0.022738-0.0875-0.022738-0.20739 0-0.10335 0.020671-0.18879 0.02136-0.08544 0.062701-0.14607 0.04203-0.06132 0.10473-0.0944 0.062701-0.03376 0.14607-0.03376 0.072347 0 0.1316 0.02756 0.059256 0.02687 0.10129 0.08406 0.04203 0.0565 0.064768 0.144 0.022738 0.0875 0.022738 0.2074zm-0.12127 0.0041q0-0.02343-0.00207-0.04617-0.00138-0.02343-0.00345-0.04547l-0.38103 0.28319q0.010335 0.03583 0.026183 0.06615 0.015847 0.03032 0.037896 0.05236 0.022738 0.02136 0.050987 0.03376 0.028939 0.01171 0.065457 0.01171 0.046853 0 0.084749-0.02274 0.038585-0.02274 0.065457-0.06752 0.026872-0.04479 0.041341-0.11093 0.014469-0.06683 0.014469-0.15434zm-0.41203-0.0083q0 0.02136 0 0.04272 6.89e-4 0.02136 0.00276 0.04134l0.38103-0.28181q-0.010335-0.03514-0.026183-0.06408-0.015847-0.02894-0.037896-0.04961-0.022049-0.02136-0.050298-0.03307-0.02825-0.01171-0.06339-0.01171-0.046853 0-0.085438 0.02274-0.037896 0.02274-0.064768 0.06821-0.026872 0.04479-0.041341 0.11162-0.014469 0.06615-0.014469 0.15365zm1.3091 0.0041q0 0.10335-0.020671 0.18879-0.020671 0.08475-0.062701 0.14607-0.04203 0.06063-0.10473 0.09439-0.062012 0.03307-0.14607 0.03307-0.072347 0-0.1316-0.02687-0.059256-0.02756-0.10129-0.08406-0.04203-0.0565-0.064768-0.144-0.022738-0.0875-0.022738-0.20739 0-0.10335 0.020671-0.18879 0.02136-0.08544 0.062701-0.14607 0.04203-0.06132 0.10473-0.0944 0.062701-0.03376 0.14607-0.03376 0.072347 0 0.1316 0.02756 0.059256 0.02687 0.10129 0.08406 0.04203 0.0565 0.064768 0.144 0.022738 0.0875 0.022738 0.2074zm-0.12127 0.0041q0-0.02343-0.00207-0.04617-0.00138-0.02343-0.00345-0.04547l-0.38103 0.28319q0.010335 0.03583 0.026183 0.06615 0.015847 0.03032 0.037896 0.05236 0.022738 0.02136 0.050987 0.03376 0.028939 0.01171 0.065457 0.01171 0.046853 0 0.084749-0.02274 0.038585-0.02274 0.065457-0.06752 0.026872-0.04479 0.041341-0.11093 0.014469-0.06683 0.014469-0.15434zm-0.41203-0.0083q0 0.02136 0 0.04272 6.89e-4 0.02136 0.00276 0.04134l0.38103-0.28181q-0.010335-0.03514-0.026183-0.06408t-0.037896-0.04961q-0.022049-0.02136-0.050298-0.03307-0.02825-0.01171-0.06339-0.01171-0.046853 0-0.085438 0.02274-0.037896 0.02274-0.064768 0.06821-0.026872 0.04479-0.041341 0.11162-0.014469 0.06615-0.014469 0.15365z" aria-label="00"/>
   <path d="m15.254 80.055q0 0.10335-0.02067 0.18879-0.02067 0.08475-0.0627 0.14607-0.04203 0.06063-0.10473 0.09439-0.06201 0.03307-0.14607 0.03307-0.07235 0-0.1316-0.02687-0.05926-0.02756-0.10129-0.08406-0.04203-0.0565-0.06477-0.144-0.02274-0.08751-0.02274-0.20739 0-0.10335 0.02067-0.18879 0.02136-0.08544 0.0627-0.14607 0.04203-0.06132 0.10473-0.0944 0.0627-0.03376 0.14607-0.03376 0.07235 0 0.1316 0.02756 0.05926 0.02687 0.10129 0.08406 0.04203 0.0565 0.06477 0.144 0.02274 0.08751 0.02274 0.2074zm-0.12127 0.0041q0-0.02343-0.0021-0.04616-0.0014-0.02343-0.0034-0.04548l-0.38103 0.28319q0.01034 0.03583 0.02618 0.06615 0.01585 0.03032 0.0379 0.05236 0.02274 0.02136 0.05099 0.03376 0.02894 0.01171 0.06546 0.01171 0.04685 0 0.08475-0.02274 0.03858-0.02274 0.06546-0.06752 0.02687-0.04479 0.04134-0.11093 0.01447-0.06684 0.01447-0.15434zm-0.41203-0.0083q0 0.02136 0 0.04272 6.89e-4 0.02136 0.0028 0.04134l0.38103-0.28181q-0.01033-0.03514-0.02618-0.06408t-0.0379-0.04961q-0.02205-0.02136-0.0503-0.03307t-0.06339-0.01171q-0.04685 0-0.08544 0.02274-0.0379 0.02274-0.06477 0.06821-0.02687 0.04479-0.04134 0.11162-0.01447 0.06614-0.01447 0.15365zm1.2809 0.45406h-0.56568v-0.11162h0.23151v-0.65732l-0.21566 0.11713-0.0441-0.10197 0.28663-0.1509h0.10611v0.79306h0.20119z" aria-label="01"/>
   <path d="m26.507 86.162h-0.56568v-0.11162h0.23151v-0.65732l-0.21566 0.11713-0.0441-0.10197 0.28663-0.1509h0.10611v0.79306h0.20119zm0.80408-0.44993q0 0.10335-0.02067 0.18879-0.02067 0.08475-0.0627 0.14607-0.04203 0.06063-0.10473 0.09439-0.06201 0.03307-0.14607 0.03307-0.07235 0-0.1316-0.02687-0.05926-0.02756-0.10128-0.08406-0.04203-0.0565-0.06477-0.144-0.02274-0.08751-0.02274-0.20739 0-0.10335 0.02067-0.18879 0.02136-0.08544 0.0627-0.14607 0.04203-0.06132 0.10473-0.0944 0.0627-0.03376 0.14607-0.03376 0.07235 0 0.1316 0.02756 0.05926 0.02687 0.10129 0.08406 0.04203 0.0565 0.06477 0.144 0.02274 0.0875 0.02274 0.2074zm-0.12127 0.0041q0-0.02343-0.0021-0.04616-0.0014-0.02343-0.0034-0.04548l-0.38103 0.28319q0.01034 0.03583 0.02618 0.06615 0.01585 0.03032 0.0379 0.05236 0.02274 0.02136 0.05099 0.03376 0.02894 0.01171 0.06546 0.01171 0.04685 0 0.08475-0.02274 0.03859-0.02274 0.06546-0.06752 0.02687-0.04479 0.04134-0.11093 0.01447-0.06684 0.01447-0.15434zm-0.41203-0.0083q0 0.02136 0 0.04272 6.89e-4 0.02136 0.0028 0.04134l0.38103-0.28181q-0.01034-0.03514-0.02618-0.06408-0.01585-0.02894-0.0379-0.04961-0.02205-0.02136-0.0503-0.03307t-0.06339-0.01171q-0.04685 0-0.08544 0.02274-0.0379 0.02274-0.06477 0.06821-0.02687 0.04479-0.04134 0.11162-0.01447 0.06615-0.01447 0.15365z" aria-label="10"/>
   <path d="m37.853 91.819h-0.56568v-0.11162h0.23151v-0.65732l-0.21566 0.11713-0.0441-0.10198 0.28663-0.1509h0.10611v0.79306h0.20119zm0.77584 0h-0.56568v-0.11162h0.23151v-0.65732l-0.21566 0.11713-0.0441-0.10198 0.28663-0.1509h0.10611v0.79306h0.20119z" aria-label="11"/>
   <path d="m87.809 80.497h-0.56568v-0.11162h0.23151v-0.65732l-0.21566 0.11713-0.0441-0.10198 0.28663-0.1509h0.10611v0.79306h0.2012zm0.77584 0h-0.56568v-0.11162h0.23151v-0.65732l-0.21566 0.11713-0.0441-0.10198 0.28663-0.1509h0.10611v0.79306h0.20119z" aria-label="11
"/>
   <path d="m65.268 91.361q0 0.10335-0.02067 0.18879-0.02067 0.08475-0.0627 0.14607-0.04203 0.06063-0.10473 0.0944-0.06201 0.03307-0.14607 0.03307-0.07235 0-0.1316-0.02687-0.05926-0.02756-0.10129-0.08406-0.04203-0.0565-0.06477-0.144-0.02274-0.08751-0.02274-0.2074 0-0.10335 0.02067-0.18879 0.02136-0.08544 0.0627-0.14607 0.04203-0.06132 0.10473-0.0944 0.0627-0.03376 0.14607-0.03376 0.07235 0 0.1316 0.02756 0.05926 0.02687 0.10129 0.08406 0.04203 0.0565 0.06477 0.144 0.02274 0.08751 0.02274 0.20739zm-0.12127 0.0041q0-0.02343-0.0021-0.04617-0.0014-0.02343-0.0034-0.04548l-0.38103 0.28319q0.01033 0.03583 0.02618 0.06614 0.01585 0.03032 0.0379 0.05237 0.02274 0.02136 0.05099 0.03376 0.02894 0.01171 0.06546 0.01171 0.04685 0 0.08475-0.02274 0.03859-0.02274 0.06546-0.06752 0.02687-0.04479 0.04134-0.11093 0.01447-0.06683 0.01447-0.15434zm-0.41203-0.0083q0 0.02136 0 0.04272 6.89e-4 0.02136 0.0028 0.04134l0.38103-0.28181q-0.01033-0.03514-0.02618-0.06408t-0.0379-0.04961q-0.02205-0.02136-0.0503-0.03307t-0.06339-0.01171q-0.04685 0-0.08544 0.02274-0.0379 0.02274-0.06477 0.06821-0.02687 0.04479-0.04134 0.11162-0.01447 0.06615-0.01447 0.15365zm1.2809 0.45406h-0.56568v-0.11162h0.23151v-0.65732l-0.21566 0.11713-0.0441-0.10198 0.28663-0.1509h0.10611v0.79306h0.20119z" aria-label="01"/>
   <path d="m76.586 86.154h-0.56568v-0.11162h0.23151v-0.65732l-0.21566 0.11713-0.0441-0.10198 0.28663-0.1509h0.10611v0.79306h0.20119zm0.80408-0.44993q0 0.10335-0.02067 0.18879-0.02067 0.08475-0.0627 0.14607-0.04203 0.06063-0.10473 0.0944-0.06201 0.03307-0.14607 0.03307-0.07235 0-0.1316-0.02687-0.05926-0.02756-0.10129-0.08406-0.04203-0.0565-0.06477-0.144-0.02274-0.08751-0.02274-0.2074 0-0.10335 0.02067-0.18879 0.02136-0.08544 0.0627-0.14607 0.04203-0.06132 0.10473-0.0944 0.0627-0.03376 0.14607-0.03376 0.07235 0 0.1316 0.02756 0.05926 0.02687 0.10129 0.08406 0.04203 0.0565 0.06477 0.144 0.02274 0.0875 0.02274 0.20739zm-0.12127 0.0041q0-0.02343-0.0021-0.04617-0.0014-0.02343-0.0034-0.04548l-0.38103 0.28319q0.01033 0.03583 0.02618 0.06615t0.0379 0.05237q0.02274 0.02136 0.05099 0.03376 0.02894 0.01171 0.06546 0.01171 0.04685 0 0.08475-0.02274 0.03858-0.02274 0.06546-0.06752 0.02687-0.04479 0.04134-0.11093 0.01447-0.06683 0.01447-0.15434zm-0.41203-0.0083q0 0.02136 0 0.04272 6.89e-4 0.02136 0.0028 0.04134l0.38103-0.28181q-0.01033-0.03514-0.02618-0.06408t-0.0379-0.04961q-0.02205-0.02136-0.0503-0.03307t-0.06339-0.01171q-0.04685 0-0.08544 0.02274-0.0379 0.02274-0.06477 0.06821-0.02687 0.04479-0.04134 0.11162-0.01447 0.06615-0.01447 0.15365z" aria-label="10"/>
   <path d="m53.929 97.017q0 0.10335-0.02067 0.18879-0.02067 0.08475-0.0627 0.14607-0.04203 0.06063-0.10473 0.0944-0.06201 0.03307-0.14607 0.03307-0.07235 0-0.1316-0.02687-0.05926-0.02756-0.10129-0.08406-0.04203-0.0565-0.06477-0.144-0.02274-0.08751-0.02274-0.2074 0-0.10335 0.02067-0.18879 0.02136-0.08544 0.0627-0.14607 0.04203-0.06132 0.10473-0.0944 0.0627-0.03376 0.14607-0.03376 0.07235 0 0.1316 0.02756 0.05926 0.02687 0.10129 0.08406 0.04203 0.0565 0.06477 0.144 0.02274 0.08751 0.02274 0.20739zm-0.12127 0.0041q0-0.02343-0.0021-0.04616-0.0014-0.02343-0.0034-0.04548l-0.38103 0.28319q0.01034 0.03583 0.02618 0.06614 0.01585 0.03032 0.0379 0.05237 0.02274 0.02136 0.05099 0.03376 0.02894 0.01171 0.06546 0.01171 0.04685 0 0.08475-0.02274 0.03858-0.02274 0.06546-0.06752 0.02687-0.04479 0.04134-0.11093 0.01447-0.06683 0.01447-0.15434zm-0.41203-0.0083q0 0.02136 0 0.04272 6.89e-4 0.02136 0.0028 0.04134l0.38103-0.28181q-0.01033-0.03514-0.02618-0.06408t-0.0379-0.04961q-0.02205-0.02136-0.0503-0.03307t-0.06339-0.01171q-0.04685 0-0.08544 0.02274-0.0379 0.02274-0.06477 0.06821-0.02687 0.04479-0.04134 0.11162-0.01447 0.06615-0.01447 0.15365zm1.3091 0.0041q0 0.10335-0.02067 0.18879-0.02067 0.08475-0.0627 0.14607-0.04203 0.06063-0.10473 0.0944-0.06201 0.03307-0.14607 0.03307-0.07235 0-0.1316-0.02687-0.05926-0.02756-0.10129-0.08406-0.04203-0.0565-0.06477-0.144-0.02274-0.08751-0.02274-0.2074 0-0.10335 0.02067-0.18879 0.02136-0.08544 0.0627-0.14607 0.04203-0.06132 0.10473-0.0944 0.0627-0.03376 0.14607-0.03376 0.07235 0 0.1316 0.02756 0.05926 0.02687 0.10129 0.08406 0.04203 0.0565 0.06477 0.144 0.02274 0.08751 0.02274 0.20739zm-0.12127 0.0041q0-0.02343-0.0021-0.04616-0.0014-0.02343-0.0034-0.04548l-0.38103 0.28319q0.01034 0.03583 0.02618 0.06614 0.01585 0.03032 0.0379 0.05237 0.02274 0.02136 0.05099 0.03376 0.02894 0.01171 0.06546 0.01171 0.04685 0 0.08475-0.02274 0.03858-0.02274 0.06546-0.06752 0.02687-0.04479 0.04134-0.11093 0.01447-0.06683 0.01447-0.15434zm-0.41203-0.0083q0 0.02136 0 0.04272 6.89e-4 0.02136 0.0028 0.04134l0.38103-0.28181q-0.01033-0.03514-0.02618-0.06408t-0.0379-0.04961q-0.02205-0.02136-0.0503-0.03307t-0.06339-0.01171q-0.04685 0-0.08544 0.02274-0.0379 0.02274-0.06477 0.06821-0.02687 0.04479-0.04134 0.11162-0.01447 0.06615-0.01447 0.15365z" aria-label="00"/>
  </g>
 </g>
 <path d="m16.046 19.998 2.2631 28.284 11.314 5.6568 11.314-5.6568 47.518-28.284-36.204 18.102z" fill="#66e6ff" fill-opacity=".2381" stroke="#65a5ff" stroke-dasharray="0.9, 0.15" stroke-opacity=".7967" stroke-width=".15"/>
 <g transform="translate(.61324 -20.254)">
  <g fill="#e5e5e5" stroke="#000" stroke-width=".15811">
   <rect transform="matrix(.89443 -.44721 .89443 .44721 0 0)" x="-36.376" y="53.63" width="10.119" height="10.119"/>
   <rect transform="matrix(.89443 -.44721 .89443 .44721 0 0)" x="-36.376" y="63.749" width="10.119" height="10.119"/>
   <rect transform="matrix(.89443 -.44721 .89443 .44721 0 0)" x="-36.376" y="73.869" width="10.119" height="10.119"/>
   <rect transform="matrix(.89443 -.44721 .89443 .44721 0 0)" x="-36.376" y="83.988" width="10.119" height="10.119"/>
   <rect transform="matrix(.89443 -.44721 .89443 .44721 0 0)" x="-26.257" y="53.63" width="10.119" height="10.119"/>
   <rect transform="matrix(.89443 -.44721 .89443 .44721 0 0)" x="-26.257" y="63.749" width="10.119" height="10.119"/>
   <rect transform="matrix(.89443 -.44721 .89443 .44721 0 0)" x="-26.257" y="73.869" width="10.119" height="10.119"/>
   <rect transform="matrix(.89443 -.44721 .89443 .44721 0 0)" x="-26.257" y="83.988" width="10.119" height="10.119"/>
   <rect transform="matrix(.89443 -.44721 .89443 .44721 0 0)" x="-16.137" y="53.63" width="10.119" height="10.119"/>
   <rect transform="matrix(.89443 -.44721 .89443 .44721 0 0)" x="-16.137" y="63.749" width="10.119" height="10.119"/>
   <rect transform="matrix(.89443 -.44721 .89443 .44721 0 0)" x="-16.137" y="73.869" width="10.119" height="10.119"/>
   <rect transform="matrix(.89443 -.44721 .89443 .44721 0 0)" x="-16.137" y="83.988" width="10.119" height="10.119"/>
   <rect transform="matrix(.89443 -.44721 .89443 .44721 0 0)" x="-6.0179" y="53.63" width="10.119" height="10.119"/>
   <rect transform="matrix(.89443 -.44721 .89443 .44721 0 0)" x="-6.0179" y="63.749" width="10.119" height="10.119"/>
   <rect transform="matrix(.89443 -.44721 .89443 .44721 0 0)" x="-6.0179" y="73.869" width="10.119" height="10.119"/>
   <rect transform="matrix(.89443 -.44721 .89443 .44721 0 0)" x="-6.0179" y="83.988" width="10.119" height="10.119"/>
  </g>
  <g stroke="#fff" stroke-opacity=".49742" stroke-width=".15">
   <path d="m12.464 41.36h-0.67883v-0.13395h0.27782v-0.7888l-0.2588 0.14056-0.05292-0.12237 0.34396-0.18108h0.12733v0.95168h0.24144zm0.56555-0.26045q0.02811 0 0.05292 0.01075 0.02563 0.01075 0.04382 0.02977 0.01902 0.01902 0.02977 0.04465 0.01075 0.0248 0.01075 0.05374 0 0.02811-0.01075 0.05292t-0.02977 0.04382q-0.01819 0.01819-0.04382 0.02894-0.0248 0.01075-0.05292 0.01075-0.02894 0-0.05374-0.01075-0.02481-0.01075-0.04382-0.02894-0.01819-0.01902-0.02894-0.04382-0.01075-0.02481-0.01075-0.05292 0-0.02894 0.01075-0.05374 0.01075-0.02563 0.02894-0.04465 0.01902-0.01902 0.04382-0.02977 0.02481-0.01075 0.05374-0.01075zm1.3056 0.26045h-0.7119v-0.12898l0.27947-0.27782q0.06863-0.0678 0.11162-0.11741 0.04299-0.04961 0.06697-0.09012 0.02398-0.04134 0.03225-0.07772 0.0083-0.03638 0.0083-0.07855 0-0.03969-0.01075-0.07524-0.01075-0.03638-0.03307-0.06367-0.02232-0.02728-0.05788-0.04299-0.03555-0.01571-0.08516-0.01571-0.06863 0-0.12485 0.03059-0.05622 0.03059-0.10335 0.07938l-0.07938-0.09509q0.06119-0.06449 0.14056-0.10335 0.0802-0.03886 0.18604-0.03886 0.07193 0 0.13064 0.0215 0.05953 0.0215 0.10253 0.06201 0.04299 0.04051 0.06615 0.09922 0.02398 0.05871 0.02398 0.13229 0 0.06201-0.01654 0.11493-0.01654 0.05292-0.05044 0.10584-0.03307 0.05209-0.08434 0.10832-0.05044 0.05622-0.11989 0.1232l-0.19596 0.191h0.52504zm0.90373-0.34562q0 0.0802-0.03473 0.14635-0.03473 0.06615-0.09591 0.1141-0.06036 0.04713-0.14304 0.07359-0.08268 0.02646-0.1786 0.02646-0.02398 0-0.05209-0.0017-0.02729-8.27e-4 -0.05457-0.0033-0.02728-0.0017-0.05374-0.0041-0.02563-0.0025-0.0463-0.0058v-0.13064q0.04465 0.01075 0.1017 0.01571 0.05788 5e-3 0.11658 5e-3 0.06615 0 0.11906-0.01571 0.05292-0.01571 0.09012-0.04465 0.03721-0.02977 0.05705-0.07111 0.01984-0.04217 0.01984-0.09426 0-0.10087-0.07276-0.14635-0.07193-0.0463-0.20753-0.0463h-0.20505v-0.55232h0.58209v0.12568h-0.44649v0.30345h0.09426q0.07772 0 0.15131 0.01406t0.13064 0.04961q0.05788 0.03473 0.0926 0.09426 0.03555 0.05871 0.03555 0.148z" style="paint-order:stroke fill markers" aria-label="1.25"/>
   <path d="m19.705 45.943h-0.67883v-0.13395h0.27782v-0.7888l-0.2588 0.14056-0.05292-0.12237 0.34396-0.18108h0.12733v0.95168h0.24143zm0.56555-0.26045q0.02811 0 0.05292 0.01075 0.02563 0.01075 0.04382 0.02977 0.01902 0.01902 0.02977 0.04465 0.01075 0.02481 0.01075 0.05374 0 0.02811-0.01075 0.05292t-0.02977 0.04382q-0.01819 0.01819-0.04382 0.02894-0.02481 0.01075-0.05292 0.01075-0.02894 0-0.05374-0.01075-0.02481-0.01075-0.04382-0.02894-0.01819-0.01902-0.02894-0.04382-0.01075-0.02481-0.01075-0.05292 0-0.02894 0.01075-0.05374 0.01075-0.02563 0.02894-0.04465 0.01902-0.01902 0.04382-0.02977t0.05374-0.01075zm1.2849-0.0678q0 0.07111-0.02894 0.13395-0.02894 0.06201-0.08682 0.10914-0.05788 0.0463-0.14552 0.07359-0.08764 0.02646-0.20423 0.02646-0.06449 0-0.11576-0.0041-0.05126-0.0041-0.09591-0.01075v-0.12898q0.05126 0.0091 0.10831 0.01406 0.05705 5e-3 0.11658 5e-3 0.08103 0 0.13808-0.01406 0.05788-0.01488 0.09426-0.04217 0.03638-0.02728 0.05292-0.06615 0.01654-0.03886 0.01654-0.08764 0-0.04465-0.01984-0.07772t-0.05623-0.0554q-0.03555-0.02233-0.08599-0.03307-0.04961-0.01158-0.10914-0.01158h-0.1232v-0.11824h0.12485q0.04878 0 0.08847-0.0124 0.04051-0.01323 0.06863-0.03721 0.02894-0.02398 0.04382-0.05871 0.01571-0.03555 0.01571-0.0802 0-0.08682-0.05292-0.12651-0.05292-0.03969-0.15544-0.03969-0.05457 0-0.11245 0.01075-0.05788 0.01075-0.12402 0.03225v-0.12568q0.02811-0.0099 0.05953-0.01736 0.03225-0.0083 0.06367-0.01323 0.03225-0.0058 0.06367-0.0083 0.03142-0.0033 0.06036-0.0033 0.08599 0 0.15131 0.01902 0.06532 0.01819 0.10914 0.05292 0.04382 0.03473 0.06615 0.08434 0.02232 0.04961 0.02232 0.11162 0 0.0926-0.04796 0.15544-0.04713 0.06284-0.12981 0.10005 0.04217 0.0066 0.08268 0.02646 0.04134 0.01984 0.07359 0.05126 0.03307 0.03059 0.05292 0.07276 0.02067 0.04217 0.02067 0.09343zm0.94259 0.32825h-0.67883v-0.13395h0.27782v-0.7888l-0.2588 0.14056-0.05292-0.12237 0.34396-0.18108h0.12733v0.95168h0.24144zm0.94011 0h-0.7119v-0.12898l0.27947-0.27782q0.06863-0.0678 0.11162-0.11741 0.04299-0.04961 0.06697-0.09012 0.02398-0.04134 0.03225-0.07772 0.0083-0.03638 0.0083-0.07855 0-0.03969-0.01075-0.07524-0.01075-0.03638-0.03307-0.06367-0.02232-0.02728-0.05788-0.04299-0.03555-0.01571-0.08516-0.01571-0.06863 0-0.12485 0.03059-0.05623 0.03059-0.10335 0.07938l-0.07938-0.09509q0.06119-0.06449 0.14056-0.10335 0.0802-0.03886 0.18604-0.03886 0.07193 0 0.13064 0.0215 0.05953 0.0215 0.10253 0.06201 0.04299 0.04051 0.06615 0.09922 0.02398 0.05871 0.02398 0.13229 0 0.06201-0.01654 0.11493-0.01654 0.05292-0.05044 0.10584-0.03307 0.05209-0.08434 0.10831-0.05044 0.05622-0.11989 0.1232l-0.19596 0.191h0.52504zm0.90373-0.34562q0 0.0802-0.03473 0.14635-0.03473 0.06615-0.09591 0.1141-0.06036 0.04713-0.14304 0.07359-0.08268 0.02646-0.1786 0.02646-0.02398 0-0.05209-0.0017-0.02728-8.26e-4 -0.05457-0.0033-0.02729-0.0017-0.05374-0.0041-0.02563-0.0025-0.0463-0.0058v-0.13064q0.04465 0.01075 0.1017 0.01571 0.05788 5e-3 0.11658 5e-3 0.06615 0 0.11906-0.01571 0.05292-0.01571 0.09012-0.04465 0.03721-0.02977 0.05705-0.07111 0.01984-0.04217 0.01984-0.09426 0-0.10087-0.07276-0.14635-0.07193-0.0463-0.20753-0.0463h-0.20505v-0.55232h0.58209v0.12568h-0.44649v0.30345h0.09426q0.07772 0 0.15131 0.01406t0.13064 0.04961q0.05788 0.03473 0.09261 0.09426 0.03555 0.0587 0.03555 0.148z" style="paint-order:stroke fill markers" aria-label="1.3125"/>
   <path d="m28.704 50.469h-0.67883v-0.13395h0.27782v-0.7888l-0.2588 0.14056-0.05292-0.12237 0.34396-0.18108h0.12733v0.95168h0.24144zm0.56555-0.26045q0.02811 0 0.05292 0.01075 0.02563 0.01075 0.04382 0.02977 0.01902 0.01902 0.02977 0.04465 0.01075 0.02481 0.01075 0.05374 0 0.02811-0.01075 0.05292t-0.02977 0.04382q-0.01819 0.01819-0.04382 0.02894-0.0248 0.01075-0.05292 0.01075-0.02894 0-0.05374-0.01075-0.02481-0.01075-0.04382-0.02894-0.01819-0.01902-0.02894-0.04382-0.01075-0.02481-0.01075-0.05292 0-0.02894 0.01075-0.05374 0.01075-0.02563 0.02894-0.04465 0.01902-0.01902 0.04382-0.02977 0.02481-0.01075 0.05374-0.01075zm1.2849-0.0678q0 0.07111-0.02894 0.13395-0.02894 0.06201-0.08682 0.10914-0.05788 0.0463-0.14552 0.07359-0.08764 0.02646-0.20423 0.02646-0.06449 0-0.11576-0.0041-0.05126-0.0041-0.09591-0.01075v-0.12902q0.05126 0.0091 0.10832 0.01406 0.05705 5e-3 0.11658 5e-3 0.08103 0 0.13808-0.01406 0.05788-0.01488 0.09426-0.04217 0.03638-0.02728 0.05292-0.06615 0.01654-0.03886 0.01654-0.08764 0-0.04465-0.01984-0.07772t-0.05622-0.0554q-0.03555-0.02233-0.08599-0.03307-0.04961-0.01158-0.10914-0.01158h-0.1232v-0.11824h0.12485q0.04878 0 0.08847-0.0124 0.04051-0.01323 0.06863-0.03721 0.02894-0.02398 0.04382-0.0587 0.01571-0.03555 0.01571-0.0802 0-0.08682-0.05292-0.1265-0.05292-0.03969-0.15544-0.03969-0.05457 0-0.11245 0.01075-0.05788 0.01075-0.12402 0.03225v-0.12568q0.02811-0.0099 0.05953-0.01736 0.03225-0.0083 0.06367-0.01323 0.03225-0.0058 0.06367-0.0083 0.03142-0.0033 0.06036-0.0033 0.08599 0 0.15131 0.01902 0.06532 0.01819 0.10914 0.05292 0.04382 0.03473 0.06615 0.08434 0.02232 0.04961 0.02232 0.11162 0 0.0926-0.04796 0.15544-0.04713 0.06284-0.12981 0.10005 0.04217 0.0066 0.08268 0.02646 0.04134 0.01984 0.07359 0.05126 0.03307 0.03059 0.05292 0.07276 0.02067 0.04217 0.02067 0.09343zm0.94589-0.61847-0.4531 0.94672h-0.16454l0.47047-0.94672h-0.58374v-0.13395h0.73092zm0.90952 0.60111q0 0.0802-0.03473 0.14635-0.03473 0.06615-0.09591 0.1141-0.06036 0.04713-0.14304 0.07359-0.08268 0.02646-0.1786 0.02646-0.02398 0-0.05209-0.0017-0.02729-8.27e-4 -0.05457-0.0033-0.02729-0.0017-0.05374-0.0041-0.02563-0.0025-0.0463-0.0058v-0.13064q0.04465 0.01075 0.1017 0.01571 0.05788 5e-3 0.11658 5e-3 0.06615 0 0.11906-0.01571 0.05292-0.01571 0.09013-0.04465 0.03721-0.02977 0.05705-0.07111 0.01984-0.04217 0.01984-0.09426 0-0.10087-0.07276-0.14635-0.07193-0.0463-0.20754-0.0463h-0.20505v-0.55232h0.58209v0.12568h-0.4465v0.30345h0.09426q0.07772 0 0.15131 0.01406t0.13064 0.04961q0.05788 0.03473 0.0926 0.09426 0.03555 0.0587 0.03555 0.148zm0.9831-0.19431q0 0.12402-0.02481 0.22655-0.02481 0.1017-0.07524 0.17529-0.05044 0.07276-0.12568 0.11328-0.07442 0.03969-0.17529 0.03969-0.08682 0-0.15792-0.03225-0.07111-0.03307-0.12154-0.10087-0.05044-0.0678-0.07772-0.17281-0.02729-0.10501-0.02729-0.24888 0-0.12402 0.02481-0.22655 0.02563-0.10253 0.07524-0.17529 0.05044-0.07359 0.12568-0.11328 0.07524-0.04051 0.17529-0.04051 0.08682 0 0.15792 0.03307 0.07111 0.03225 0.12154 0.10087 0.05044 0.0678 0.07772 0.17281 0.02729 0.10501 0.02729 0.24888zm-0.14552 5e-3q0-0.02811-0.0025-0.0554-0.0017-0.02811-0.0041-0.05457l-0.45724 0.33983q0.0124 0.043 0.03142 0.07938t0.04548 0.06284q0.02729 0.02563 0.06119 0.04051 0.03473 0.01406 0.07855 0.01406 0.05622 0 0.1017-0.02728 0.0463-0.02729 0.07855-0.08103t0.04961-0.13312q0.01736-0.0802 0.01736-0.18521zm-0.49444-0.0099q0 0.02563 0 0.05126 8.26e-4 0.02563 0.0033 0.04961l0.45724-0.33817q-0.0124-0.04217-0.03142-0.0769t-0.04548-0.05953q-0.02646-0.02563-0.06036-0.03969t-0.07607-0.01406q-0.05622 0-0.10253 0.02728-0.04548 0.02729-0.07772 0.08186-0.03225 0.05374-0.04961 0.13395-0.01736 0.07938-0.01736 0.18438z" style="paint-order:stroke fill markers" aria-label="1.3750
"/>
   <path d="m37.807 54.994h-0.67883v-0.13395h0.27782v-0.7888l-0.2588 0.14056-0.05292-0.12237 0.34396-0.18108h0.12733v0.95168h0.24144zm0.56555-0.26045q0.02811 0 0.05292 0.01075 0.02563 0.01075 0.04382 0.02977 0.01902 0.01902 0.02977 0.04465 0.01075 0.02481 0.01075 0.05374 0 0.02811-0.01075 0.05292t-0.02977 0.04382q-0.01819 0.01819-0.04382 0.02894-0.02481 0.01075-0.05292 0.01075-0.02894 0-0.05374-0.01075-0.02481-0.01075-0.04382-0.02894-0.01819-0.01902-0.02894-0.04382-0.01075-0.02481-0.01075-0.05292 0-0.02894 0.01075-0.05374 0.01075-0.02563 0.02894-0.04465 0.01902-0.01902 0.04382-0.02977 0.02481-0.01075 0.05374-0.01075zm1.3593 0.0215h-0.18438v0.23895h-0.14718v-0.23896h-0.52008v-0.1265l0.46054-0.71521h0.20671v0.71521h0.18438zm-0.33156-0.70281-0.37621 0.5763h0.37621zm1.1882 0.61351q0 0.07111-0.02894 0.13395-0.02894 0.06201-0.08682 0.10914-0.05788 0.0463-0.14552 0.07359-0.08764 0.02646-0.20423 0.02646-0.06449 0-0.11576-0.0041-0.05126-0.0041-0.09591-0.01075v-0.12899q0.05126 0.0091 0.10832 0.01406 0.05705 5e-3 0.11658 5e-3 0.08103 0 0.13808-0.01406 0.05788-0.01488 0.09426-0.04217t0.05292-0.06615 0.01654-0.08764q0-0.04465-0.01984-0.07772t-0.05622-0.0554q-0.03555-0.02232-0.08599-0.03307-0.04961-0.01158-0.10914-0.01158h-0.12321v-0.11831h0.12485q0.04878 0 0.08847-0.0124 0.04051-0.01323 0.06863-0.03721 0.02894-0.02398 0.04382-0.05871 0.01571-0.03555 0.01571-0.0802 0-0.08682-0.05292-0.1265-0.05292-0.03969-0.15544-0.03969-0.05457 0-0.11245 0.01075-0.05788 0.01075-0.12402 0.03225v-0.12568q0.02811-0.0099 0.05953-0.01736 0.03225-0.0083 0.06367-0.01323 0.03225-0.0058 0.06367-0.0083 0.03142-0.0033 0.06036-0.0033 0.08599 0 0.15131 0.01902 0.06532 0.01819 0.10914 0.05292 0.04382 0.03473 0.06615 0.08434t0.02233 0.11162q0 0.0926-0.04796 0.15544-0.04713 0.06284-0.12981 0.10005 0.04217 0.0066 0.08268 0.02646 0.04134 0.01984 0.07359 0.05126 0.03307 0.03059 0.05292 0.07276 0.02067 0.04217 0.02067 0.09343zm0.9459-0.61847-0.4531 0.94672h-0.16454l0.47047-0.94672h-0.58374v-0.13395h0.73092zm0.90951 0.60111q0 0.0802-0.03473 0.14635-0.03473 0.06615-0.09591 0.1141-0.06036 0.04713-0.14304 0.07359-0.08268 0.02646-0.1786 0.02646-0.02398 0-0.05209-0.0017-0.02728-8.27e-4 -0.05457-0.0033-0.02728-0.0017-0.05374-0.0041-0.02563-0.0025-0.0463-0.0058v-0.13064q0.04465 0.01075 0.1017 0.01571 0.05788 5e-3 0.11658 5e-3 0.06615 0 0.11906-0.01571 0.05292-0.01571 0.09013-0.04465 0.03721-0.02977 0.05705-0.07111 0.01984-0.04217 0.01984-0.09426 0-0.10087-0.07276-0.14635-0.07194-0.0463-0.20754-0.0463h-0.20505v-0.55232h0.58209v0.12568h-0.44649v0.30345h0.09426q0.07772 0 0.15131 0.01406t0.13064 0.04961q0.05788 0.03473 0.0926 0.09426 0.03555 0.05871 0.03555 0.148z" style="paint-order:stroke fill markers" aria-label="1.4375"/>
   <path d="m52.483 59.52h-0.67883v-0.13395h0.27782v-0.7888l-0.2588 0.14056-0.05292-0.12237 0.34396-0.18108h0.12733v0.95168h0.24144zm0.56555-0.26045q0.02811 0 0.05292 0.01075 0.02563 0.01075 0.04382 0.02977 0.01902 0.01902 0.02977 0.04465 0.01075 0.02481 0.01075 0.05374 0 0.02811-0.01075 0.05292t-0.02977 0.04382q-0.01819 0.01819-0.04382 0.02894-0.0248 0.01075-0.05292 0.01075-0.02894 0-0.05374-0.01075-0.02481-0.01075-0.04382-0.02894-0.01819-0.01902-0.02894-0.04382-0.01075-0.02481-0.01075-0.05292 0-0.02894 0.01075-0.05374 0.01075-0.02563 0.02894-0.04465 0.01902-0.01902 0.04382-0.02977 0.02481-0.01075 0.05374-0.01075zm1.3304-0.27947q0 0.12402-0.02481 0.22655-0.02481 0.1017-0.07524 0.17529-0.05044 0.07276-0.12568 0.11328-0.07441 0.03969-0.17529 0.03969-0.08682 0-0.15792-0.03225-0.07111-0.03307-0.12154-0.10087-0.05044-0.0678-0.07772-0.17281-0.02728-0.10501-0.02728-0.24888 0-0.12402 0.02481-0.22655 0.02563-0.10253 0.07524-0.17529 0.05044-0.07359 0.12568-0.11328 0.07524-0.04051 0.17529-0.04051 0.08682 0 0.15792 0.03307 0.07111 0.03225 0.12154 0.10087 0.05044 0.0678 0.07772 0.17281 0.02729 0.10501 0.02729 0.24888zm-0.14552 5e-3q0-0.02811-0.0025-0.0554-0.0017-0.02811-0.0041-0.05457l-0.45724 0.33983q0.0124 0.04299 0.03142 0.07938 0.01902 0.03638 0.04548 0.06284 0.02728 0.02563 0.06119 0.04051 0.03473 0.01406 0.07855 0.01406 0.05623 0 0.1017-0.02729 0.0463-0.02728 0.07855-0.08103 0.03225-0.05374 0.04961-0.13312 0.01736-0.0802 0.01736-0.18521zm-0.49444-0.0099q0 0.02563 0 0.05126 8.27e-4 0.02563 0.0033 0.04961l0.45724-0.33817q-0.0124-0.04217-0.03142-0.0769t-0.04548-0.05953q-0.02646-0.02563-0.06036-0.03969t-0.07607-0.01406q-0.05622 0-0.10253 0.02729-0.04548 0.02728-0.07772 0.08186-0.03225 0.05374-0.04961 0.13395-0.01736 0.07937-0.01736 0.18438zm1.571 5e-3q0 0.12402-0.02481 0.22655-0.02481 0.1017-0.07524 0.17529-0.05044 0.07276-0.12568 0.11328-0.07442 0.03969-0.17529 0.03969-0.08682 0-0.15792-0.03225-0.07111-0.03307-0.12154-0.10087-0.05044-0.0678-0.07772-0.17281-0.02729-0.10501-0.02729-0.24888 0-0.12402 0.02481-0.22655 0.02563-0.10253 0.07524-0.17529 0.05044-0.07359 0.12568-0.11328 0.07524-0.04051 0.17529-0.04051 0.08682 0 0.15792 0.03307 0.07111 0.03225 0.12154 0.10087 0.05044 0.0678 0.07772 0.17281 0.02728 0.10501 0.02728 0.24888zm-0.14552 5e-3q0-0.02811-0.0025-0.0554-0.0017-0.02811-0.0041-0.05457l-0.45724 0.33983q0.0124 0.04299 0.03142 0.07938 0.01902 0.03638 0.04548 0.06284 0.02728 0.02563 0.06118 0.04051 0.03473 0.01406 0.07855 0.01406 0.05622 0 0.1017-0.02729 0.0463-0.02728 0.07855-0.08103 0.03225-0.05374 0.04961-0.13312 0.01736-0.0802 0.01736-0.18521zm-0.49444-0.0099q0 0.02563 0 0.05126 8.27e-4 0.02563 0.0033 0.04961l0.45724-0.33817q-0.0124-0.04217-0.03142-0.0769t-0.04548-0.05953q-0.02646-0.02563-0.06036-0.03969t-0.07607-0.01406q-0.05622 0-0.10253 0.02729-0.04548 0.02728-0.07772 0.08186-0.03225 0.05374-0.04961 0.13395-0.01736 0.07937-0.01736 0.18438zm1.571 5e-3q0 0.12402-0.02481 0.22655-0.02481 0.1017-0.07524 0.17529-0.05044 0.07276-0.12568 0.11328-0.07441 0.03969-0.17529 0.03969-0.08682 0-0.15792-0.03225-0.07111-0.03307-0.12154-0.10087-0.05044-0.0678-0.07772-0.17281-0.02729-0.10501-0.02729-0.24888 0-0.12402 0.02481-0.22655 0.02563-0.10253 0.07524-0.17529 0.05044-0.07359 0.12568-0.11328 0.07524-0.04051 0.17529-0.04051 0.08682 0 0.15792 0.03307 0.07111 0.03225 0.12154 0.10087 0.05044 0.0678 0.07772 0.17281 0.02729 0.10501 0.02729 0.24888zm-0.14552 5e-3q0-0.02811-0.0025-0.0554-0.0017-0.02811-0.0041-0.05457l-0.45724 0.33983q0.0124 0.04299 0.03142 0.07938 0.01902 0.03638 0.04548 0.06284 0.02729 0.02563 0.06119 0.04051 0.03473 0.01406 0.07855 0.01406 0.05622 0 0.1017-0.02729 0.0463-0.02728 0.07855-0.08103 0.03225-0.05374 0.04961-0.13312 0.01736-0.0802 0.01736-0.18521zm-0.49444-0.0099q0 0.02563 0 0.05126 8.27e-4 0.02563 0.0033 0.04961l0.45724-0.33817q-0.0124-0.04217-0.03142-0.0769t-0.04548-0.05953q-0.02646-0.02563-0.06036-0.03969t-0.07607-0.01406q-0.05623 0-0.10253 0.02729-0.04548 0.02728-0.07772 0.08186-0.03225 0.05374-0.04961 0.13395-0.01736 0.07937-0.01736 0.18438zm1.571 5e-3q0 0.12402-0.0248 0.22655-0.02481 0.1017-0.07524 0.17529-0.05044 0.07276-0.12568 0.11328-0.07442 0.03969-0.17529 0.03969-0.08682 0-0.15792-0.03225-0.07111-0.03307-0.12154-0.10087-0.05044-0.0678-0.07772-0.17281-0.02728-0.10501-0.02728-0.24888 0-0.12402 0.02481-0.22655 0.02563-0.10253 0.07524-0.17529 0.05044-0.07359 0.12568-0.11328 0.07524-0.04051 0.17529-0.04051 0.08682 0 0.15792 0.03307 0.07111 0.03225 0.12154 0.10087 0.05044 0.0678 0.07772 0.17281 0.02729 0.10501 0.02729 0.24888zm-0.14552 5e-3q0-0.02811-0.0025-0.0554-0.0017-0.02811-0.0041-0.05457l-0.45724 0.33983q0.0124 0.04299 0.03142 0.07938 0.01902 0.03638 0.04547 0.06284 0.02729 0.02563 0.06119 0.04051 0.03473 0.01406 0.07855 0.01406 0.05622 0 0.1017-0.02729 0.0463-0.02728 0.07855-0.08103 0.03225-0.05374 0.04961-0.13312 0.01736-0.0802 0.01736-0.18521zm-0.49444-0.0099q0 0.02563 0 0.05126 8.27e-4 0.02563 0.0033 0.04961l0.45724-0.33817q-0.0124-0.04217-0.03142-0.0769t-0.04548-0.05953q-0.02646-0.02563-0.06036-0.03969t-0.07607-0.01406q-0.05622 0-0.10253 0.02729-0.04548 0.02728-0.07772 0.08186-0.03225 0.05374-0.04961 0.13395-0.01736 0.07937-0.01736 0.18438z" style="paint-order:stroke fill markers" aria-label="1.0000"/>
   <path d="m61.581 54.994h-0.67883v-0.13395h0.27782v-0.7888l-0.2588 0.14056-0.05292-0.12237 0.34396-0.18108h0.12733v0.95168h0.24143zm0.56555-0.26045q0.02811 0 0.05292 0.01075 0.02563 0.01075 0.04382 0.02977 0.01902 0.01902 0.02977 0.04465 0.01075 0.02481 0.01075 0.05374 0 0.02811-0.01075 0.05292t-0.02977 0.04382q-0.01819 0.01819-0.04382 0.02894-0.0248 0.01075-0.05292 0.01075-0.02894 0-0.05374-0.01075-0.02481-0.01075-0.04382-0.02894-0.01819-0.01902-0.02894-0.04382-0.01075-0.02481-0.01075-0.05292 0-0.02894 0.01075-0.05374 0.01075-0.02563 0.02894-0.04465 0.01902-0.01902 0.04382-0.02977 0.02481-0.01075 0.05374-0.01075zm1.3304-0.27947q0 0.12402-0.02481 0.22655-0.02481 0.1017-0.07524 0.17529-0.05044 0.07276-0.12568 0.11328-0.07442 0.03969-0.17529 0.03969-0.08682 0-0.15792-0.03225-0.07111-0.03307-0.12154-0.10087-0.05044-0.0678-0.07772-0.17281-0.02729-0.10501-0.02729-0.24888 0-0.12402 0.02481-0.22655 0.02563-0.10253 0.07524-0.17529 0.05044-0.07359 0.12568-0.11328 0.07524-0.04051 0.17529-0.04051 0.08682 0 0.15792 0.03307 0.07111 0.03225 0.12154 0.10087 0.05044 0.0678 0.07772 0.17281 0.02729 0.10501 0.02729 0.24888zm-0.14552 5e-3q0-0.02811-0.0025-0.0554-0.0017-0.02811-0.0041-0.05457l-0.45724 0.33983q0.0124 0.04299 0.03142 0.07938 0.01902 0.03638 0.04548 0.06284 0.02728 0.02563 0.06119 0.04051 0.03473 0.01406 0.07855 0.01406 0.05623 0 0.1017-0.02729 0.0463-0.02728 0.07855-0.08103 0.03225-0.05374 0.04961-0.13312 0.01736-0.0802 0.01736-0.18521zm-0.49444-0.0099q0 0.02563 0 0.05126 8.26e-4 0.02563 0.0033 0.04961l0.45724-0.33817q-0.0124-0.04217-0.03142-0.0769t-0.04548-0.05953q-0.02646-0.02563-0.06036-0.03969t-0.07607-0.01406q-0.05622 0-0.10253 0.02729-0.04548 0.02728-0.07772 0.08186-0.03225 0.05374-0.04961 0.13395-0.01736 0.07937-0.01736 0.18438zm1.5594 0.20257q0 0.07441-0.02728 0.13973-0.02646 0.06532-0.07607 0.1141-0.04961 0.04796-0.11989 0.07607-0.06945 0.02729-0.15462 0.02729-0.0893 0-0.15792-0.02811-0.06863-0.02894-0.11493-0.08764-0.0463-0.05953-0.07028-0.14966-0.02398-0.09013-0.02398-0.21332 0-0.08268 0.01075-0.1604 0.01075-0.07772 0.03555-0.14635 0.02481-0.06863 0.06615-0.12568 0.04134-0.05705 0.10253-0.09757 0.06201-0.04134 0.14552-0.06367 0.08351-0.02315 0.19348-0.02315h0.10666v0.12561h-0.11576q-0.09674 0-0.16785 0.02315-0.07111 0.02315-0.11906 0.06532-0.04796 0.04217-0.07359 0.1017t-0.03225 0.13312l-0.0033 0.0339q0.05209-0.03059 0.11989-0.04878 0.06863-0.01902 0.148-0.01902 0.08186 0 0.14304 0.02398 0.06201 0.02398 0.10253 0.06697 0.04134 0.04217 0.06201 0.1017t0.02067 0.13064zm-0.15048 0.0091q0-0.04961-0.0124-0.0893-0.01158-0.04051-0.03721-0.0678-0.02563-0.02811-0.06532-0.043-0.03886-0.01571-0.09343-0.01571-0.03142 0-0.06367 0.0058t-0.06367 0.01654q-0.03059 0.0099-0.05871 0.02315-0.02811 0.01323-0.05126 0.02811 0 0.10666 0.01488 0.1786 0.01488 0.07111 0.04382 0.1141 0.02977 0.04299 0.07276 0.06119 0.04299 0.01819 0.09922 0.01819 0.04713 0 0.08599-0.01488 0.03969-0.01571 0.0678-0.04548 0.02894-0.02977 0.04465-0.07193 0.01654-0.04299 0.01654-0.09757zm1.0683 0.33321h-0.7119v-0.12899l0.27947-0.27782q0.06863-0.0678 0.11162-0.11741 0.043-0.04961 0.06697-0.09013 0.02398-0.04134 0.03225-0.07772 0.0083-0.03638 0.0083-0.07855 0-0.03969-0.01075-0.07524-0.01075-0.03638-0.03307-0.06367-0.02232-0.02728-0.05788-0.043-0.03555-0.01571-0.08516-0.01571-0.06863 0-0.12485 0.03059-0.05622 0.03059-0.10335 0.07938l-0.07938-0.09509q0.06118-0.06449 0.14056-0.10335 0.0802-0.03886 0.18604-0.03886 0.07194 0 0.13064 0.0215 0.05953 0.0215 0.10253 0.06201 0.04299 0.04051 0.06615 0.09922 0.02398 0.0587 0.02398 0.13229 0 0.06201-0.01654 0.11493t-0.05044 0.10583q-0.03307 0.05209-0.08434 0.10832-0.05044 0.05622-0.11989 0.1232l-0.19596 0.191h0.52504zm0.90373-0.34562q0 0.0802-0.03473 0.14635-0.03473 0.06615-0.09591 0.1141-0.06036 0.04713-0.14304 0.07359-0.08268 0.02646-0.1786 0.02646-0.02398 0-0.05209-0.0017-0.02729-8.27e-4 -0.05457-0.0033-0.02729-0.0017-0.05374-0.0041-0.02563-0.0025-0.0463-0.0058v-0.13064q0.04465 0.01075 0.1017 0.01571 0.05788 5e-3 0.11658 5e-3 0.06615 0 0.11906-0.01571 0.05292-0.01571 0.09012-0.04465 0.03721-0.02977 0.05705-0.07111 0.01984-0.04217 0.01984-0.09426 0-0.10087-0.07276-0.14635-0.07193-0.0463-0.20753-0.0463h-0.20505v-0.55232h0.58209v0.12568h-0.44649v0.30345h0.09426q0.07772 0 0.15131 0.01406t0.13064 0.04961q0.05788 0.03473 0.0926 0.09426 0.03555 0.05871 0.03555 0.148z" style="paint-order:stroke fill markers" aria-label="1.0625"/>
   <path d="m70.632 50.469h-0.67883v-0.13395h0.27782v-0.7888l-0.2588 0.14056-0.05292-0.12237 0.34396-0.18108h0.12733v0.95168h0.24144zm0.56555-0.26045q0.02811 0 0.05292 0.01075 0.02563 0.01075 0.04382 0.02977 0.01902 0.01902 0.02977 0.04465 0.01075 0.02481 0.01075 0.05374 0 0.02811-0.01075 0.05292t-0.02977 0.04382q-0.01819 0.01819-0.04382 0.02894-0.02481 0.01075-0.05292 0.01075-0.02894 0-0.05374-0.01075-0.02481-0.01075-0.04382-0.02894-0.01819-0.01902-0.02894-0.04382-0.01075-0.02481-0.01075-0.05292 0-0.02894 0.01075-0.05374 0.01075-0.02563 0.02894-0.04465 0.01902-0.01902 0.04382-0.02977 0.02481-0.01075 0.05374-0.01075zm1.2965 0.26045h-0.67883v-0.13395h0.27782v-0.7888l-0.2588 0.14056-0.05292-0.12237 0.34396-0.18108h0.12733v0.95168h0.24143zm0.94011 0h-0.7119v-0.12899l0.27947-0.27782q0.06863-0.0678 0.11162-0.11741 0.043-0.04961 0.06697-0.09012 0.02398-0.04134 0.03225-0.07772 0.0083-0.03638 0.0083-0.07855 0-0.03969-0.01075-0.07524-0.01075-0.03638-0.03307-0.06367t-0.05788-0.04299q-0.03555-0.01571-0.08516-0.01571-0.06863 0-0.12485 0.03059-0.05622 0.03059-0.10335 0.07938l-0.07938-0.09509q0.06118-0.06449 0.14056-0.10335 0.0802-0.03886 0.18604-0.03886 0.07193 0 0.13064 0.0215 0.05953 0.0215 0.10253 0.06201 0.043 0.04051 0.06615 0.09922 0.02398 0.05871 0.02398 0.13229 0 0.06201-0.01654 0.11493t-0.05044 0.10583q-0.03307 0.05209-0.08434 0.10832-0.05044 0.05623-0.11989 0.1232l-0.19596 0.191h0.52504zm0.90373-0.34562q0 0.0802-0.03473 0.14635-0.03473 0.06615-0.09591 0.1141-0.06036 0.04713-0.14304 0.07359-0.08268 0.02646-0.1786 0.02646-0.02398 0-0.05209-0.0017-0.02728-8.27e-4 -0.05457-0.0033-0.02729-0.0017-0.05374-0.0041-0.02563-0.0025-0.0463-0.0058v-0.13064q0.04465 0.01075 0.1017 0.01571 0.05788 5e-3 0.11658 5e-3 0.06615 0 0.11906-0.01571 0.05292-0.01571 0.09013-0.04465 0.03721-0.02977 0.05705-0.07111 0.01984-0.04217 0.01984-0.09426 0-0.10087-0.07276-0.14635-0.07193-0.0463-0.20754-0.0463h-0.20505v-0.55232h0.58209v0.12568h-0.44649v0.30345h0.09426q0.07772 0 0.15131 0.01406t0.13064 0.04961q0.05788 0.03473 0.0926 0.09426 0.03555 0.0587 0.03555 0.148zm0.9831-0.19431q0 0.12402-0.02481 0.22655-0.02481 0.1017-0.07524 0.17529-0.05044 0.07276-0.12568 0.11328-0.07442 0.03969-0.17529 0.03969-0.08682 0-0.15792-0.03225-0.07111-0.03307-0.12154-0.10087-0.05044-0.0678-0.07772-0.17281-0.02729-0.10501-0.02729-0.24888 0-0.12402 0.02481-0.22655 0.02563-0.10253 0.07524-0.17529 0.05044-0.07359 0.12568-0.11328 0.07524-0.04051 0.17529-0.04051 0.08682 0 0.15792 0.03307 0.07111 0.03225 0.12154 0.10087 0.05044 0.0678 0.07772 0.17281 0.02729 0.10501 0.02729 0.24888zm-0.14552 5e-3q0-0.02811-0.0025-0.0554-0.0017-0.02811-0.0041-0.05457l-0.45724 0.33983q0.0124 0.043 0.03142 0.07938t0.04547 0.06284q0.02729 0.02563 0.06119 0.04051 0.03473 0.01406 0.07855 0.01406 0.05622 0 0.1017-0.02728 0.0463-0.02729 0.07855-0.08103t0.04961-0.13312q0.01736-0.0802 0.01736-0.18521zm-0.49444-0.0099q0 0.02563 0 0.05126 8.27e-4 0.02563 0.0033 0.04961l0.45724-0.33817q-0.0124-0.04217-0.03142-0.0769t-0.04548-0.05953q-0.02646-0.02563-0.06036-0.03969t-0.07607-0.01406q-0.05622 0-0.10253 0.02728-0.04548 0.02729-0.07772 0.08186-0.03225 0.05374-0.04961 0.13395-0.01736 0.07938-0.01736 0.18438z" style="paint-order:stroke fill markers" aria-label="1.1250"/>
   <path d="m79.636 45.943h-0.67883v-0.13395h0.27782v-0.7888l-0.2588 0.14056-0.05292-0.12237 0.34396-0.18108h0.12733v0.95168h0.24144zm0.56555-0.26045q0.02811 0 0.05292 0.01075 0.02563 0.01075 0.04382 0.02977 0.01902 0.01902 0.02977 0.04465 0.01075 0.02481 0.01075 0.05374 0 0.02811-0.01075 0.05292t-0.02977 0.04382q-0.01819 0.01819-0.04382 0.02894-0.02481 0.01075-0.05292 0.01075-0.02894 0-0.05374-0.01075t-0.04382-0.02894q-0.01819-0.01902-0.02894-0.04382-0.01075-0.02481-0.01075-0.05292 0-0.02894 0.01075-0.05374 0.01075-0.02563 0.02894-0.04465 0.01902-0.01902 0.04382-0.02977 0.02481-0.01075 0.05374-0.01075zm1.2965 0.26045h-0.67883v-0.13395h0.27782v-0.7888l-0.2588 0.14056-0.05292-0.12237 0.34396-0.18108h0.12733v0.95168h0.24144zm0.94011-0.2712q0 0.06863-0.02811 0.12237-0.02811 0.05292-0.07855 0.0893t-0.11906 0.0554q-0.06863 0.01902-0.14883 0.01902-0.08847 0-0.15627-0.01984-0.06697-0.01984-0.11245-0.0554-0.04548-0.03555-0.06863-0.08434-0.02315-0.04878-0.02315-0.10749 0-0.09922 0.0554-0.17115 0.0554-0.07193 0.17115-0.13064-0.10583-0.05374-0.15462-0.11906-0.04878-0.06615-0.04878-0.15131 0-0.05209 0.0215-0.10087 0.0215-0.04878 0.06449-0.08682 0.04382-0.03803 0.10914-0.06036 0.06532-0.02315 0.15379-0.02315 0.08351 0 0.14635 0.01819 0.06367 0.01736 0.10666 0.05044 0.043 0.03307 0.06449 0.0802 0.0215 0.04713 0.0215 0.10501 0 0.09426-0.05292 0.1604-0.05209 0.06615-0.14883 0.11576 0.04796 0.02398 0.0893 0.05292t0.07194 0.06449q0.03059 0.03555 0.04713 0.07938 0.01736 0.04382 0.01736 0.09757zm-0.17116-0.55894q0-0.07359-0.05209-0.10914-0.05126-0.03638-0.1447-0.03638-0.09261 0-0.1447 0.03555-0.05126 0.03555-0.05126 0.10666 0 0.03225 0.0124 0.05953 0.0124 0.02729 0.03803 0.05126 0.02646 0.02398 0.06532 0.04713t0.0926 0.04713q0.09343-0.04382 0.13891-0.09095 0.04548-0.04796 0.04548-0.1108zm0.01488 0.56969q0-0.03059-0.0099-0.05953t-0.03555-0.05705q-0.02563-0.02811-0.06863-0.05622t-0.10914-0.05788q-0.05622 0.02728-0.09509 0.05457-0.03803 0.02646-0.06201 0.05457-0.02315 0.02729-0.03307 0.05705-0.0099 0.02977-0.0099 0.06284 0 0.03721 0.01571 0.06615 0.01654 0.02811 0.04465 0.04796 0.02811 0.01984 0.06697 0.02977 0.03886 0.0099 0.08434 0.0099 0.04382 0 0.08268-0.0091t0.06697-0.02728q0.02894-0.01902 0.04548-0.04713 0.01654-0.02894 0.01654-0.06863zm1.0815-0.68627-0.4531 0.94672h-0.16454l0.47047-0.94672h-0.58374v-0.13395h0.73092zm0.90952 0.60111q0 0.0802-0.03473 0.14635-0.03473 0.06615-0.09591 0.1141-0.06036 0.04713-0.14304 0.07359-0.08268 0.02646-0.1786 0.02646-0.02398 0-0.05209-0.0017-0.02729-8.26e-4 -0.05457-0.0033-0.02729-0.0017-0.05374-0.0041-0.02563-0.0025-0.0463-0.0058v-0.13064q0.04465 0.01075 0.1017 0.01571 0.05788 5e-3 0.11658 5e-3 0.06615 0 0.11906-0.01571 0.05292-0.01571 0.09013-0.04465 0.03721-0.02977 0.05705-0.07111 0.01984-0.04217 0.01984-0.09426 0-0.10087-0.07276-0.14635-0.07193-0.0463-0.20753-0.0463h-0.20506v-0.55232h0.58209v0.12568h-0.44649v0.30345h0.09426q0.07772 0 0.15131 0.01406 0.07359 0.01406 0.13064 0.04961 0.05788 0.03473 0.09261 0.09426 0.03555 0.0587 0.03555 0.148z" style="paint-order:stroke fill markers" aria-label="1.1875"/>
  </g>
  <g stroke-width="0">
   <g stroke="#fff" stroke-opacity=".49742" style="paint-order:stroke fill markers" aria-label="0000">
    <path d="m53.782 60.322q0 0.08268-0.01654 0.15104-0.01654 0.0678-0.05016 0.11686-0.03363 0.04851-0.08379 0.07552-0.04961 0.02646-0.11686 0.02646-0.05788 0-0.10528-0.0215-0.0474-0.02205-0.08103-0.06725t-0.05181-0.1152q-0.01819-0.07001-0.01819-0.16592 0-0.08268 0.01654-0.15103 0.01709-0.06835 0.05016-0.11686 0.03362-0.04906 0.08378-0.07552 0.05016-0.02701 0.11686-0.02701 0.05788 0 0.10528 0.02205 0.0474 0.0215 0.08103 0.06725 0.03363 0.0452 0.05182 0.1152 0.01819 0.07001 0.01819 0.16592zm-0.09702 0.0033q0-0.01874-0.0017-0.03693-0.0011-0.01874-0.0028-0.03638l-0.30482 0.22655q0.0083 0.02866 0.02095 0.05292 0.01268 0.02425 0.03032 0.04189 0.01819 0.01709 0.04079 0.02701 0.02315 0.0094 0.05237 0.0094 0.03748 0 0.0678-0.01819 0.03087-0.01819 0.05237-0.05402t0.03307-0.08875q0.01158-0.05347 0.01158-0.12347zm-0.32963-0.0066q0 0.01709 0 0.03418 5.51e-4 0.01709 0.0022 0.03307l0.30482-0.22545q-0.0083-0.02811-0.02095-0.05126-0.01268-0.02315-0.03032-0.03969-0.01764-0.01709-0.04024-0.02646-0.0226-0.0094-0.05071-0.0094-0.03748 0-0.06835 0.01819-0.03032 0.01819-0.05181 0.05457-0.0215 0.03583-0.03307 0.0893-0.01158 0.05292-0.01158 0.12292zm1.0473 0.0033q0 0.08268-0.01654 0.15104-0.01654 0.0678-0.05016 0.11686-0.03362 0.04851-0.08378 0.07552-0.04961 0.02646-0.11686 0.02646-0.05788 0-0.10528-0.0215-0.0474-0.02205-0.08103-0.06725-0.03362-0.0452-0.05181-0.1152-0.01819-0.07001-0.01819-0.16592 0-0.08268 0.01654-0.15103 0.01709-0.06835 0.05016-0.11686 0.03363-0.04906 0.08379-0.07552 0.05016-0.02701 0.11686-0.02701 0.05788 0 0.10528 0.02205 0.0474 0.0215 0.08103 0.06725 0.03363 0.0452 0.05181 0.1152 0.01819 0.07001 0.01819 0.16592zm-0.09701 0.0033q0-0.01874-0.0017-0.03693-0.0011-0.01874-0.0028-0.03638l-0.30482 0.22655q0.0083 0.02866 0.02095 0.05292 0.01268 0.02425 0.03032 0.04189 0.01819 0.01709 0.04079 0.02701 0.02315 0.0094 0.05237 0.0094 0.03748 0 0.0678-0.01819 0.03087-0.01819 0.05237-0.05402t0.03307-0.08875q0.01158-0.05347 0.01158-0.12347zm-0.32963-0.0066q0 0.01709 0 0.03418 5.51e-4 0.01709 0.0022 0.03307l0.30482-0.22545q-0.0083-0.02811-0.02095-0.05126-0.01268-0.02315-0.03032-0.03969-0.01764-0.01709-0.04024-0.02646-0.0226-0.0094-0.05071-0.0094-0.03748 0-0.06835 0.01819-0.03032 0.01819-0.05182 0.05457-0.0215 0.03583-0.03307 0.0893-0.01158 0.05292-0.01158 0.12292z" fill="#0f0"/>
    <path d="m55.024 60.322q0 0.08268-0.01654 0.15104-0.01654 0.0678-0.05016 0.11686-0.03363 0.04851-0.08379 0.07552-0.04961 0.02646-0.11686 0.02646-0.05788 0-0.10528-0.0215-0.0474-0.02205-0.08103-0.06725-0.03362-0.0452-0.05181-0.1152-0.01819-0.07001-0.01819-0.16592 0-0.08268 0.01654-0.15103 0.01709-0.06835 0.05016-0.11686 0.03362-0.04906 0.08378-0.07552 0.05016-0.02701 0.11686-0.02701 0.05788 0 0.10528 0.02205 0.0474 0.0215 0.08103 0.06725 0.03362 0.0452 0.05181 0.1152 0.01819 0.07001 0.01819 0.16592zm-0.09702 0.0033q0-0.01874-0.0017-0.03693-0.0011-0.01874-0.0028-0.03638l-0.30482 0.22655q0.0083 0.02866 0.02095 0.05292 0.01268 0.02425 0.03032 0.04189 0.01819 0.01709 0.04079 0.02701 0.02315 0.0094 0.05237 0.0094 0.03748 0 0.0678-0.01819 0.03087-0.01819 0.05237-0.05402t0.03307-0.08875q0.01158-0.05347 0.01158-0.12347zm-0.32963-0.0066q0 0.01709 0 0.03418 5.51e-4 0.01709 0.0022 0.03307l0.30482-0.22545q-0.0083-0.02811-0.02095-0.05126-0.01268-0.02315-0.03032-0.03969-0.01764-0.01709-0.04024-0.02646-0.0226-0.0094-0.05071-0.0094-0.03748 0-0.06835 0.01819-0.03032 0.01819-0.05181 0.05457-0.0215 0.03583-0.03307 0.0893-0.01158 0.05292-0.01158 0.12292zm1.0473 0.0033q0 0.08268-0.01654 0.15104-0.01654 0.0678-0.05016 0.11686-0.03362 0.04851-0.08378 0.07552-0.04961 0.02646-0.11686 0.02646-0.05788 0-0.10528-0.0215-0.0474-0.02205-0.08103-0.06725-0.03362-0.0452-0.05181-0.1152-0.01819-0.07001-0.01819-0.16592 0-0.08268 0.01654-0.15103 0.01709-0.06835 0.05016-0.11686 0.03363-0.04906 0.08379-0.07552 0.05016-0.02701 0.11686-0.02701 0.05788 0 0.10528 0.02205 0.0474 0.0215 0.08103 0.06725 0.03363 0.0452 0.05181 0.1152 0.01819 0.07001 0.01819 0.16592zm-0.09701 0.0033q0-0.01874-0.0017-0.03693-0.0011-0.01874-0.0028-0.03638l-0.30483 0.22655q0.0083 0.02866 0.02095 0.05292 0.01268 0.02425 0.03032 0.04189 0.01819 0.01709 0.04079 0.02701 0.02315 0.0094 0.05237 0.0094 0.03748 0 0.0678-0.01819 0.03087-0.01819 0.05237-0.05402t0.03307-0.08875q0.01158-0.05347 0.01158-0.12347zm-0.32963-0.0066q0 0.01709 0 0.03418 5.51e-4 0.01709 0.0022 0.03307l0.30482-0.22545q-0.0083-0.02811-0.02095-0.05126-0.01268-0.02315-0.03032-0.03969-0.01764-0.01709-0.04024-0.02646-0.0226-0.0094-0.05071-0.0094-0.03748 0-0.06835 0.01819-0.03032 0.01819-0.05181 0.05457-0.0215 0.03583-0.03307 0.0893-0.01158 0.05292-0.01158 0.12292z" fill="#f00"/>
   </g>
   <g aria-label="0100">
    <path d="m12.807 42.168q0 0.08268-0.01654 0.15103-0.01654 0.0678-0.05016 0.11686-0.03362 0.04851-0.08379 0.07552-0.04961 0.02646-0.11686 0.02646-0.05788 0-0.10528-0.0215-0.0474-0.02205-0.08103-0.06725-0.03362-0.0452-0.05182-0.1152-0.01819-0.07001-0.01819-0.16592 0-0.08268 0.01654-0.15104 0.01709-0.06835 0.05016-0.11686 0.03362-0.04906 0.08379-0.07552 0.05016-0.02701 0.11686-0.02701 0.05788 0 0.10528 0.02205 0.0474 0.0215 0.08103 0.06725 0.03362 0.0452 0.05181 0.1152 0.01819 0.07001 0.01819 0.16592zm-0.09702 0.0033q0-0.01874-0.0017-0.03693-0.0011-0.01874-0.0028-0.03638l-0.30482 0.22655q0.0083 0.02866 0.02095 0.05292 0.01268 0.02425 0.03032 0.04189 0.01819 0.01709 0.04079 0.02701 0.02315 0.0094 0.05237 0.0094 0.03748 0 0.0678-0.01819 0.03087-0.01819 0.05237-0.05402t0.03307-0.08875q0.01158-0.05347 0.01158-0.12347zm-0.32963-0.0066q0 0.01709 0 0.03418 5.51e-4 0.01709 0.0022 0.03307l0.30482-0.22545q-0.0083-0.02811-0.02095-0.05126-0.01268-0.02315-0.03032-0.03969-0.01764-0.01709-0.04024-0.02646-0.0226-0.0094-0.05071-0.0094-0.03748 0-0.06835 0.01819-0.03032 0.01819-0.05181 0.05457-0.0215 0.03583-0.03307 0.0893-0.01158 0.05292-0.01158 0.12292zm1.0247 0.36326h-0.45255v-0.0893h0.18521v-0.52586l-0.17253 0.09371-0.03528-0.08158 0.22931-0.12072h0.08489v0.63446h0.16096z" fill="#0f0"/>
    <path d="m14.048 42.168q0 0.08268-0.01654 0.15103-0.01654 0.0678-0.05016 0.11686-0.03362 0.04851-0.08378 0.07552-0.04961 0.02646-0.11686 0.02646-0.05788 0-0.10528-0.0215-0.04741-0.02205-0.08103-0.06725t-0.05181-0.1152q-0.01819-0.07001-0.01819-0.16592 0-0.08268 0.01654-0.15104 0.01709-0.06835 0.05016-0.11686 0.03362-0.04906 0.08378-0.07552 0.05016-0.02701 0.11686-0.02701 0.05788 0 0.10528 0.02205 0.04741 0.0215 0.08103 0.06725 0.03362 0.0452 0.05181 0.1152 0.01819 0.07001 0.01819 0.16592zm-0.09701 0.0033q0-0.01874-0.0017-0.03693-0.0011-0.01874-0.0028-0.03638l-0.30482 0.22655q0.0083 0.02866 0.02095 0.05292 0.01268 0.02425 0.03032 0.04189 0.01819 0.01709 0.04079 0.02701 0.02315 0.0094 0.05237 0.0094 0.03748 0 0.0678-0.01819 0.03087-0.01819 0.05237-0.05402t0.03307-0.08875q0.01158-0.05347 0.01158-0.12347zm-0.32963-0.0066q0 0.01709 0 0.03418 5.51e-4 0.01709 0.0022 0.03307l0.30482-0.22545q-0.0083-0.02811-0.02095-0.05126-0.01268-0.02315-0.03032-0.03969-0.01764-0.01709-0.04024-0.02646-0.0226-0.0094-0.05071-0.0094-0.03748 0-0.06835 0.01819-0.03032 0.01819-0.05181 0.05457-0.0215 0.03583-0.03307 0.0893-0.01158 0.05292-0.01158 0.12292zm1.0473 0.0033q0 0.08268-0.01654 0.15103-0.01654 0.0678-0.05016 0.11686-0.03362 0.04851-0.08379 0.07552-0.04961 0.02646-0.11686 0.02646-0.05788 0-0.10528-0.0215-0.0474-0.02205-0.08103-0.06725t-0.05182-0.1152q-0.01819-0.07001-0.01819-0.16592 0-0.08268 0.01654-0.15104 0.01709-0.06835 0.05016-0.11686 0.03363-0.04906 0.08379-0.07552 0.05016-0.02701 0.11686-0.02701 0.05788 0 0.10528 0.02205 0.0474 0.0215 0.08103 0.06725 0.03362 0.0452 0.05181 0.1152 0.01819 0.07001 0.01819 0.16592zm-0.09702 0.0033q0-0.01874-0.0017-0.03693-0.0011-0.01874-0.0028-0.03638l-0.30482 0.22655q0.0083 0.02866 0.02095 0.05292 0.01268 0.02425 0.03032 0.04189 0.01819 0.01709 0.04079 0.02701 0.02315 0.0094 0.05237 0.0094 0.03748 0 0.0678-0.01819 0.03087-0.01819 0.05237-0.05402t0.03307-0.08875q0.01158-0.05347 0.01158-0.12347zm-0.32963-0.0066q0 0.01709 0 0.03418 5.52e-4 0.01709 0.0022 0.03307l0.30483-0.22546q-0.0083-0.02811-0.02095-0.05126-0.01268-0.02315-0.03032-0.03969-0.01764-0.01709-0.04024-0.02646-0.0226-0.0094-0.05071-0.0094-0.03748 0-0.06835 0.01819-0.03032 0.01819-0.05181 0.05457-0.0215 0.03583-0.03307 0.0893-0.01158 0.05292-0.01158 0.12292z" fill="#f00"/>
   </g>
   <g aria-label="0101">
    <path d="m20.99 46.752q0 0.08268-0.01654 0.15103-0.01654 0.0678-0.05016 0.11686-0.03363 0.04851-0.08379 0.07552-0.04961 0.02646-0.11686 0.02646-0.05788 0-0.10528-0.0215-0.0474-0.02205-0.08103-0.06725t-0.05182-0.1152q-0.01819-0.07001-0.01819-0.16592 0-0.08268 0.01654-0.15104 0.01709-0.06835 0.05016-0.11686 0.03363-0.04906 0.08379-0.07552 0.05016-0.02701 0.11686-0.02701 0.05788 0 0.10528 0.02205 0.04741 0.0215 0.08103 0.06725 0.03363 0.0452 0.05182 0.1152 0.01819 0.07001 0.01819 0.16592zm-0.09701 0.0033q0-0.01874-0.0017-0.03693-0.0011-0.01874-0.0028-0.03638l-0.30482 0.22655q0.0083 0.02866 0.02095 0.05292 0.01268 0.02425 0.03032 0.04189 0.01819 0.01709 0.04079 0.02701 0.02315 0.0094 0.05237 0.0094 0.03748 0 0.0678-0.01819 0.03087-0.01819 0.05237-0.05402t0.03307-0.08875q0.01158-0.05347 0.01158-0.12347zm-0.32963-0.0066q0 0.01709 0 0.03418 5.51e-4 0.01709 0.0022 0.03307l0.30482-0.22545q-0.0083-0.02811-0.02095-0.05126-0.01268-0.02315-0.03032-0.03969-0.01764-0.01709-0.04024-0.02646-0.0226-0.0094-0.05071-0.0094-0.03748 0-0.06835 0.01819-0.03032 0.01819-0.05181 0.05457-0.0215 0.03583-0.03307 0.0893-0.01158 0.05292-0.01158 0.12292zm1.0247 0.36326h-0.45255v-0.0893h0.18521v-0.52586l-0.17253 0.09371-0.03528-0.08158 0.22931-0.12072h0.08489v0.63446h0.16096z" fill="#0f0"/>
    <path d="m22.231 46.752q0 0.08268-0.01654 0.15103-0.01654 0.0678-0.05016 0.11686-0.03363 0.04851-0.08379 0.07552-0.04961 0.02646-0.11686 0.02646-0.05788 0-0.10528-0.0215-0.0474-0.02205-0.08103-0.06725t-0.05182-0.1152q-0.01819-0.07001-0.01819-0.16592 0-0.08268 0.01654-0.15104 0.01709-0.06835 0.05016-0.11686 0.03362-0.04906 0.08378-0.07552 0.05016-0.02701 0.11686-0.02701 0.05788 0 0.10528 0.02205 0.04741 0.0215 0.08103 0.06725 0.03362 0.0452 0.05181 0.1152 0.01819 0.07001 0.01819 0.16592zm-0.09701 0.0033q0-0.01874-0.0017-0.03693-0.0011-0.01874-0.0028-0.03638l-0.30482 0.22655q0.0083 0.02866 0.02095 0.05292 0.01268 0.02425 0.03032 0.04189 0.01819 0.01709 0.04079 0.02701 0.02315 0.0094 0.05237 0.0094 0.03748 0 0.0678-0.01819 0.03087-0.01819 0.05237-0.05402t0.03307-0.08875q0.01158-0.05347 0.01158-0.12347zm-0.32963-0.0066q0 0.01709 0 0.03418 5.51e-4 0.01709 0.0022 0.03307l0.30482-0.22545q-0.0083-0.02811-0.02095-0.05126-0.01268-0.02315-0.03032-0.03969-0.01764-0.01709-0.04024-0.02646-0.0226-0.0094-0.05071-0.0094-0.03748 0-0.06835 0.01819-0.03032 0.01819-0.05181 0.05457-0.0215 0.03583-0.03307 0.0893-0.01157 0.05292-0.01157 0.12292zm1.0247 0.36326h-0.45255v-0.0893h0.18521v-0.52586l-0.17253 0.09371-0.03528-0.08158 0.22931-0.12072h0.08489v0.63446h0.16096z" fill="#f00"/>
   </g>
   <g aria-label="0110">
    <path d="m30.004 51.278q0 0.08268-0.01654 0.15104-0.01654 0.0678-0.05016 0.11686-0.03362 0.04851-0.08378 0.07552-0.04961 0.02646-0.11686 0.02646-0.05788 0-0.10528-0.0215-0.04741-0.02205-0.08103-0.06725t-0.05182-0.1152q-0.01819-0.07001-0.01819-0.16592 0-0.08268 0.01654-0.15103 0.01709-0.06835 0.05016-0.11686 0.03362-0.04906 0.08379-0.07552 0.05016-0.02701 0.11686-0.02701 0.05788 0 0.10528 0.02205 0.04741 0.0215 0.08103 0.06725 0.03362 0.0452 0.05181 0.1152 0.01819 0.07 0.01819 0.16592zm-0.09701 0.0033q0-0.01874-0.0017-0.03693-0.0011-0.01874-0.0028-0.03638l-0.30482 0.22655q0.0083 0.02866 0.02095 0.05292 0.01268 0.02425 0.03032 0.04189 0.01819 0.01709 0.04079 0.02701 0.02315 0.0094 0.05237 0.0094 0.03748 0 0.0678-0.01819 0.03087-0.01819 0.05237-0.05402t0.03307-0.08875q0.01158-0.05347 0.01158-0.12347zm-0.32963-0.0066q0 0.01709 0 0.03418 5.51e-4 0.01709 0.0022 0.03307l0.30482-0.22545q-0.0083-0.02811-0.02095-0.05126-0.01268-0.02315-0.03032-0.03969-0.01764-0.01709-0.04024-0.02646-0.0226-0.0094-0.05071-0.0094-0.03748 0-0.06835 0.01819-0.03032 0.01819-0.05182 0.05457-0.0215 0.03583-0.03307 0.0893-0.01158 0.05292-0.01158 0.12292zm1.0247 0.36326h-0.45255v-0.0893h0.18521v-0.52586l-0.17253 0.09371-0.03528-0.08158 0.22931-0.12072h0.08489v0.63446h0.16096z" fill="#0f0"/>
    <path d="m31.222 51.638h-0.45255v-0.0893h0.18521v-0.52586l-0.17253 0.09371-0.03528-0.08158 0.22931-0.12072h0.08489v0.63446h0.16096zm0.64327-0.35995q0 0.08268-0.01654 0.15104-0.01654 0.0678-0.05016 0.11686-0.03362 0.04851-0.08379 0.07552-0.04961 0.02646-0.11686 0.02646-0.05788 0-0.10528-0.0215-0.04741-0.02205-0.08103-0.06725-0.03363-0.0452-0.05182-0.1152-0.01819-0.07001-0.01819-0.16592 0-0.08268 0.01654-0.15103 0.01709-0.06835 0.05016-0.11686 0.03363-0.04906 0.08379-0.07552 0.05016-0.02701 0.11686-0.02701 0.05788 0 0.10528 0.02205 0.0474 0.0215 0.08103 0.06725 0.03362 0.0452 0.05181 0.1152 0.01819 0.07 0.01819 0.16592zm-0.09701 0.0033q0-0.01874-0.0017-0.03693-0.0011-0.01874-0.0028-0.03638l-0.30482 0.22655q0.0083 0.02866 0.02095 0.05292 0.01268 0.02425 0.03032 0.04189 0.01819 0.01709 0.04079 0.02701 0.02315 0.0094 0.05237 0.0094 0.03748 0 0.0678-0.01819 0.03087-0.01819 0.05237-0.05402t0.03307-0.08875q0.01158-0.05347 0.01158-0.12347zm-0.32963-0.0066q0 0.01709 0 0.03418 5.51e-4 0.01709 0.0022 0.03307l0.30482-0.22545q-0.0083-0.02811-0.02095-0.05126-0.01268-0.02315-0.03032-0.03969-0.01764-0.01709-0.04024-0.02646-0.0226-0.0094-0.05071-0.0094-0.03748 0-0.06835 0.01819-0.03032 0.01819-0.05182 0.05457-0.0215 0.03583-0.03307 0.0893-0.01158 0.05292-0.01158 0.12292z" fill="#f00"/>
   </g>
   <g aria-label="0111">
    <path d="m39.092 55.803q0 0.08268-0.01654 0.15104-0.01654 0.0678-0.05016 0.11686-0.03362 0.04851-0.08379 0.07552-0.04961 0.02646-0.11686 0.02646-0.05788 0-0.10528-0.0215-0.0474-0.02205-0.08103-0.06725-0.03362-0.0452-0.05181-0.11521-0.01819-0.07-0.01819-0.16592 0-0.08268 0.01654-0.15103 0.01709-0.06835 0.05016-0.11686 0.03362-0.04906 0.08378-0.07552 0.05016-0.02701 0.11686-0.02701 0.05788 0 0.10528 0.02205 0.04741 0.0215 0.08103 0.06725 0.03362 0.0452 0.05181 0.11521 0.01819 0.07001 0.01819 0.16592zm-0.09701 0.0033q0-0.01874-0.0017-0.03693-0.0011-0.01874-0.0028-0.03638l-0.30474 0.22656q0.0083 0.02866 0.02095 0.05292 0.01268 0.02425 0.03032 0.04189 0.01819 0.01709 0.04079 0.02701 0.02315 0.0094 0.05237 0.0094 0.03748 0 0.0678-0.01819 0.03087-0.01819 0.05237-0.05402t0.03307-0.08875q0.01158-0.05347 0.01158-0.12347zm-0.32963-0.0066q0 0.01709 0 0.03418 5.51e-4 0.01709 0.0022 0.03307l0.30482-0.22545q-0.0083-0.02811-0.02095-0.05126-0.01268-0.02315-0.03032-0.03969-0.01764-0.01709-0.04024-0.02646-0.0226-0.0094-0.05071-0.0094-0.03748 0-0.06835 0.01819-0.03032 0.01819-0.05182 0.05457-0.0215 0.03583-0.03307 0.0893-0.01158 0.05292-0.01158 0.12292zm1.0247 0.36325h-0.45255v-0.0893h0.18521v-0.52586l-0.17253 0.09371-0.03528-0.08158 0.22931-0.12072h0.08489v0.63446h0.16096z" fill="#0f0"/>
    <path d="m40.311 56.163h-0.45255v-0.0893h0.18521v-0.52586l-0.17253 0.09371-0.03528-0.08158 0.22931-0.12072h0.08489v0.63446h0.16096zm0.62067 0h-0.45255v-0.0893h0.18521v-0.52586l-0.17253 0.09371-0.03528-0.08158 0.22931-0.12072h0.08489v0.63446h0.16096z" fill="#f00"/>
   </g>
   <g aria-label="0011
">
    <path d="m80.921 46.745q0 0.08268-0.01654 0.15103-0.01654 0.0678-0.05016 0.11686-0.03362 0.04851-0.08378 0.07552-0.04961 0.02646-0.11686 0.02646-0.05788 0-0.10528-0.0215-0.0474-0.02205-0.08103-0.06725t-0.05182-0.1152q-0.01819-0.07001-0.01819-0.16592 0-0.08268 0.01654-0.15104 0.01709-0.06835 0.05016-0.11686 0.03363-0.04906 0.08379-0.07552 0.05016-0.02701 0.11686-0.02701 0.05788 0 0.10528 0.02205 0.0474 0.0215 0.08103 0.06725 0.03363 0.0452 0.05181 0.1152 0.01819 0.07001 0.01819 0.16592zm-0.09701 0.0033q0-0.01874-0.0017-0.03693-0.0011-0.01874-0.0028-0.03638l-0.30482 0.22655q0.0083 0.02866 0.02095 0.05292 0.01268 0.02425 0.03032 0.04189 0.01819 0.01709 0.04079 0.02701 0.02315 0.0094 0.05237 0.0094 0.03748 0 0.0678-0.01819 0.03087-0.01819 0.05237-0.05402t0.03307-0.08875q0.01157-0.05347 0.01157-0.12347zm-0.32963-0.0066q0 0.01709 0 0.03418 5.52e-4 0.01709 0.0022 0.03307l0.30482-0.22545q-0.0083-0.02811-0.02095-0.05126-0.01268-0.02315-0.03032-0.03969-0.01764-0.01709-0.04024-0.02646-0.0226-0.0094-0.05071-0.0094-0.03748 0-0.06835 0.01819-0.03032 0.01819-0.05182 0.05457-0.0215 0.03583-0.03307 0.0893-0.01158 0.05292-0.01158 0.12292zm1.0473 0.0033q0 0.08268-0.01654 0.15103-0.01654 0.0678-0.05016 0.11686-0.03362 0.04851-0.08379 0.07552-0.04961 0.02646-0.11686 0.02646-0.05788 0-0.10528-0.0215-0.04741-0.02205-0.08103-0.06725t-0.05182-0.1152q-0.01819-0.07001-0.01819-0.16592 0-0.08268 0.01654-0.15104 0.01709-0.06835 0.05016-0.11686 0.03362-0.04906 0.08379-0.07552 0.05016-0.02701 0.11686-0.02701 0.05788 0 0.10528 0.02205 0.0474 0.0215 0.08103 0.06725 0.03362 0.0452 0.05181 0.1152 0.01819 0.07001 0.01819 0.16592zm-0.09701 0.0033q0-0.01874-0.0017-0.03693-0.0011-0.01874-0.0028-0.03638l-0.30482 0.22655q0.0083 0.02866 0.02095 0.05292 0.01268 0.02425 0.03032 0.04189 0.01819 0.01709 0.04079 0.02701 0.02315 0.0094 0.05237 0.0094 0.03748 0 0.0678-0.01819 0.03087-0.01819 0.05237-0.05402t0.03307-0.08875q0.01158-0.05347 0.01158-0.12347zm-0.32963-0.0066q0 0.01709 0 0.03418 5.51e-4 0.01709 0.0022 0.03307l0.30482-0.22545q-0.0083-0.02811-0.02095-0.05126-0.01268-0.02315-0.03032-0.03969-0.01764-0.01709-0.04024-0.02646-0.0226-0.0094-0.05071-0.0094-0.03748 0-0.06835 0.01819-0.03032 0.01819-0.05181 0.05457-0.0215 0.03583-0.03307 0.0893-0.01158 0.05292-0.01158 0.12292z" fill="#0f0"/>
    <path d="m82.139 47.105h-0.45255v-0.0893h0.18521v-0.52586l-0.17253 0.09371-0.03528-0.08158 0.22931-0.12072h0.08489v0.63446h0.16096zm0.62068 0h-0.45255v-0.0893h0.18521v-0.52586l-0.17253 0.09371-0.03528-0.08158 0.22931-0.12072h0.08489v0.63446h0.16096z" fill="#f00"/>
   </g>
   <g aria-label="0001">
    <path d="m62.865 55.796q0 0.08268-0.01654 0.15103-0.01654 0.0678-0.05016 0.11686-0.03363 0.04851-0.08379 0.07552-0.04961 0.02646-0.11686 0.02646-0.05788 0-0.10528-0.0215-0.0474-0.02205-0.08103-0.06725t-0.05181-0.1152q-0.01819-0.07001-0.01819-0.16592 0-0.08268 0.01654-0.15104 0.01709-0.06835 0.05016-0.11686 0.03363-0.04906 0.08379-0.07552 0.05016-0.02701 0.11686-0.02701 0.05788 0 0.10528 0.02205 0.0474 0.0215 0.08103 0.06725 0.03363 0.0452 0.05182 0.1152 0.01819 0.07 0.01819 0.16592zm-0.09701 0.0033q0-0.01874-0.0017-0.03693-0.0011-0.01874-0.0028-0.03638l-0.30482 0.22655q0.0083 0.02866 0.02095 0.05292 0.01268 0.02425 0.03032 0.04189 0.01819 0.01709 0.04079 0.02701 0.02315 0.0094 0.05237 0.0094 0.03748 0 0.0678-0.01819 0.03087-0.01819 0.05237-0.05402t0.03307-0.08875q0.01158-0.05347 0.01158-0.12347zm-0.32963-0.0066q0 0.01709 0 0.03418 5.52e-4 0.01709 0.0022 0.03307l0.30482-0.22545q-0.0083-0.02811-0.02095-0.05126-0.01268-0.02315-0.03032-0.03969-0.01764-0.01709-0.04024-0.02646-0.0226-0.0094-0.05071-0.0094-0.03748 0-0.06835 0.01819-0.03032 0.01819-0.05182 0.05457-0.0215 0.03583-0.03307 0.0893-0.01158 0.05292-0.01158 0.12292zm1.0473 0.0033q0 0.08268-0.01654 0.15103-0.01654 0.0678-0.05016 0.11686-0.03362 0.04851-0.08378 0.07552-0.04961 0.02646-0.11686 0.02646-0.05788 0-0.10528-0.0215-0.0474-0.02205-0.08103-0.06725-0.03362-0.0452-0.05181-0.1152-0.01819-0.07001-0.01819-0.16592 0-0.08268 0.01654-0.15104 0.01709-0.06835 0.05016-0.11686 0.03362-0.04906 0.08378-0.07552 0.05016-0.02701 0.11686-0.02701 0.05788 0 0.10528 0.02205 0.04741 0.0215 0.08103 0.06725 0.03362 0.0452 0.05181 0.1152 0.01819 0.07 0.01819 0.16592zm-0.09701 0.0033q0-0.01874-0.0017-0.03693-0.0011-0.01874-0.0028-0.03638l-0.30482 0.22655q0.0083 0.02866 0.02095 0.05292 0.01268 0.02425 0.03032 0.04189 0.01819 0.01709 0.04079 0.02701 0.02315 0.0094 0.05237 0.0094 0.03748 0 0.0678-0.01819 0.03087-0.01819 0.05237-0.05402t0.03307-0.08875q0.01158-0.05347 0.01158-0.12347zm-0.32963-0.0066q0 0.01709 0 0.03418 5.51e-4 0.01709 0.0022 0.03307l0.30482-0.22545q-0.0083-0.02811-0.02095-0.05126-0.01268-0.02315-0.03032-0.03969-0.01764-0.01709-0.04024-0.02646-0.0226-0.0094-0.05071-0.0094-0.03748 0-0.06835 0.01819-0.03032 0.01819-0.05181 0.05457-0.0215 0.03583-0.03307 0.0893-0.01158 0.05292-0.01158 0.12292z" fill="#0f0"/>
    <path d="m64.107 55.796q0 0.08268-0.01654 0.15103-0.01654 0.0678-0.05016 0.11686-0.03363 0.04851-0.08379 0.07552-0.04961 0.02646-0.11686 0.02646-0.05788 0-0.10528-0.0215-0.0474-0.02205-0.08103-0.06725t-0.05181-0.1152q-0.01819-0.07001-0.01819-0.16592 0-0.08268 0.01654-0.15104 0.01709-0.06835 0.05016-0.11686 0.03363-0.04906 0.08379-0.07552 0.05016-0.02701 0.11686-0.02701 0.05788 0 0.10528 0.02205 0.0474 0.0215 0.08103 0.06725 0.03363 0.0452 0.05182 0.1152 0.01819 0.07 0.01819 0.16592zm-0.09701 0.0033q0-0.01874-0.0017-0.03693-0.0011-0.01874-0.0028-0.03638l-0.30482 0.22655q0.0083 0.02866 0.02095 0.05292 0.01268 0.02425 0.03032 0.04189 0.01819 0.01709 0.04079 0.02701 0.02315 0.0094 0.05237 0.0094 0.03748 0 0.0678-0.01819 0.03087-0.01819 0.05237-0.05402t0.03307-0.08875q0.01158-0.05347 0.01158-0.12347zm-0.32963-0.0066q0 0.01709 0 0.03418 5.51e-4 0.01709 0.0022 0.03307l0.30483-0.22545q-0.0083-0.02811-0.02095-0.05126-0.01268-0.02315-0.03032-0.03969-0.01764-0.01709-0.04024-0.02646-0.0226-0.0094-0.05071-0.0094-0.03748 0-0.06835 0.01819-0.03032 0.01819-0.05182 0.05457-0.0215 0.03583-0.03307 0.0893-0.01158 0.05292-0.01158 0.12292zm1.0247 0.36326h-0.45255v-0.0893h0.18521v-0.52586l-0.17253 0.09371-0.03528-0.08158 0.22931-0.12072h0.08489v0.63446h0.16096z" fill="#f00"/>
   </g>
   <g aria-label="0010">
    <path d="m71.931 51.271q0 0.08268-0.01654 0.15103-0.01654 0.0678-0.05016 0.11686-0.03363 0.04851-0.08379 0.07552-0.04961 0.02646-0.11686 0.02646-0.05788 0-0.10528-0.0215-0.0474-0.02205-0.08103-0.06725t-0.05182-0.1152q-0.01819-0.07001-0.01819-0.16592 0-0.08268 0.01654-0.15104 0.01709-0.06835 0.05016-0.11686 0.03363-0.04906 0.08379-0.07552 0.05016-0.02701 0.11686-0.02701 0.05788 0 0.10528 0.02205 0.0474 0.0215 0.08103 0.06725 0.03363 0.0452 0.05181 0.1152 0.01819 0.07001 0.01819 0.16592zm-0.09701 0.0033q0-0.01874-0.0017-0.03693-0.0011-0.01874-0.0028-0.03638l-0.30482 0.22655q0.0083 0.02866 0.02095 0.05292 0.01268 0.02425 0.03032 0.04189 0.01819 0.01709 0.04079 0.02701 0.02315 0.0094 0.05237 0.0094 0.03748 0 0.0678-0.01819 0.03087-0.01819 0.05237-0.05402t0.03307-0.08875q0.01158-0.05347 0.01158-0.12347zm-0.32963-0.0066q0 0.01709 0 0.03418 5.51e-4 0.01709 0.0022 0.03307l0.30482-0.22545q-0.0083-0.02811-0.02095-0.05126-0.01268-0.02315-0.03032-0.03969-0.01764-0.01709-0.04024-0.02646-0.0226-0.0094-0.05071-0.0094-0.03748 0-0.06835 0.01819-0.03032 0.01819-0.05182 0.05457-0.0215 0.03583-0.03307 0.0893-0.01157 0.05292-0.01157 0.12292zm1.0473 0.0033q0 0.08268-0.01654 0.15103-0.01654 0.0678-0.05016 0.11686-0.03362 0.04851-0.08379 0.07552-0.04961 0.02646-0.11686 0.02646-0.05788 0-0.10528-0.0215-0.04741-0.02205-0.08103-0.06725t-0.05181-0.1152q-0.01819-0.07001-0.01819-0.16592 0-0.08268 0.01654-0.15104 0.01709-0.06835 0.05016-0.11686 0.03362-0.04906 0.08379-0.07552 0.05016-0.02701 0.11686-0.02701 0.05788 0 0.10528 0.02205 0.0474 0.0215 0.08103 0.06725 0.03362 0.0452 0.05182 0.1152 0.01819 0.07001 0.01819 0.16592zm-0.09701 0.0033q0-0.01874-0.0017-0.03693-0.0011-0.01874-0.0028-0.03638l-0.30482 0.22655q0.0083 0.02866 0.02095 0.05292 0.01268 0.02425 0.03032 0.04189 0.01819 0.01709 0.04079 0.02701 0.02315 0.0094 0.05237 0.0094 0.03748 0 0.0678-0.01819 0.03087-0.01819 0.05237-0.05402t0.03307-0.08875q0.01158-0.05347 0.01158-0.12347zm-0.32963-0.0066q0 0.01709 0 0.03418 5.51e-4 0.01709 0.0022 0.03307l0.30482-0.22545q-0.0083-0.02811-0.02095-0.05126-0.01268-0.02315-0.03032-0.03969-0.01764-0.01709-0.04024-0.02646-0.0226-0.0094-0.05071-0.0094-0.03748 0-0.06835 0.01819-0.03032 0.01819-0.05181 0.05457-0.0215 0.03583-0.03307 0.0893-0.01158 0.05292-0.01158 0.12292z" fill="#0f0"/>
    <path d="m73.15 51.631h-0.45255v-0.0893h0.18521v-0.52586l-0.17253 0.09371-0.03528-0.08158 0.22931-0.12072h0.08489v0.63446h0.16096zm0.64327-0.35995q0 0.08268-0.01654 0.15103-0.01654 0.0678-0.05016 0.11686-0.03362 0.04851-0.08379 0.07552-0.04961 0.02646-0.11686 0.02646-0.05788 0-0.10528-0.0215-0.04741-0.02205-0.08103-0.06725t-0.05181-0.1152q-0.01819-0.07001-0.01819-0.16592 0-0.08268 0.01654-0.15104 0.01709-0.06835 0.05016-0.11686 0.03363-0.04906 0.08379-0.07552 0.05016-0.02701 0.11686-0.02701 0.05788 0 0.10528 0.02205 0.04741 0.0215 0.08103 0.06725 0.03362 0.0452 0.05182 0.1152 0.01819 0.07001 0.01819 0.16592zm-0.09701 0.0033q0-0.01874-0.0017-0.03693-0.0011-0.01874-0.0028-0.03638l-0.30482 0.22655q0.0083 0.02866 0.02095 0.05292 0.01268 0.02425 0.03032 0.04189 0.01819 0.01709 0.04079 0.02701 0.02315 0.0094 0.05237 0.0094 0.03748 0 0.0678-0.01819 0.03087-0.01819 0.05237-0.05402t0.03307-0.08875q0.01158-0.05347 0.01158-0.12347zm-0.32963-0.0066q0 0.01709 0 0.03418 5.51e-4 0.01709 0.0022 0.03307l0.30482-0.22545q-0.0083-0.02811-0.02095-0.05126-0.01268-0.02315-0.03032-0.03969-0.01764-0.01709-0.04024-0.02646-0.0226-0.0094-0.05071-0.0094-0.03748 0-0.06835 0.01819-0.03032 0.01819-0.05181 0.05457-0.0215 0.03583-0.03307 0.0893-0.01158 0.05292-0.01158 0.12292z" fill="#f00"/>
   </g>
  </g>
 </g>
</svg>
